/* XPM */
static char *_141_da79527a774a5689f1423b04ebd725f04b93ef01375a3586d17235c5086674c1[] = {
/* columns rows colors chars-per-pixel */
"50 50 49 1 ",
"  c #E9874A",
". c #EC8C4C",
"X c #EF914E",
"o c #F0924F",
"O c #EF9150",
"+ c #EF975B",
"@ c #F29552",
"# c #F59B54",
"$ c #F89E56",
"% c #F7A057",
"& c #F9A257",
"* c #F7A35B",
"= c #FBA559",
"- c #FFAD5D",
"; c #FFB15F",
": c #F19E66",
"> c #F6A764",
", c #FFAF61",
"< c #FFB261",
"1 c #FFB46B",
"2 c #FFB96D",
"3 c #F4AD78",
"4 c #FFB771",
"5 c #FFB974",
"6 c #F7B57F",
"7 c #FEBD7C",
"8 c #FEBF81",
"9 c #FEC185",
"0 c #FEC48B",
"q c #FEC791",
"w c #FEC995",
"e c #FBC798",
"r c #FECB9B",
"t c #FDCEA1",
"y c #F8CFAE",
"u c #FED0A4",
"i c #FED4AB",
"p c #FDD7B3",
"a c #FDD9B5",
"s c #FDDCBC",
"d c #FCDEC1",
"f c #FDE4CB",
"g c #FDEAD7",
"h c #FDEDDD",
"j c #FDEFE1",
"k c #FCF2E7",
"l c #FCF2E8",
"z c #FCF7F3",
"x c #FCFCFC",
/* pixels */
"--------------------------------------------------",
"-----------4-------------------8------------------",
"--------------------------------2-----------------",
"-------------------------r------2;;,--------------",
"------------------------------;;l;<----;----------",
"----w1-----------------------agfhs;;---;----------",
"------f-1--p----------5------0r-----;-;;-8--------",
"---------------------------;----==edf;<;,w-----a--",
"---------,,-------e--------;<;-%@@%=-;;;;;;-------",
"----------------------------<;-#:.o=-;;;;;--;-----",
"---9----------,t-----------<;<=@..o$=;;-=--;-;;;--",
"-------,p-----ep--------s--<<,=@..X#=;-%$&=-;;;;--",
"-----------------------2---;<-=#oX#%=-%@o#&-;;;;--",
"---8----------------------1;-,-$o#$=s%#..o#-;;;;--",
"-----------------7,-------;-;--%&&=--%O..X#-;;;;--",
"-----------,t8-----------t------==;;-=X..X#-;;-;--",
"----p8-------------------hd-----;;;<;=@XXo&-;;;---",
"----0---------------------w----;;<<;;-%##%=-;;;;--",
"-----------------<-x-----------;;;<;;-=p&==;------",
"-------------,------------------;;2;----;--;------",
"-----------------------------------;;---;;--------",
"--------0----------------1i----07-----,-;;;----1--",
"----------1<--;;--f-----i-zx--791------,;;--------",
"---------xj---;;<-;-------xx-----t----------------",
"-----,,,;xs-5;;;;;;---;2--u-----------------------",
"-----,d1;;----;;;;;---;;-----------------,,-------",
"------,,;;;;;;;;;;-;;;;;-------------4------------",
"--------;;;;;-====--;;;;---------------8------x---",
"1------,;;;<;-=##%=;;;;;;;;-----------8t------y---",
"--------;;;;;=#XX@%-i2;;;-------------,-----------",
"---;-;----;;;=@. X#-;;--=;;----------f4--,--------",
"--;;;;-=&==--=@. X#=-==&==-;---------,---,--------",
"---;<<;%@@%=-=@X.o>=-$@@#=-kx----q------------,---",
"---;<<;6XXX%ed%O@@xs=@+.o=-5<-w-------------------",
"---;<<-i. X%=--#$*xp=3. o%-<<-;-------------------",
"--0;<<*@. .@=--u*---%o. X%-;<<--------------------",
"--;;;<-@X.X%=-7;;;<;t@..@=-;<---------------------",
"--;;;;-*@@#&-;i;<<;;=#@@#=---;-------p------------",
"---s;;-=%%&=0f;;<;<,-=$$==--;-------e,------------",
"---7;;--;==-;7;;;<-,,,--------------------2-------",
"--------;--;--;=2--,-i-;,-------7-----------,-----",
"--17---;;;;;--2;-----9-;4-qi--------------,t,-----",
"---24---9;;-;-qi--q,-,;;-----------------8,-------",
"---7--9;-;------1r,----1--------------1---8-------",
"-----------------------1-------------4----zx------",
"-------------------,-5-1-s-----1--------,-,d------",
"------1---------------1--h5-----------------------",
"---------------4--02-----------------t--,t--------",
"-------------------885,------,----------s---------",
"-----------------w55---------,--------------------"
};
