/* XPM */
static char *_6549_8cc9d40d7eb59205369fd62c21de05a1e0869198888a75a6de35d852aa3a99ed[] = {
/* columns rows colors chars-per-pixel */
"50 50 256 2 ",
"   c #020104",
".  c #02010C",
"X  c #09060C",
"o  c #0C0A0C",
"O  c #04080B",
"+  c #170303",
"@  c #020313",
"#  c #090712",
"$  c #050913",
"%  c #0B0C13",
"&  c #000219",
"*  c #030B1A",
"=  c #080118",
"-  c #0E1115",
";  c #05131D",
":  c #0A131B",
">  c #051919",
",  c #121315",
"<  c #111519",
"1  c #131A1B",
"2  c #191C1A",
"3  c #12140D",
"4  c #2D090C",
"5  c #1A231C",
"6  c #0F2C10",
"7  c #26291C",
"8  c #313014",
"9  c #051825",
"0  c #0C162F",
"q  c #0C252B",
"w  c #0A2126",
"e  c #1E2A23",
"r  c #172827",
"t  c #0A2A37",
"y  c #08363A",
"u  c #193836",
"i  c #13302C",
"p  c #243224",
"a  c #273928",
"s  c #233B3A",
"d  c #2D2D34",
"f  c #3B1730",
"g  c #4C050E",
"h  c #4E380A",
"j  c #722B0D",
"k  c #47122D",
"l  c #572D2F",
"z  c #6C2E2E",
"x  c #771511",
"c  c #1E463B",
"v  c #0C5134",
"b  c #284738",
"n  c #324B37",
"m  c #385638",
"M  c #2F4E33",
"N  c #19663A",
"B  c #3C613E",
"V  c #1E451A",
"C  c #7C6816",
"Z  c #51562D",
"A  c #714C2D",
"S  c #596329",
"D  c #497030",
"F  c #646421",
"G  c #777924",
"H  c #6A7727",
"J  c #565116",
"K  c #0E394E",
"L  c #223B46",
"P  c #162169",
"I  c #501A45",
"U  c #174A48",
"Y  c #1B5845",
"T  c #174953",
"R  c #1D555C",
"E  c #285845",
"W  c #264A55",
"Q  c #265A56",
"!  c #365C54",
"~  c #2C4C4D",
"^  c #056B5B",
"/  c #16745E",
"(  c #13695B",
")  c #2A6449",
"_  c #39694A",
"`  c #3B645D",
"'  c #39645A",
"]  c #2D785B",
"[  c #3C7954",
"{  c #277549",
"}  c #025C65",
"|  c #2C5966",
" . c #386964",
".. c #287663",
"X. c #377468",
"o. c #2F6C6A",
"O. c #436943",
"+. c #4A7949",
"@. c #427E54",
"#. c #477B57",
"$. c #4C744A",
"%. c #457467",
"&. c #427670",
"*. c #564F4C",
"=. c #B5080F",
"-. c #AF282A",
";. c #8F1D16",
":. c #CC1217",
">. c #FF172B",
",. c #CF3239",
"<. c #F9322F",
"1. c #C50D2A",
"2. c #96512A",
"3. c #90621E",
"4. c #DC4F33",
"5. c #F44832",
"6. c #CE722E",
"7. c #F67133",
"8. c #C74C07",
"9. c #963745",
"0. c #A93E5C",
"q. c #F12C47",
"w. c #B6724A",
"e. c #8C6448",
"r. c #FF6348",
"t. c #F15542",
"y. c #738E0E",
"u. c #4B8936",
"i. c #7B953B",
"p. c #6C8D3C",
"a. c #69A336",
"s. c #378759",
"d. c #248856",
"f. c #3B8760",
"g. c #329271",
"h. c #1C8554",
"j. c #4D824E",
"k. c #478C4D",
"l. c #54844B",
"z. c #5B8B4B",
"x. c #57894B",
"c. c #4C934D",
"v. c #459B4B",
"b. c #5D924B",
"n. c #54954F",
"m. c #498755",
"M. c #538C53",
"N. c #568A57",
"B. c #49965A",
"V. c #5D9B55",
"C. c #589658",
"Z. c #658B47",
"A. c #63924A",
"S. c #669A4B",
"D. c #789A46",
"F. c #639A55",
"G. c #679D55",
"H. c #798846",
"J. c #51A254",
"K. c #6CA65A",
"L. c #6DAB5D",
"P. c #65A45A",
"I. c #71AE5C",
"U. c #71AF53",
"Y. c #518962",
"T. c #4A9668",
"R. c #569A66",
"E. c #519676",
"W. c #4B856C",
"Q. c #609E60",
"!. c #58A364",
"~. c #4AA26E",
"^. c #65A764",
"/. c #75B762",
"(. c #66B074",
"). c #7BC468",
"_. c #7BC554",
"`. c #909210",
"'. c #AA8F0C",
"]. c #BDA51E",
"[. c #BAB718",
"{. c #9B972A",
"}. c #8B9534",
"|. c #839739",
" X c #949831",
".X c #8D8C29",
"XX c #A49D29",
"oX c #AD9E24",
"OX c #B09D20",
"+X c #9BA737",
"@X c #93AB28",
"#X c #ADA226",
"$X c #ABA429",
"%X c #A9A829",
"&X c #B3A524",
"*X c #BAA621",
"=X c #B6AB28",
"-X c #A8B825",
";X c #B9B72B",
":X c #ACAE33",
">X c #96AC1F",
",X c #C3AA1D",
"<X c #CAAB1A",
"1X c #C4A619",
"2X c #D1AA18",
"3X c #C9B31C",
"4X c #D8B317",
"5X c #D0B20A",
"6X c #E9BB11",
"7X c #C3B92B",
"8X c #C7B928",
"9X c #D5BF25",
"0X c #FDA423",
"qX c #E29035",
"wX c #B4C42B",
"eX c #B0C434",
"rX c #9BC93D",
"tX c #F4CD17",
"yX c #C6C62B",
"uX c #D8CA29",
"iX c #DAD32C",
"pX c #DAD535",
"aX c #CAD032",
"sX c #E5CD26",
"dX c #E7D52C",
"fX c #E8D933",
"gX c #FBCC32",
"hX c #D5E53A",
"jX c #F8F836",
"kX c #FBE82F",
"lX c #C8C31B",
"zX c #8BB14D",
"xX c #99AF5E",
"cX c #D48F49",
"vX c #FB8E4A",
"bX c #F0A858",
"nX c #98C94F",
"mX c #94C451",
"MX c #A9C948",
"NX c #ADD650",
"BX c #8DCE66",
"VX c #9FE256",
"CX c #FFC35F",
"ZX c #FEC964",
"AX c #FFE672",
"SX c #E2DF57",
"DX c #3267BD",
"FX c #FD6A86",
"GX c #619E81",
"HX c #F9B19A",
"JX c #D1DE9A",
"KX c #8FB4DE",
"LX c #E7A8D3",
"PX c #FEFBCC",
"IX c #F0F4FB",
"UX c None",
/* pixels */
"UXUXUXUXUXUXUXUXUXUXUXUXUXUXUXUXUXUXUXUXUXUXUXUXUXUXUXUXUXUXUXUXUXUXUXUXUXUXUXUXUXUXUXUXUXUXUXUXUXUX",
"UXUXUXUXUXUXUXUXUXUXUXUXUXUXUXUXUXUXUXUXUXUXUXUXUXUXUXUXUXUXUXUXUXUXUXUXUXUXUXUXUXUXUXUXUXUXUXUXUXUX",
"UXUXUXUXUXUXUXUXUXUXUXUXUXUXUXUXUXUXUXUXUXUXUXUXUXUXUXUXUXUXUXUXUXUXUXUXUXUXUXUXUXUXUXUXUXUXUXUXUXUX",
"UXUXUXUXUXUXUXUXUXUXUXUXUXUXUXUXUXUXUXUXUXUXUXUXUXUXUXUXUXUXUXUXUXUXUXUXUXUXUXUXUXUXUXUXUXUXUXUXUXUX",
"UXUXUXUXUXUXUXUXUXUXUXUXUXUXUXUXUXUXUXUXUXUXUXUXUXUXUXUXUXUXUXUXUXUXUXUXUXUXUXUXUXUXUXUXUXUXUXUXUXUX",
"UXUXUXUXUXUXUXUXUXUXUXUXUXUXUXUXUXUXUXUXUXUXUXUXUX% - O @ @ & * : UXUXUXUXUXUXUXUXUXUXUXUXUXUXUXUXUX",
"UXUXUXUXUXUXUXUXUXUXUXUXUXUXUXUXUXUXUXUXUXUXUXUXUX: 5 1 ; ; 9 9 w 1 UXUXUXUXUXUXUXUXUXUXUXUXUXUXUXUX",
"UXUXUXUXUXUXUXUXUXUXUXUXUXUXUXUXUXUXUXUXUXUXUXUX; p b b b c E c u r : UXUXUXUXUXUXUXUXUXUXUXUXUXUXUX",
"UXUXUXUXUXUXUXUXUXUXUXUXUXUX& & = & & & @ . . $ i E m.B.B.C.^.C.O.p % . X % < UXUXUXUXUXUXUXUXUXUXUX",
"UXUXUXUXUXUXUXUXUXUXUXUXUX& < 7 7 2 1 - , 3 3 5 n s.~.(.).BXNXnXp.a # @ 5 b a 2 UXUXUXUXUXUXUXUXUXUX",
"UXUXUXUXUXUXUXUXUXUXUXUX& 1 S .X.X.XG G C 3.3.H j.f.T.^.mXhXjXpX.X8 @ 9 M +.O.a % UXUXUXUXUXUXUXUXUX",
"UXUXUXUXUXUXUXUXUXUXUX& - F =XfXfXuXyX8XuX9XuX:XD.M.m.D.:XtXkXdX{.h : 9 E @.l.m 2 X UXUXUXUXUXUXUXUX",
"UXUXUXUXUXUXUXUXUXUX. , F ;XfXfXfXiXuXuXuXdXsX8X+Xi.p.}.*X4X9X8X}.Z y 0 y Y _ O.n r < UXUXUXUXUXUXUX",
"UXUXUXUXUXUXUXUXUX. 2 F 8XdXuX7X7X;X7X;X7X8X8X7X=XXXXXOX].*X+X|.C.m.) y 9 9 c _ +.D p - # UXUXUXUXUX",
"UXUXUXUXUXUXUXUX& < S 7XfXuX7XoXXX$X$X$X$X$X=X$X$X*X,X2X1X{.Z.W.g.~.M.m 1 % s $.F.+.n : X UXUXUXUXUX",
"UXUXUXUXUXUX& * q _ +XpXsX8X&XXX{.XXXXXXXXXXXXXX$X*X<X4X*X}.@...g.R.zX.X3.J S A.^.m.b - . UXUXUXUXUX",
"UXUXUXUXUX* ; t ' L.MXuX4X,XoXXX{.{.XXXXXXXX{.XX$X#X].3X].}.l.] s.G.:X4X4X1X:XzXR.[ i $ . UXUXUXUXUX",
"UXUXUXUXUX; w Y R.BXNXyX3X1XOXXX{.XXXX$XXXXX#XXX$X#X#X].&X XZ.x.z.|.*X6XtXtXfXmXQ.! q @ . UXUXUXUXUX",
"UXUXUXUXUX: r m R.BXNXyX3X<X*X$X$X$X$X$X%X%X$X%X$X$X#X#X#XXX X}.}.XX1X6XtXtXpXMXG.E q @ . UXUXUXUXUX",
"UXUXUXUXUX: 9 b [ P.mXeX8X8X3X;X;X;X:X:X%X%X%X&X&X&X&X].*X*X*X,X].1X1X2X4X4XeXmXV.) q & . UXUXUXUXUX",
"UXUXUXUXUX% ; w c ) v.U.rXaXuXdXdXpXaXwXwX-X[.3X8X,X,X1X,X<X2X4X4X4X2X].oX+XzXL.V._ r $ . UXUXUXUXUX",
"UXUXUXUXUXUXUX& $ w N s._.NXaXsXuXuXwXwXwX[.8X3X3X,X,X,X,X,X<X4X4X4X2XOX}.A.V.!.R.D e $ . UXUXUXUXUX",
"UXUXUXUXUXUXUXUX. * y #./.xX>X`.`.`.`.'.&X;X%X=X%X#X=X$XoXXX#X&X*X1XoX XZ.M.T.R.C.O.p $ . UXUXUXUXUX",
"UXUXUXUXUXUXUXUX  & f 9.w.G J 6 3 6 h 8.6.6.}.$.z.p.|.|.|.i.i.|.|.}.|.p.x.m.T.!.C.$.p X . UXUXUXUXUX",
"UXUXUXUXUXUXUXUX# 4 9.,.,.x , . = 0 g :.<.,.*.R ( s.x.A.z.j.j.j.j.l.l.l.j.M.C.G.C.D p # . UXUXUXUXUX",
"UXUXUXUXUXUXUX> 7 A ,.<.:.g & & P P 0.q.>.1.I P } / s.n.m.m.[ @.m.@.@.+.j.M.F.K.G.$.p $ . UXUXUXUXUX",
"UXUXUXUXUXUX> V H *X0X<.:.4   P DXKXLXFX>.=.k K } / s.x.M.m.@.@.@.@.#.+.j.M.G.L.K.$.p @ . UXUXUXUXUX",
"UXUXUXUXUX6 6 D eXkX0X7.=.4 X W KXIXIXHXq.;.k U ( ] c.b.l.j.j.j.j.j.l.+.+.z.P.I.L.l.a # . UXUXUXUXUX",
"UXUXUXUXUX> p y.iXjXjX0X8.j h i.JXPXPXHXw.z Z E { m.x.Z.z.x.l.x.x.l.l.+.l.N.K././.z.a % . UXUXUXUXUX",
"UXUXUXUXUX: e F 7XjXjXgX2X'.'.3XfXSXSXxXH.D $.+.l.z.z.Z.z.z.z.z.x.x.x.x.z.V./.)./.l.a : # UXUXUXUXUX",
"UXUXUXUXUX: < 8 G wXhXhXaXyXlX5X5X[.%Xa.v.v.n.b.A.A.A.A.z.Z.Z.z.z.z.b.A.G.L./.I.z.m e 1 % UXUXUXUXUX",
"UXUXUXUXUXUX= < 8 S a.nXVXNXrX>X>Xy.y.u.v.J.J.S.S.S.A.b.A.A.z.A.b.b.S.K.L./.I.x.n e < , UXUXUXUXUXUX",
"UXUXUXUXUXUXUX= # 1 M c./.)./.U.p.u.D k.k.c.V.V.V.n.c.c.n.n.V.b.b.A.F.P.I.L.x.n , # % UXUXUXUXUXUXUX",
"UXUXUXUXUXUXUXUX@ @ > b s.T.E.T.#.%._ $.#.#.N.N.B.d.d.h.d.s.B.M.Y.N.N.Y.A.$.n , X X UXUXUXUXUXUXUXUX",
"UXUXUXUXUXUXUXUXUXUX@ ; u ! X.X.o. .` ! ! ' ` X.o./ ^ ^ ^ / ..X.%.%.%.! E a , # UXUXUXUXUXUXUXUXUXUX",
"UXUXUXUXUXUXUXUXUXUXUX. # t W | | ` ` %.! Q U T T W W W W T T W |  .` ~ r #   UXUXUXUXUXUXUXUXUXUXUX",
"UXUXUXUXUXUXUXUXUXUXUXX . # 0 L W ! %.#.s.Y y t d I 9.0.9.l 0 t Y ] #._ r @   UXUXUXUXUXUXUXUXUXUXUX",
"UXUXUXUXUXUXUXUXUXUXUXUXUX  X w L %.E.^.c.N > o g -.t.r.5.-.g X q { C.N.n ,   UXUXUXUXUXUXUXUXUXUXUX",
"UXUXUXUXUXUXUXUXUXUXUXUXUXUX  % L %.GX(.v.v > + ;.4.vXbXvX5.;.+ > N J.R.Z 2 . UXUXUXUXUXUXUXUXUXUXUX",
"UXUXUXUXUXUXUXUXUXUXUXUXUXUX  % L %.GX(.s.v O + ;.cXZXAXZX7.=.+ > v s.T._ e # UXUXUXUXUXUXUXUXUXUXUX",
"UXUXUXUXUXUXUXUXUXUXUXUXUXUXo , s ! W.E.o.y & + j cXZXAXZXvX2.4 ; y Q ' n e % UXUXUXUXUXUXUXUXUXUXUX",
"UXUXUXUXUXUXUXUXUXUXUXUXUXUX- , 2 ~ %.&.o.K 9 O 7 3.cXbXcXcXA d t y K L i 2 1 UXUXUXUXUXUXUXUXUXUXUX",
"UXUXUXUXUXUXUXUXUXUXUXUXUXUXUX- , 2 b `  .R 0 O X 7 l A A Z B ! ~ u q 1 < 1 UXUXUXUXUXUXUXUXUXUXUXUX",
"UXUXUXUXUXUXUXUXUXUXUXUXUXUXUXUXX X e ! %.! i *     O o - i Q ' ! u 1 X % UXUXUXUXUXUXUXUXUXUXUXUXUX",
"UXUXUXUXUXUXUXUXUXUXUXUXUXUXUXUXUXX 5 ~ %.` u $         . 9 U X. .s < X UXUXUXUXUXUXUXUXUXUXUXUXUXUX",
"UXUXUXUXUXUXUXUXUXUXUXUXUXUXUXUXUXUXUXUXUXUXUXUXUXUXUXUXUXUXUXUXUXUXUXUXUXUXUXUXUXUXUXUXUXUXUXUXUXUX",
"UXUXUXUXUXUXUXUXUXUXUXUXUXUXUXUXUXUXUXUXUXUXUXUXUXUXUXUXUXUXUXUXUXUXUXUXUXUXUXUXUXUXUXUXUXUXUXUXUXUX",
"UXUXUXUXUXUXUXUXUXUXUXUXUXUXUXUXUXUXUXUXUXUXUXUXUXUXUXUXUXUXUXUXUXUXUXUXUXUXUXUXUXUXUXUXUXUXUXUXUXUX",
"UXUXUXUXUXUXUXUXUXUXUXUXUXUXUXUXUXUXUXUXUXUXUXUXUXUXUXUXUXUXUXUXUXUXUXUXUXUXUXUXUXUXUXUXUXUXUXUXUXUX",
"UXUXUXUXUXUXUXUXUXUXUXUXUXUXUXUXUXUXUXUXUXUXUXUXUXUXUXUXUXUXUXUXUXUXUXUXUXUXUXUXUXUXUXUXUXUXUXUXUXUX"
};
