/* XPM */
static char *_88_b9c8c79393b23e589501135fe58163a2f3cca54cb4acf4a7154655c7549090d9[] = {
/* columns rows colors chars-per-pixel */
"50 50 230 2 ",
"   c #02040E",
".  c #0C0A0E",
"X  c #05070C",
"o  c #010314",
"O  c #020D12",
"+  c #0C0E15",
"@  c #010419",
"#  c #040C1A",
"$  c #080F18",
"%  c #031417",
"&  c #0E1216",
"*  c #041519",
"=  c #0B141A",
"-  c #071A19",
";  c #141414",
":  c #141C1C",
">  c #1A1D1B",
",  c #181A17",
"<  c #3C1116",
"1  c #0C261E",
"2  c #1C231C",
"3  c #18231E",
"4  c #25221C",
"5  c #23291D",
"6  c #292C1B",
"7  c #2F221F",
"8  c #32221F",
"9  c #2E321E",
"0  c #38381C",
"q  c #081924",
"w  c #0E2527",
"e  c #152224",
"r  c #1D2A22",
"t  c #1B2928",
"y  c #18372C",
"u  c #1C3432",
"i  c #142F31",
"p  c #232A22",
"a  c #382622",
"s  c #283626",
"d  c #233736",
"f  c #38362E",
"g  c #4D1918",
"h  c #440E13",
"j  c #4F3117",
"k  c #6A281E",
"l  c #462A23",
"z  c #582C24",
"x  c #4C3A34",
"c  c #6C2C22",
"v  c #683227",
"b  c #723428",
"n  c #15432C",
"m  c #2E442D",
"M  c #22452D",
"N  c #254334",
"B  c #27403C",
"V  c #324B31",
"C  c #394F3F",
"Z  c #28563A",
"A  c #3B5B38",
"S  c #395939",
"D  c #3F613B",
"F  c #43421B",
"G  c #544917",
"H  c #5B551C",
"J  c #625B1C",
"K  c #796D1C",
"L  c #7E711B",
"P  c #494C21",
"I  c #595922",
"U  c #465E34",
"Y  c #4E5122",
"T  c #7C5836",
"R  c #41653D",
"E  c #466A3F",
"W  c #50733F",
"Q  c #6C6B23",
"!  c #676422",
"~  c #757223",
"^  c #7D7A25",
"/  c #6E7025",
"(  c #1B4C42",
")  c #1D5A58",
"_  c #2C4B45",
"`  c #2A4C4B",
"'  c #264545",
"]  c #2A5347",
"[  c #37564A",
"{  c #2E5453",
"}  c #235B55",
"|  c #2C5B53",
" . c #2C5C59",
".. c #235757",
"X. c #315553",
"o. c #355B54",
"O. c #345D59",
"+. c #3A5E50",
"@. c #394947",
"#. c #1A6156",
"$. c #38644B",
"%. c #276754",
"&. c #3B6351",
"*. c #3C6A56",
"=. c #36615A",
"-. c #396359",
";. c #3F6B59",
":. c #346957",
">. c #2F7A58",
",. c #3C7D55",
"<. c #357A56",
"1. c #524F4B",
"2. c #755446",
"3. c #456C42",
"4. c #446C4F",
"5. c #4F7A46",
"6. c #4D7C4C",
"7. c #477549",
"8. c #527B45",
"9. c #517E4C",
"0. c #5B7B48",
"q. c #426B52",
"w. c #417F55",
"e. c #50614F",
"r. c #677747",
"t. c #9B3B2C",
"y. c #8E3C2B",
"u. c #BC392B",
"i. c #B12F26",
"p. c #81721A",
"a. c #8F4834",
"s. c #A6402F",
"d. c #B84430",
"f. c #B2703E",
"g. c #D7462D",
"h. c #CC4A32",
"j. c #D44B33",
"k. c #CD4E36",
"l. c #FA4D36",
"z. c #E95438",
"x. c #FE5B3B",
"c. c #FA5739",
"v. c #D3643D",
"b. c #FF603E",
"n. c #A65A44",
"m. c #857948",
"M. c #BD6C43",
"N. c #FF6040",
"B. c #748F3F",
"V. c #7C923B",
"C. c #77913E",
"Z. c #6E8A3E",
"A. c #4F834E",
"S. c #55854C",
"D. c #5A864A",
"F. c #56884C",
"G. c #5B8B4C",
"H. c #5D8446",
"J. c #5E914C",
"K. c #458254",
"L. c #4C8351",
"P. c #478A57",
"I. c #528653",
"U. c #538B52",
"Y. c #5C8E50",
"T. c #508E58",
"R. c #5D9353",
"E. c #59985B",
"W. c #4C914E",
"Q. c #638A46",
"!. c #628C48",
"~. c #6B8D46",
"^. c #6C9046",
"/. c #62944C",
"(. c #6B9A4F",
"). c #779945",
"_. c #619653",
"`. c #649A55",
"'. c #659D58",
"]. c #78A24D",
"[. c #65A25A",
"{. c #69A359",
"}. c #72A554",
"|. c #AD961D",
" X c #BDA61D",
".X c #86862A",
"XX c #9C9D2E",
"oX c #9A9428",
"OX c #879637",
"+X c #8A9635",
"@X c #8C9835",
"#X c #829439",
"$X c #879D3E",
"%X c #939B32",
"&X c #969D33",
"*X c #A49E29",
"=X c #A69924",
"-X c #99A739",
";X c #8DA13B",
":X c #ADA327",
">X c #A6A12A",
",X c #AAA229",
"<X c #AEAA2D",
"1X c #B3A524",
"2X c #BAA621",
"3X c #BDAB23",
"4X c #B4AC2A",
"5X c #B4A827",
"6X c #BCB32B",
"7X c #AAAB31",
"8X c #B1B434",
"9X c #C3AA1E",
"0X c #CCAD19",
"qX c #D9B114",
"wX c #D1AF17",
"eX c #E4B40E",
"rX c #C3B629",
"tX c #C8BC2A",
"yX c #D1BA23",
"uX c #BAC23A",
"iX c #CDC22C",
"pX c #D7CB2C",
"aX c #C2C637",
"sX c #DFD32F",
"dX c #E7D82E",
"fX c #E4DB32",
"gX c #859245",
"hX c #84A344",
"jX c #92AD43",
"kX c None",
/* pixels */
"kXkXkXkXkXkXkXkXkXkXkXkXkXkXkXkXkXkXkXkXkXkXkXkXkXkXkXkXkXkXkXkXkXkXkXkXkXkXkXkXkXkXkXkXkXkXkXkXkXkX",
"kXkXkXkXkXkXkXkXkXkXkXkXkXkXkXkXkXkXkXkXkXkXkXkXkXkXkXkXkXkXkXkXkXkXkXkXkXkXkXkXkXkXkXkXkXkXkXkXkXkX",
"kXkXkXkXkXkXkXkXkXkXkXkXkXkXkXkXkXkXkXkXkXkXkXkXkXkXkXkXkXkXkXkXkXkXkXkXkXkXkXkXkXkXkXkXkXkXkXkXkXkX",
"kXkXkXkXkXkXkXkXkXkXkXkXkXkXkXkXkXkXkXkXkXkXkXkXkXkXkXkXkXkXkXkXkXkXkXkXkXkXkXkXkXkXkXkXkXkXkXkXkXkX",
"kXkXkXkXkXkXkXkXkXkXkXkXkXkXkXkXkXkXkXkXkXkXkXkXkXkXkXkXkXkXkXkXkXkXkXkXkXkXkXkXkXkXkXkXkXkXkXkXkXkX",
"kXkXkXkXkXkXkXkX: = = = # # * kXkXkXkXkXkXkXkXkXkXkXkXkXkXkXkXkXkXkXkXkXkXkXkXkXkXkXkXkXkXkXkXkXkXkX",
"kXkXkXkXkXkXkXkX: : : > 2 2 2 > kXkXkXkXkXkXkXkXkXkXkXkXkXkXkXkXkXkXkXkXkXkXkXkXkXkXkXkXkXkXkXkXkXkX",
"kXkXkXkXkXkXkXkX= 2 0 Y ! ! H 0 ; kXkXkXkXkXkXkXkXkXkXkXkXkXkXkXkXkXkXkXkXkXkXkXkXkXkXkXkXkXkXkXkXkX",
"kXkXkXkXkXkXkXkX# 5 I oXrXrX=XH , o o O & # # # # # # # # # # # * # # # = kXkXkXkXkXkXkXkXkXkXkXkXkX",
"kXkXkXkXkXkXkX@ @ 5 ~ tXdXsX8X/ s q q w 3 5 6 6 5 5 5 5 5 5 5 p 2 5 6 6 2 kXkXkXkXkXkXkXkXkXkXkXkXkX",
"kXkXkXkXkXkX= @ @ > K yXdXuXhX8.S ( ( ] R Q p.L ~ Q Q Q Q Q Q Q Q ~ V.~ Y : @ kXkXkXkXkXkXkXkXkXkXkX",
"kXkXkXkXkX: = @ o 4 K 9X8X).S.K.L.L.K.L.^.XX9X3X1X:X<X:X<X:X:X,X:X XrX3X^ 6 @ @ kXkXkXkXkXkXkXkXkXkX",
"kXkXkXkXkX= : 3 6 G ^ +X).S.w.I.(.].].].hX-X7X6XrXrXrXrX6X6X6X6X6XtXpXiX=X! 9 - kXkXkXkXkXkXkXkXkXkX",
"kXkXkXkXkX= 3 j ^ .XV.G.w.w.L.~.;X7X<X-X$X).(.;X<X6X3X4X4X4X4X4X4X4X6X6X4X=XV.j ; o kXkXkXkXkXkXkXkX",
"kXkXkXkXkX* 2 J 1XiXjXT.,.,.S.V.>X0XwX9X@XI.w.Q.&X1X1X,X>X,X,X*X>X>X>X>X6XiX6X~ 6 # kXkXkXkXkXkXkXkX",
"kXkXkXkXkX# 2 ! rXfXuXjXY.K.I.V.1XqXeX0X+X6.>.D.%X1X1X,X*X*X*X*X>X=XXX>X3XiXrX+XU u q : kXkXkXkXkXkX",
"kXkXkXkXkX# 2 I 5XsXpX4X$XG.S.^.*X0XqX9X@XA.,.G.XX1X1X,X*X*X,X*X>X>X*X>X1X3X4X;X!.$.d : ; kXkXkXkXkX",
"kXkXkXkXkX= : P .X=X X|.V.D.I.^.@X>X>X*X#XQ.G.C.XX:X1X:X,X>X,X>X>X>X>X>X1X2X4XjX}.L.N 3 & kXkXkXkXkX",
"kXkXkXkXkX= : 9 F Y G j G W U.R.~.~.Q.Q.^.C.+XXX*X,X:X*X>X>X>X>X>X>X>X>X1X X2X-X}.K.N 3 ; kXkXkXkXkX",
"kXkXkXkXkX: : : , & . . r R R.R.U.w.,.w.Q.%X1X5X:X,X*X,X>X,X,X,X,X>X>X>X1X X5X-X(.7.M : & kXkXkXkXkX",
"kXkXkXkXkX: : # o @ @ q N $.J./.~.!.D.G.#X,X9X9X X1X:X1X1X:X:X1X1X:X1X1X:X>X;X)._.7.d 3 & kXkXkXkXkX",
"kXkXkXkXkXkXkX+ o = y S 7.L.R.).&XXXXXXX>X X9X9X1X1X1X1X1X1X1X1X1X2X9X X>X#X~.R.R.7.m : & kXkXkXkXkX",
"kXkXkXkXkXkXkXkX+ r R R.E.T.S.V.,X X3X1X:X:X,X,X,X,X,X,X,X:X:X,X,X1X2X1X@XQ.L.T.R.5.m : & kXkXkXkXkX",
"kXkXkXkXkXkXkXkX+ p E [.[.T.D.Z.@XXXXX&X@X+X#X#XOX+XOX+XOXOXOXOXOX@X@X@XB.S.P.T.R.5.m : & kXkXkXkXkX",
"kXkXkXkXkXkXkXkX+ r A R.`.R.S.D.G.Q.Q.Q.Q.G.G.!.G.H.!.H.G.!.H.G.G.Q.Q.G.H.S.S.T.R.8.m : = kXkXkXkXkX",
"kXkXkXkXkXkXkXkX+ r A F.R.Y.S.A.A.L.L.L.A.L.A.L.L.L.L.L.L.L.L.L.L.L.L.L.A.S.G.R.R.5.m > ; kXkXkXkXkX",
"kXkXkXkXkXkXkXkX+ 2 A F._.G.F.I.A.L.L.L.L.A.L.L.L.L.L.L.L.L.I.6.L.L.L.A.A.S.F.R.R.5.m : = kXkXkXkXkX",
"kXkXkXkXkXkXkXkX+ r A G.`.Y.S.S.S.S.S.I.S.S.S.S.S.S.S.S.S.S.S.S.I.S.S.S.S.S.F.R.R.5.m : & kXkXkXkXkX",
"kXkXkXkXkXkXkXkX+ r D R.'.R.S.S.S.S.S.D.S.F.S.S.D.S.F.S.S.F.D.D.G.S.S.S.S.S.U._.[.S.V : & kXkXkXkXkX",
"kXkXkXkXkXkXkXkX+ r E `.{.Y.S.S.S.S.S.S.F.S.S.F.S.F.S.F.F.S.S.S.S.S.S.D.S.S.F.`.{.G.V > = kXkXkXkXkX",
"kXkXkXkXkXkXkXkX& r A D.`._.F.F.F.F.G.F.F.F.G.F.F.F.F.F.F.G.F.F.F.F.F.F.D.S.Y._._.5.m 2 ; kXkXkXkXkX",
"kXkXkXkXkXkXkXkXkX: s S 5.G.`._.J.G.G.G.J.G.G.G.G.G.G.Y.G.G.G.G.G.G.G.G./.`.`.D.3.V r : kXkXkXkXkXkX",
"kXkXkXkXkXkXkXkXkXkX& 3 V 8.'.{.J.F.G.F.G.G.F.G.G.G.G.G.G.G.G.G.G.G.G.G.`.[.R.E s : & kXkXkXkXkXkXkX",
"kXkXkXkXkXkXkXkXkXkX    1 Z 6.F.S.I.S.S.9.S.S.9.S.9.9.S.9.9.9.S.S.9.S.9.U.W.7.M - o kXkXkXkXkXkXkXkX",
"kXkXkXkXkXkXkXkXkXkXkX  % 1 n Z $.q.q.q.q.$.&.&.&.&.&.&.&.&.&.4.q.q.q.&.$.n y 1 X   kXkXkXkXkXkXkXkX",
"kXkXkXkXkXkXkXkXkXkX= & X X % i ` O.-.| X.X.X.X.X.{ { { { X.X.X.X.O.=.O.B w O X % & kXkXkXkXkXkXkXkX",
"kXkXkXkXkXkXkXkXkXkXa l g h < f [ :.:.{ X.O.&.&.$.&.&.+.&.&.&.X.X.{ :.:.C 8 < h g l p kXkXkXkXkXkXkX",
"kXkXkXkXkXkXkXkX* p v s.u.i.t.T 0.w.:.{ +.7.S.S.9.9.9.9.S.D.9.q.X. .<.K.W a.i.u.d.y.l : - kXkXkXkXkX",
"kXkXkXkXkXkXkXkX* 7 y.z.x.l.z.f.^.K.%.| +.9.!./.J.G.G.G././.F.4.o.%.<.W.gXv.c.l.c.h.v > * kXkXkXkXkX",
"kXkXkXkXkXkXkX% * 8 s.c.x.x.c.M.r.<.%.X.+.4.9.I.I.I.T.I.I.S.6.q.o.| %.,.m.z.x.x.N.j.b > * kXkXkXkXkX",
"kXkXkXkXkXkXkXkX* 7 t.z.b.x.z.n.e.%.) | o.+.&.&.-.q.*.*.*.&.+.+.X.| #.%.2.k.c.x.N.k.v > * kXkXkXkXkX",
"kXkXkXkXkXkXkXkX= 4 b d.g.g.u.2.@...} o.o.X.X.{ ` ` ` ` ` { { o.+. .) ..1.a.h.g.j.t.z > * kXkXkXkXkX",
"kXkXkXkXkXkXkXkXkX> a z k k v x X. . .o.+.O.X.' d e e t d ` o.O.X.|  . .` x c k c z p : kXkXkXkXkXkX",
"kXkXkXkXkXkXkXkXkXkX> > ; ; : d [ =.=.o.O.-.o.B e + . ; u ` =.-.o.=.=.-._ t ; ; > > > kXkXkXkXkXkXkX",
"kXkXkXkXkXkXkXkXkXkXkX* O X * u X.-.-.o.-.-.+.B > . X . t _ -.-.=.O.-.&._ w O O * - kXkXkXkXkXkXkXkX",
"kXkXkXkXkXkXkXkXkXkXkXkXkXkXkXkXkXkXkXkXkXkXkXkXkXkXkXkXkXkXkXkXkXkXkXkXkXkXkXkXkXkXkXkXkXkXkXkXkXkX",
"kXkXkXkXkXkXkXkXkXkXkXkXkXkXkXkXkXkXkXkXkXkXkXkXkXkXkXkXkXkXkXkXkXkXkXkXkXkXkXkXkXkXkXkXkXkXkXkXkXkX",
"kXkXkXkXkXkXkXkXkXkXkXkXkXkXkXkXkXkXkXkXkXkXkXkXkXkXkXkXkXkXkXkXkXkXkXkXkXkXkXkXkXkXkXkXkXkXkXkXkXkX",
"kXkXkXkXkXkXkXkXkXkXkXkXkXkXkXkXkXkXkXkXkXkXkXkXkXkXkXkXkXkXkXkXkXkXkXkXkXkXkXkXkXkXkXkXkXkXkXkXkXkX",
"kXkXkXkXkXkXkXkXkXkXkXkXkXkXkXkXkXkXkXkXkXkXkXkXkXkXkXkXkXkXkXkXkXkXkXkXkXkXkXkXkXkXkXkXkXkXkXkXkXkX"
};
