/* XPM */
static char *result[] = {
/* columns rows colors chars-per-pixel */
"50 50 230 2 ",
"   c #6A1100",
".  c #751900",
"X  c #552D0A",
"o  c #7D2100",
"O  c #6A3500",
"+  c #683603",
"@  c #773808",
"#  c #632A00",
"$  c #613A3C",
"%  c #6A4111",
"&  c #6D4819",
"*  c #775318",
"=  c #744A12",
"-  c #6D462E",
";  c #785C27",
":  c #6A4239",
">  c #5F5057",
",  c #7A6451",
"<  c #872C00",
"1  c #893B09",
"2  c #9D3E00",
"3  c #B32502",
"4  c #B23400",
"5  c #B63E00",
"6  c #BA3800",
"7  c #C23D00",
"8  c #864406",
"9  c #944908",
"0  c #8A5406",
"q  c #9D5E00",
"w  c #834718",
"e  c #8B501B",
"r  c #8A5917",
"t  c #925E16",
"y  c #934D11",
"u  c #B84202",
"i  c #A65C0B",
"p  c #9A6507",
"a  c #85631A",
"s  c #92621A",
"d  c #986719",
"f  c #8C6C0B",
"g  c #A86707",
"h  c #B27805",
"j  c #A36916",
"k  c #AB7B1C",
"l  c #A8781A",
"z  c #AD7D0E",
"x  c #935D22",
"c  c #8A592A",
"v  c #A35522",
"b  c #916232",
"n  c #907434",
"m  c #AF782E",
"M  c #CB5400",
"N  c #C65800",
"B  c #D25902",
"V  c #CA4A00",
"C  c #E05C00",
"Z  c #CB610B",
"A  c #C86805",
"S  c #DD6E00",
"D  c #C96B18",
"F  c #C97C16",
"G  c #C37114",
"H  c #D97816",
"J  c #E67908",
"K  c #CE5D20",
"L  c #CD7934",
"P  c #CB6F2E",
"I  c #8C5D40",
"U  c #84694D",
"Y  c #92734E",
"T  c #876B6C",
"R  c #B6851E",
"E  c #90803D",
"W  c #A98727",
"Q  c #B38A30",
"!  c #CE8709",
"~  c #D39607",
"^  c #C78719",
"/  c #D58E19",
"(  c #DA8A19",
")  c #C9951F",
"_  c #D29812",
"`  c #E78703",
"'  c #FE8700",
"]  c #FD9600",
"[  c #E38214",
"{  c #E49917",
"}  c #F2971D",
"|  c #DCA91D",
" . c #E5A81E",
".. c #FCAA13",
"X. c #F7AE1D",
"o. c #FFB51B",
"O. c #F6B71C",
"+. c #F7AA11",
"@. c #D58C2B",
"#. c #C29522",
"$. c #D19329",
"%. c #E79227",
"&. c #CAA726",
"*. c #D8AC24",
"=. c #D7B224",
"-. c #DAA831",
";. c #CFB93B",
":. c #F4AE25",
">. c #F6B725",
",. c #E0A63F",
"<. c #EAB43A",
"1. c #FFB130",
"2. c #E4B62A",
"3. c #FFD91A",
"4. c #FBC912",
"5. c #FEEC1E",
"6. c #DBC32A",
"7. c #F9C826",
"8. c #FFDE23",
"9. c #FEDB27",
"0. c #FCC83C",
"q. c #FCD639",
"w. c #FFE429",
"e. c #FFED30",
"r. c #FEF537",
"t. c #AA904E",
"y. c #A88B54",
"u. c #B7AC58",
"i. c #B4A849",
"p. c #AA8C65",
"a. c #B0936F",
"s. c #A79F73",
"d. c #C69658",
"f. c #C48058",
"g. c #D5A951",
"h. c #D8B555",
"j. c #D1B251",
"k. c #E1AA47",
"l. c #FEB841",
"z. c #E7B857",
"x. c #ECAF5B",
"c. c #D7A667",
"v. c #DBA672",
"b. c #CDAA7A",
"n. c #EFB76A",
"m. c #D4C758",
"M. c #DBC042",
"N. c #F9D54A",
"B. c #E8C754",
"V. c #FEC056",
"C. c #FAD958",
"Z. c #EBD050",
"A. c #FFFF4B",
"S. c #FFFF43",
"D. c #FFFF56",
"F. c #FFFF5B",
"G. c #FDF559",
"H. c #CDC365",
"J. c #DBC669",
"K. c #DFCE79",
"L. c #ECCD66",
"P. c #FDCC61",
"I. c #E8D76C",
"U. c #F3DB65",
"Y. c #FCDB74",
"T. c #E9CD71",
"R. c #FCEA6B",
"E. c #FFFF62",
"W. c #FFFD6D",
"Q. c #FFE672",
"!. c #FAEB7F",
"~. c #FFFF75",
"^. c #FFFF7B",
"/. c #FFF37F",
"(. c #E4E06E",
"). c #9F8B86",
"_. c #B5A599",
"`. c #B2A693",
"'. c #BEB5B6",
"]. c #CDB78F",
"[. c #C9BCAA",
"{. c #C5BBB8",
"}. c #D8C496",
"|. c #D9D68F",
" X c #FBD784",
".X c #F4D68A",
"XX c #FDE68B",
"oX c #FFFF84",
"OX c #FFFE8D",
"+X c #FCF488",
"@X c #EDE090",
"#X c #F5E695",
"$X c #FEFE95",
"%X c #FFFE9C",
"&X c #FFF396",
"*X c #C8C6A4",
"=X c #CFD2B0",
"-X c #D9D2B0",
";X c #EAD8A6",
":X c #F2DDAE",
">X c #F7E7A7",
",X c #FFFEA4",
"<X c #FFFEAC",
"1X c #FFF4AF",
"2X c #F4E4BA",
"3X c #FDFDB5",
"4X c #FFFFBC",
"5X c #FAF5B4",
"6X c #BAB9C0",
"7X c #C3BEC5",
"8X c #DBD5D7",
"9X c #D3C9C4",
"0X c #D6E8D5",
"qX c #F5E7C5",
"wX c #FFFFC2",
"eX c #FDFECD",
"rX c #F9F2C9",
"tX c #FFFFD3",
"yX c #FEFFDC",
"uX c #F5F4D5",
"iX c #EAE0D6",
"pX c #ECEEE8",
"aX c #FBFBE3",
"sX c #FFFFEC",
"dX c #FAF4E8",
"fX c #FEFDF3",
"gX c #FFFFFE",
"hX c #F2F9FF",
"jX c #EEEFEB",
"kX c None",
/* pixels */
"kXkXkXkXkXkXkXkXkXkXkXkXkXkXkXkXkXkXkXkXkXkXkXkXkXkXkXkXkXkXkXkXkXkXkXkXkXkXkXkXkXkXkXkXkXkXkXkXkXkX",
"kXkXkXkXkXkXkXkXkXkXkXkXkXkXkXkXkXkXkXkXkXkXkXkXkXkXkXkXkXkXkXkXkXkXkXkXkXkXkXkXkXkXkXkXkXkXkXkXkXkX",
"kXkXkXkXkXkXkXkXkXkXkXkXkXkXkXkXkXkXkXkXkXkXkXkXkXkXkXkXkXkXkXkXkXkXkXkXkXkXkXkXkXkXkXkXkXkXkXkXkXkX",
"kXkXkXkXkXkXkXkXkXkXkXkXkXkXkXkXkXkXkXkXkXkXkXkXkXkXkXkXkXkXkXkXkXkXkXkXkXkXkXkXkXkXkXkXkXkXkXkXkXkX",
"kXkXkXkXkXkXkXkXkXkXkXkXkXkXkXkXkXkXkXkXkXkXkXkXkXkXkXkXkXkXkXkXkXkXkXkXkXkXkXkXkXkXkXkXkXkXkXkXkXkX",
"kXkXkXkXkXkXkXkXkXkXkXkXkXkXkXkXkXkXkXkXkXkXkXkXkXkXkXkXkXkXkXkXkXkXkXkXkXkXkXkXkXkXkXkXkXkXkXkXkXkX",
"kXkXkXkXkXkXkXkXkXkXkXkXkXkXkXkXkXkXkXkXkXkXkXkXkXkXkXkXkXkXkXkXkXkXkXkXkXkXkXkXkXkXkXkXkXkXkXkXkXkX",
"kXkXkXkXkXkXkXkXkXkXkXkXkXkXkXkXkXkXkXkXkXkXkXkXkXkXkXkXkXkXkXkXkXkXkXkXkXkXkXkXkXkXkXkXkXkXkXkXkXkX",
"kXkXkXkXkXkXkXkXkXkXkXkXkXkXkXkXkXkXkXkXkXkXkXkXkXkXkXkXkXkXkXkXkXkXkXkXkXkXkXkXkXkXkXkXkXkXkXkXkXkX",
"kXkXkXkXkXkXkXkXkXkXkXkXkXkXkXkXkXkXkXkXkXkXkXkXkXkXkXkXkXkXkXkXkXkXkXkXkXkXkXkXkXkXkXkXkXkXkXkXkXkX",
"kXkXkXkXkXkXkXkXkXkXkXkXkXkXkXkXkXkXkXkXkXkXkXkXkXkXkXkXkXkXkXkXkXkXkXkXkXkXkXkXkXkXkXkXkXkXkXkXkXkX",
"kXkXkXkXkXkXkXkXkXkXkXkXkXkXkXkXkXkXkXkXkXn i.u.s._.'._.U kXkXkXkXkXkXkXkXkXkXkXkXkXkXkXkXkXkXkXkXkX",
"kXkXkXkXkXkXkXkXkXkXkXkXkXkXkXkXkXkX; E t.H.I.Z.T.].;X;X].).T - kXkXkXkXkXkXkXkXkXkXkXkXkXkXkXkXkXkX",
"kXkXkXkXkXkXkXkXkXkXkXkXkXkXkXkXkX; m.R.(.I.6.-.-.g.g.L.@XuXpX'.: kXkXkXkXkXkXkXkXkXkXkXkXkXkXkXkXkX",
"kXkXkXkXkXkXkXkXkXkXkXkXkXkXkXkX* 6.r.;.m m f f q x x d Q h.5XsX9X$ kXkXkXkXkXkXkXkXkXkXkXkXkXkXkXkX",
"kXkXkXkXkXkXkXkXkXkXkXkXkXkXkX& =.3.! 9 w E 6.j.].[.{._.y.r z L.aX7X$ kXkXkXkXkXkXkXkXkXkXkXkXkXkXkX",
"kXkXkXkXkXkXkXkXkXkXkXkXkXkX& *.o.A < c u.(.$XtXgXgXgXgX8X`.b g B.aX9X: kXkXkXkXkXkXkXkXkXkXkXkXkXkX",
"kXkXkXkXkXkXkXkXkXkXkXkXkX* 2.O.A . r J.OX$XtXgXgXgXgXgXgXgX8XY g T.fX'.- kXkXkXkXkXkXkXkXkXkXkXkXkX",
"kXkXkXkXkXkXkXkXkXkXkXkX* =.8.! o 1 h.OXoXoXeXgXgXfXfXgXgXgXgX9Xs j ;XhX_.X kXkXkXkXkXkXkXkXkXkXkXkX",
"kXkXkXkXkXkXkXkXkXkXkXkXd 7.>.1   G R.%X^.F.$XsXgXfXfXfXgXgXgXgXb.8 t.sXiXI kXkXkXkXkXkXkXkXkXkXkXkX",
"kXkXkXkXkXkXkXkXkXkXkXkXl :.F 1 < [ Q.,XoXD.E.3XgXgXfXsXgXgXgXfX>Xk a =XaXv.kXkXkXkXkXkXkXkXkXkXkXkX",
"kXkXkXkXkXkXkXkXkXkXkXd ^ ( j j N H Y.%XOXW.D.oXyXgXgXgXgXgXyX<XOX=.p p.pX1X0.kXkXkXkXkXkXkXkXkXkXkX",
"kXkXkXkXkXkXkXkXkXkXkXR { F s ^ J H U.%X$X^.E.F.oXtXgXgXgXyXOXF.G. .A f.jXtXP.kXkXkXkXkXkXkXkXkXkXkX",
"kXkXkXkXkXkXkXkXkXkXkX#.{ F s ^ J B <.OX,XOX~.D.D.^.4XsXyXOXA.D.R.1.} n.fX8Xp.kXkXkXkXkXkXkXkXkXkXkX",
"kXkXkXkXkXkXkXkXkXkXkXR / F s ^ H V H U.<X,X$X^.W.F.~.$X^.S.D.,XqX>XP.R.eX'.> kXkXkXkXkXkXkXkXkXkXkX",
"kXkXkXkXkXkXkXkXkXkXkXR / G r #.o.B 5 $.!.,X,X,X$X^.G.D.A.F.<XfXgXuXH.&.#X*X, kXkXkXkXkXkXkXkXkXkXkX",
"kXkXkXkXkXkXkXkXkXkXkX) { G r =.9.[ 4 u @.B.+X&X$X~.D.F.OXeXgXgXqXx.g * |.>Xc.kXkXkXkXkXkXkXkXkXkXkX",
"kXkXkXkXkXkXkXkXkXkXkXR  ./ t &.9.>.Z 4 u A ,.k.k.N.W.3XfXgXfX;X%.B 9 U 0X4XC.kXkXkXkXkXkXkXkXkXkXkX",
"kXkXkXkXkXkXkXkXkXkXkXa /  .j d =.e.:.A 5 5 6 3 u k.3XgXfXqXc.K B C L 9XhX>X:.kXkXkXkXkXkXkXkXkXkXkX",
"kXkXkXkXkXkXkXkXkXkXkXkXk o.D @ R r.e.{ M 4 3 3 L :XfXqXv.K 5 u ` .. XfXdXd.kXkXkXkXkXkXkXkXkXkXkXkX",
"kXkXkXkXkXkXkXkXkXkXkXkXs >.X.y 8 =.5.4.` B L v.2XfX:XL 6 7 H 2.0.Y.aXgX|.* kXkXkXkXkXkXkXkXkXkXkXkX",
"kXkXkXkXkXkXkXkXkXkXkXkX& ) w.| y 9 ~ 3.C.T.qXaXtXXX} M K x.XX&X>XdXgX>XQ X kXkXkXkXkXkXkXkXkXkXkXkX",
"kXkXkXkXkXkXkXkXkXkXkXkXkX& &.w._ o 9 m.eXfXtX&XN...] :..XeX5X5XdXgX>Xl O kXkXkXkXkXkXkXkXkXkXkXkXkX",
"kXkXkXkXkXkXkXkXkXkXkXkXkXkX% ~ 7.g.a.`.[.}.B...' ..0.$X3X-X].2XyX@Xl # kXkXkXkXkXkXkXkXkXkXkXkXkXkX",
"kXkXkXkXkXkXkXkXkXkXkXkXkXkXkXO <.wXdX].v 8 q J ' 1.XX1X.Xh.z.!.Z.R # kXkXkXkXkXkXkXkXkXkXkXkXkXkXkX",
"kXkXkXkXkXkXkXkXkXkXkXkXkXkXkXkXQ 1X4X1.N e U d.l.Y.XXXXQ.q.9.4.h # kXkXkXkXkXkXkXkXkXkXkXkXkXkXkXkX",
"kXkXkXkXkXkXkXkXkXkXkXkXkXkXkXkXkXl.-.! { K.0XpXaXeX,XR.N. .~ h % kXkXkXkXkXkXkXkXkXkXkXkXkXkXkXkXkX",
"kXkXkXkXkXkXkXkXkXkXkXkXkXkXkXkXkXkX8 O #./.wXwX-X*XH.&.l 0 = % kXkXkXkXkXkXkXkXkXkXkXkXkXkXkXkXkXkX",
"kXkXkXkXkXkXkXkXkXkXkXkXkXkXkXkXkXkXkXkXkX0.C.z.y.U a 0 + kXkXkXkXkXkXkXkXkXkXkXkXkXkXkXkXkXkXkXkXkX",
"kXkXkXkXkXkXkXkXkXkXkXkXkXkXkXkXkXkXkXkXkXkXkXkXkXkXkXkXkXkXkXkXkXkXkXkXkXkXkXkXkXkXkXkXkXkXkXkXkXkX",
"kXkXkXkXkXkXkXkXkXkXkXkXkXkXkXkXkXkXkXkXkXkXkXkXkXkXkXkXkXkXkXkXkXkXkXkXkXkXkXkXkXkXkXkXkXkXkXkXkXkX",
"kXkXkXkXkXkXkXkXkXkXkXkXkXkXkXkXkXkXkXkXkXkXkXkXkXkXkXkXkXkXkXkXkXkXkXkXkXkXkXkXkXkXkXkXkXkXkXkXkXkX",
"kXkXkXkXkXkXkXkXkXkXkXkXkXkXkXkXkXkXkXkXkXkXkXkXkXkXkXkXkXkXkXkXkXkXkXkXkXkXkXkXkXkXkXkXkXkXkXkXkXkX",
"kXkXkXkXkXkXkXkXkXkXkXkXkXkXkXkXkXkXkXkXkXkXkXkXkXkXkXkXkXkXkXkXkXkXkXkXkXkXkXkXkXkXkXkXkXkXkXkXkXkX",
"kXkXkXkXkXkXkXkXkXkXkXkXkXkXkXkXkXkXkXkXkXkXkXkXkXkXkXkXkXkXkXkXkXkXkXkXkXkXkXkXkXkXkXkXkXkXkXkXkXkX",
"kXkXkXkXkXkXkXkXkXkXkXkXkXkXkXkXkXkXkXkXkXkXkXkXkXkXkXkXkXkXkXkXkXkXkXkXkXkXkXkXkXkXkXkXkXkXkXkXkXkX",
"kXkXkXkXkXkXkXkXkXkXkXkXkXkXkXkXkXkXkXkXkXkXkXkXkXkXkXkXkXkXkXkXkXkXkXkXkXkXkXkXkXkXkXkXkXkXkXkXkXkX",
"kXkXkXkXkXkXkXkXkXkXkXkXkXkXkXkXkXkXkXkXkXkXkXkXkXkXkXkXkXkXkXkXkXkXkXkXkXkXkXkXkXkXkXkXkXkXkXkXkXkX",
"kXkXkXkXkXkXkXkXkXkXkXkXkXkXkXkXkXkXkXkXkXkXkXkXkXkXkXkXkXkXkXkXkXkXkXkXkXkXkXkXkXkXkXkXkXkXkXkXkXkX",
"kXkXkXkXkXkXkXkXkXkXkXkXkXkXkXkXkXkXkXkXkXkXkXkXkXkXkXkXkXkXkXkXkXkXkXkXkXkXkXkXkXkXkXkXkXkXkXkXkXkX"
};
