/* XPM */
static char *_741_03d3a421ee5c2ca66847e6162d80a2570eb981bd4ad3e471d6c529ce9424862e[] = {
/* columns rows colors chars-per-pixel */
"50 50 194 2 ",
"   c #000102",
".  c #01030C",
"X  c #050B0C",
"o  c #0A0D0E",
"O  c #030C12",
"+  c #0A0E12",
"@  c #06071A",
"#  c #071010",
"$  c #0B1214",
"%  c #0D1619",
"&  c #121113",
"*  c #11171A",
"=  c #141A1B",
"-  c #1A1E1B",
";  c #1E1E15",
":  c #1C211E",
">  c #0A0C20",
",  c #0E1225",
"<  c #111125",
"1  c #0D1235",
"2  c #171A3A",
"3  c #1A1C3A",
"4  c #1A1A33",
"5  c #1E2021",
"6  c #1D252B",
"7  c #1F2036",
"8  c #232521",
"9  c #272A23",
"0  c #2C2C25",
"q  c #2A2A2C",
"w  c #272D2F",
"e  c #2E3128",
"r  c #343329",
"t  c #3C3C2E",
"y  c #3E3825",
"u  c #272830",
"i  c #24253D",
"p  c #29283C",
"a  c #2A3336",
"s  c #31383B",
"d  c #403A3C",
"f  c #49422E",
"g  c #454232",
"h  c #4A4634",
"j  c #504D36",
"k  c #584E39",
"l  c #5B543D",
"z  c #575239",
"x  c #2B2840",
"c  c #393545",
"v  c #3E3A45",
"b  c #433A42",
"n  c #3D454C",
"m  c #4B4349",
"M  c #474348",
"N  c #534B4D",
"B  c #5A4E4F",
"V  c #5C5746",
"C  c #424B50",
"Z  c #4D575E",
"A  c #535551",
"S  c #625D41",
"D  c #695A40",
"F  c #635654",
"G  c #6B6445",
"H  c #766C4B",
"J  c #7C6D4B",
"K  c #74624A",
"L  c #7C704D",
"P  c #766350",
"I  c #7D7156",
"U  c #555E63",
"Y  c #626A71",
"T  c #6D7376",
"R  c #87744D",
"E  c #987E4F",
"W  c #8A6F54",
"Q  c #897259",
"!  c #8B7D64",
"~  c #9A8754",
"^  c #998C5F",
"/  c #A08F5D",
"(  c #BB985A",
")  c #8E8063",
"_  c #938463",
"`  c #9E8A6B",
"'  c #988363",
"]  c #919376",
"[  c #A58762",
"{  c #AA9B64",
"}  c #AA9967",
"|  c #B19765",
" . c #A19B73",
".. c #B19E72",
"X. c #AFA16A",
"o. c #BBA66B",
"O. c #B4A76B",
"+. c #A7A77F",
"@. c #BBAC71",
"#. c #B8A275",
"$. c #CEA75B",
"%. c #F3BC5E",
"&. c #C59F66",
"*. c #C8AC6E",
"=. c #D3AC6C",
"-. c #DAB36E",
";. c #C8B977",
":. c #DFB776",
">. c #D7B970",
",. c #DFBE77",
"<. c #D6BA77",
"1. c #E2B969",
"2. c #F3BD60",
"3. c #E1BA77",
"4. c #D5C37C",
"5. c #F7C466",
"6. c #F6C56C",
"7. c #FECC6E",
"8. c #F5C86F",
"9. c #FDCD75",
"0. c #F6CE7A",
"q. c #FCD372",
"w. c #FFDD74",
"e. c #FCD37C",
"r. c #FED97B",
"t. c #F6D277",
"y. c #FFE97D",
"u. c #737981",
"i. c #838688",
"p. c #9D9683",
"a. c #8A9297",
"s. c #999A94",
"d. c #B2A782",
"f. c #B9B487",
"g. c #A9A89E",
"h. c #9FA8AF",
"j. c #9AA1A9",
"k. c #A6ABAF",
"l. c #B4BDA1",
"z. c #A4ABB5",
"x. c #DAC480",
"c. c #D9C686",
"v. c #D2C29C",
"b. c #E8C982",
"n. c #F3CF8B",
"m. c #E4D38A",
"M. c #EFD988",
"N. c #FFDB83",
"B. c #FFD58C",
"V. c #FCDD8A",
"C. c #F6D788",
"Z. c #FFE483",
"A. c #FFEB82",
"S. c #FDE38C",
"D. c #FEED8C",
"F. c #FFF187",
"G. c #FFF28C",
"H. c #FFF98F",
"J. c #EDE194",
"K. c #FEE591",
"L. c #FFEC94",
"P. c #F5E697",
"I. c #FEF295",
"U. c #FDF59B",
"Y. c #FFFC9C",
"T. c #FFFC95",
"R. c #CAC0AA",
"E. c #C7D0B8",
"W. c #D1D1B5",
"Q. c #E6D0A5",
"!. c #F2DDAA",
"~. c #FFEAA0",
"^. c #FFF3A4",
"/. c #FFFDA3",
"(. c #FFFEAA",
"). c #FFFFB2",
"_. c #CCCFCC",
"`. c #CAD1D6",
"'. c #DDDBD8",
"]. c #DDE4DD",
"[. c #E5E7C8",
"{. c #FFF3C2",
"}. c #FFFBCF",
"|. c #FFF8D6",
" X c #DFDFE0",
".X c #EDEDEA",
"XX c #EEF4EB",
"oX c #FFFCE7",
"OX c #FFFEEB",
"+X c #EEF1F4",
"@X c #FFFFF4",
"#X c #FFFFFE",
"$X c #F0F4F6",
"%X c None",
/* pixels */
"%X%X%X%X%X%X%X%X%X%X%X%X%X%X%X%X%X%X%X%X%X%X%X%X%X%X%X%X%X%X%X%X%X%X%X%X%X%X%X%X%X%X%X%X%X%X%X%X%X%X",
"%X%X%X%X%X%X%X%X%X%X%X%X%X%X%X%X%X%X%X%X%X%X%X%X%X%X%X%X%X%X%X%X%X%X%X%X%X%X%X%X%X%X%X%X%X%X%X%X%X%X",
"%X%X%X%X%X%X%X%X%X%X%X%X%X%X%X%X%X%X%X%X%X%X%X%X%X%X%X%X%X%X%X%X%X%X%X%X%X%X%X%X%X%X%X%X%X%X%X%X%X%X",
"%X%X%X%X%X%X%X%X%X%X%X%X%X%X%X%X%X%X%X%X%X%X%X%X%X%X%X%X%X%X%X%X%X%X%X%X%X%X%X%X%X%X%X%X%X%X%X%X%X%X",
"%X%X%X%X%X%X%X%X%X%X%X%X%X%X%X%X%X%X%X%X%X%X%X%X%X%X%X%X%X%X%X%X%X%X%X%X%X%X%X%X%X%X%X%X%X%X%X%X%X%X",
"%X%X%X%X%X%X%X%X%X%X%X%X%X%X%X%X%X%X%X%X%X%X%X%X%X%X%X%X%X%X%X%X%X%X%X%X%X%X%X%X%X%X%X%X%X%X%X%X%X%X",
"%X%X%X%X%X%X%X%X%X%X%X%X%X%X%X%X%X%X%X%X%X%X%X%X%X%X%X%X%X%X%X%X%X%X%X%X%X%X%X%X%X%X%X%X%X%X%X%X%X%X",
"%X%X%X%X%X%X%X%X%X%X%X%X%X%X%X%X%X%X%X%X%X%X%X%X%X%X%X%X%X%X%X%X%X%X%X%X%X%X%X%X%X%X%X%X%X%X%X%X%X%X",
"%X%X%X%X%X%X%X%X%X%X%X%X%X%X%X%X%X%X%X%X%X%X%X%X%X%X%X%X%X%X%X%X%X%X%X%X%X%X%X%X%X%X%X%X%X%X%X%X%X%X",
"%X%X%X%X%X%X%X%X%X%X%X%X%X%X%X%X%X%X%X%X%X%X%X%X%X%X%X%X%X%X%X%X%X%X%X%X%X%X%X%X%X%X%X%X%X%X%X%X%X%X",
"%X%X%X%X%X%X%X%X%X%X%X%X%X%X%X%X%X%X%X%X%X%X%X%X%X%X%X%X%X%X%X%X%X%X%X%X%X%X%X%X%X%X%X%X%X%X%X%X%X%X",
"%X%X%X%X%X%X%X%X%X%X%X%X%X%X%X%X%X%X%X%X%X%X%X%X%X%X%X%X%X%X%X%X%X%X%X%X%X%X%X%X%X%X%X%X%X%X%X%X%X%X",
"%X%X%X%X%X%X%X%X%X%X%X%X%X%X%X%X%X%X%X%X%X%X%X%X: * O . . . . . $ * $ %X%X%X%X%X%X%X%X%X%X%X%X%X%X%X",
"%X%X%X%X%X%X%X%X%X%X%X%X%X%X%X%X%X%X%X%X%X%X%X%Xh z g r 0 0 r t g g 9 $ %X%X%X%X%X%X%X%X%X%X%X%X%X%X",
"%X%X%X%X%X%X%X%X%X%X%X%X%X%X%X%X%X%X%X%X%X  # j { 4.;.{ { { } O.@.X.L 0 . %X%X%X%X%X%X%X%X%X%X%X%X%X",
"%X%X%X%X%X%X%X%X%X%X%X%X%X%X%X%X%X%X%X%X. . : H 4.Y.(./.U.U.U./.(.(.M.J = . %X%X%X%X%X%X%X%X%X%X%X%X",
"%X%X%X%X%X%X%X%X%X%X%X%X%X%X%X%X%X%X. @ > , u V ..P.(.).).(.(.(.(.).(.m.H e %X%X%X%X%X%X%X%X%X%X%X%X",
"%X%X%X%X%X%X%X%X%X%X%X%X%X%X%X%X%XO 5 d m c i p B ` m.^./.Y.Y.Y.U.Y.(.(.M.H = . %X%X%X%X%X%X%X%X%X%X",
"%X%X%X%X%X%X%X%X%X%X%X%X%X%X%X%XX t ^ ..` F p 1 3 M ! <.S.F.F.A.y.D.T./.T.~ 5 . %X%X%X%X%X%X%X%X%X%X",
"%X%X%X%X%X%X%X%X%X%X%X%X%X%X%XX g O.P.U.m.` m 4 1 2 v Q =.t.w.t.8.t.A.H.Z.~ 8 . %X%X%X%X%X%X%X%X%X%X",
"%X%X%X%X%X%X%X%X%X%X%X%X%X%X$ g o.I./.(.U.x.) m i 1 2 b W *.=.-.*.>.0.S.9.E 9 . %X%X%X%X%X%X%X%X%X%X",
"%X%X%X%X%X%X%X%X%X%X%X%X%XO t o.P.Y././.Y.L.c.' N i 3 p b K )  .d.f.c.n.:.R 9 O %X%X%X%X%X%X%X%X%X%X",
"%X%X%X%X%X%X%X%X%X%X%X%X  . S S././.I.I.Y.Y.I.4._ B c i 4 q V ] l.E.W.v.} k : %X%X%X%X%X%X%X%X%X%X%X",
"%X%X%X%X%X%X%X%X%X%X%X%X  . R L./.Y.K.K.I.Y.Y.L.,.[ F i @ + l d.[.XX'.g.V ; %X%X%X%X%X%X%X%X%X%X%X%X",
"%X%X%X%X%X%X%X%X%X%X%X%Xo r { S.Y.U.K.K.L.L.T.G.Z.-.K <   & Q Q.OX#X`.Y , . %X%X%X%X%X%X%X%X%X%X%X%X",
"%X%X%X%X%X%X%X%X%X%X%X= g / b.S.I.L.K.K.S.S.Z.A.y.1.D .   8 p.|.@X'.u.6 X %X%X%X%X%X%X%X%X%X%X%X%X%X",
"%X%X%X%X%X%X%X%X%X%X= t ^ J.^.U.L.K.L.K.V.r.r.w.q.$.f     q s..X Xi.6 X %X%X%X%X%X%X%X%X%X%X%X%X%X%X",
"%X%X%X%X%X%X%X%X%X%X5 l ;.).).Y.L.K.S.B.e.9.9.q.7.( d     - T k.i.s X %X%X%X%X%X%X%X%X%X%X%X%X%X%X%X",
"%X%X%X%X%X%X%X%X%X%X= j @./.)./.U.D.V.e.6.5.9.N.B.#.g     o a C s = %X%X%X%X%X%X%X%X%X%X%X%X%X%X%X%X",
"%X%X%X%X%X%X%X%X%X%X+ 8 H 4./././.L.r.7.2.%.9.L.{.R.A     . # o # %X%X%X%X%X%X%X%X%X%X%X%X%X%X%X%X%X",
"%X%X%X%X%X%X%X%X%X%X%X%X= G 4.Y.Y.D.r.7.5.6.B.}.@X_.U X   X # %X%X%X%X%X%X%X%X%X%X%X%X%X%X%X%X%X%X%X",
"%X%X%X%X%X%X%X%X%X%X%X%X. & l 4.L.D.r.r.N.P.{.@X$Xh.C $   # * %X%X%X%X%X%X%X%X%X%X%X%X%X%X%X%X%X%X%X",
"%X%X%X%X%X%X%X%X%X%X%X%X%X%X$ S *.C.N.V.^.|.@X+Xj.Z 6 % # %X%X%X%X%X%X%X%X%X%X%X%X%X%X%X%X%X%X%X%X%X",
"%X%X%X%X%X%X%X%X%X%X%X%X%X%X%X+ V | :.b.!.oX$Xz.n $ X % %X%X%X%X%X%X%X%X%X%X%X%X%X%X%X%X%X%X%X%X%X%X",
"%X%X%X%X%X%X%X%X%X%X%X%X%X%X%X. * h K J ! s.a.Z =     %X%X%X%X%X%X%X%X%X%X%X%X%X%X%X%X%X%X%X%X%X%X%X",
"%X%X%X%X%X%X%X%X%X%X%X%X%X%X%X%X%X% = - 5 w a 6 %X%X%X%X%X%X%X%X%X%X%X%X%X%X%X%X%X%X%X%X%X%X%X%X%X%X",
"%X%X%X%X%X%X%X%X%X%X%X%X%X%X%X%X%X. .     . X # %X%X%X%X%X%X%X%X%X%X%X%X%X%X%X%X%X%X%X%X%X%X%X%X%X%X",
"%X%X%X%X%X%X%X%X%X%X%X%X%X%X%X%X%X%X%X%X%X%X%X%X%X%X%X%X%X%X%X%X%X%X%X%X%X%X%X%X%X%X%X%X%X%X%X%X%X%X",
"%X%X%X%X%X%X%X%X%X%X%X%X%X%X%X%X%X%X%X%X%X%X%X%X%X%X%X%X%X%X%X%X%X%X%X%X%X%X%X%X%X%X%X%X%X%X%X%X%X%X",
"%X%X%X%X%X%X%X%X%X%X%X%X%X%X%X%X%X%X%X%X%X%X%X%X%X%X%X%X%X%X%X%X%X%X%X%X%X%X%X%X%X%X%X%X%X%X%X%X%X%X",
"%X%X%X%X%X%X%X%X%X%X%X%X%X%X%X%X%X%X%X%X%X%X%X%X%X%X%X%X%X%X%X%X%X%X%X%X%X%X%X%X%X%X%X%X%X%X%X%X%X%X",
"%X%X%X%X%X%X%X%X%X%X%X%X%X%X%X%X%X%X%X%X%X%X%X%X%X%X%X%X%X%X%X%X%X%X%X%X%X%X%X%X%X%X%X%X%X%X%X%X%X%X",
"%X%X%X%X%X%X%X%X%X%X%X%X%X%X%X%X%X%X%X%X%X%X%X%X%X%X%X%X%X%X%X%X%X%X%X%X%X%X%X%X%X%X%X%X%X%X%X%X%X%X",
"%X%X%X%X%X%X%X%X%X%X%X%X%X%X%X%X%X%X%X%X%X%X%X%X%X%X%X%X%X%X%X%X%X%X%X%X%X%X%X%X%X%X%X%X%X%X%X%X%X%X",
"%X%X%X%X%X%X%X%X%X%X%X%X%X%X%X%X%X%X%X%X%X%X%X%X%X%X%X%X%X%X%X%X%X%X%X%X%X%X%X%X%X%X%X%X%X%X%X%X%X%X",
"%X%X%X%X%X%X%X%X%X%X%X%X%X%X%X%X%X%X%X%X%X%X%X%X%X%X%X%X%X%X%X%X%X%X%X%X%X%X%X%X%X%X%X%X%X%X%X%X%X%X",
"%X%X%X%X%X%X%X%X%X%X%X%X%X%X%X%X%X%X%X%X%X%X%X%X%X%X%X%X%X%X%X%X%X%X%X%X%X%X%X%X%X%X%X%X%X%X%X%X%X%X",
"%X%X%X%X%X%X%X%X%X%X%X%X%X%X%X%X%X%X%X%X%X%X%X%X%X%X%X%X%X%X%X%X%X%X%X%X%X%X%X%X%X%X%X%X%X%X%X%X%X%X",
"%X%X%X%X%X%X%X%X%X%X%X%X%X%X%X%X%X%X%X%X%X%X%X%X%X%X%X%X%X%X%X%X%X%X%X%X%X%X%X%X%X%X%X%X%X%X%X%X%X%X",
"%X%X%X%X%X%X%X%X%X%X%X%X%X%X%X%X%X%X%X%X%X%X%X%X%X%X%X%X%X%X%X%X%X%X%X%X%X%X%X%X%X%X%X%X%X%X%X%X%X%X"
};
