/* XPM */
static char *result[] = {
/* columns rows colors chars-per-pixel */
"50 50 227 2 ",
"   c #010101",
".  c #0C0300",
"X  c #0F0800",
"o  c #140101",
"O  c #1B0301",
"+  c #140B00",
"@  c #1B0B05",
"#  c #1C0E09",
"$  c #14000C",
"%  c #05160A",
"&  c #1C1305",
"*  c #1D140C",
"=  c #1A180C",
"-  c #050517",
";  c #181A12",
":  c #120E12",
">  c #230203",
",  c #290B09",
"<  c #21130C",
"1  c #2B140E",
"2  c #221A0D",
"3  c #2C190C",
"4  c #251D13",
"5  c #2B1C13",
"6  c #271712",
"7  c #34150C",
"8  c #182418",
"9  c #022117",
"0  c #252215",
"q  c #2A2316",
"w  c #252419",
"e  c #2A2519",
"r  c #252A1C",
"t  c #2B2A1C",
"y  c #332519",
"u  c #27321D",
"i  c #3F270E",
"p  c #031522",
"a  c #000B21",
"s  c #092A2A",
"d  c #152A24",
"f  c #1D3826",
"g  c #0B302C",
"h  c #2A2D22",
"j  c #233222",
"k  c #263B26",
"l  c #363727",
"z  c #393A34",
"x  c #30352A",
"c  c #57160C",
"v  c #4C170F",
"b  c #6D1308",
"n  c #503015",
"m  c #44392C",
"M  c #553A2B",
"N  c #733728",
"B  c #77261A",
"V  c #1D452D",
"C  c #1C4C32",
"Z  c #1B5135",
"A  c #145B3C",
"S  c #165637",
"D  c #0F4D29",
"F  c #27452B",
"G  c #36472D",
"H  c #234B32",
"J  c #295937",
"K  c #375836",
"L  c #364630",
"P  c #16633D",
"I  c #12713D",
"U  c #28683A",
"Y  c #63450B",
"T  c #77570A",
"R  c #6A5310",
"E  c #454537",
"W  c #43573D",
"Q  c #5A4032",
"!  c #764839",
"~  c #41603F",
"^  c #126442",
"/  c #126B46",
"(  c #1B6A44",
")  c #196742",
"_  c #147249",
"`  c #1C7948",
"'  c #0F6643",
"]  c #266942",
"[  c #227247",
"{  c #227549",
"}  c #237C4C",
"|  c #297A47",
" . c #347847",
".. c #3D6941",
"X. c #474A45",
"o. c #565445",
"O. c #555C59",
"+. c #4B524F",
"@. c #625646",
"#. c #496A49",
"$. c #577152",
"%. c #6F624D",
"&. c #676357",
"*. c #786C56",
"=. c #5C6666",
"-. c #677577",
";. c #656A68",
":. c #8E1409",
">. c #91291B",
",. c #BD3729",
"<. c #D01D0F",
"1. c #916B07",
"2. c #B84332",
"3. c #874B3B",
"4. c #83755E",
"5. c #897B64",
"6. c #A56250",
"7. c #F05844",
"8. c #FD6D57",
"9. c #FF624C",
"0. c #F27963",
"q. c #1E8755",
"w. c #2B8A45",
"e. c #2A864A",
"r. c #328E4B",
"t. c #36874D",
"y. c #34914D",
"u. c #288652",
"i. c #358E52",
"p. c #308650",
"a. c #2B9357",
"s. c #379351",
"d. c #3B9454",
"f. c #3E9956",
"g. c #369B58",
"h. c #2E9049",
"j. c #3CA25B",
"k. c #3F9D67",
"l. c #38A862",
"z. c #5A865C",
"x. c #419A57",
"c. c #429C59",
"v. c #4A9B5E",
"b. c #4E8757",
"n. c #45A25C",
"m. c #46A85E",
"M. c #559363",
"N. c #668765",
"B. c #649C6C",
"V. c #749373",
"C. c #4CA463",
"Z. c #47AB63",
"A. c #55AC6B",
"S. c #4CB669",
"D. c #5BB673",
"F. c #52B66E",
"G. c #66B67A",
"H. c #72AE7C",
"J. c #50C673",
"K. c #63C87F",
"L. c #B18B08",
"P. c #E7BD03",
"I. c #FED600",
"U. c #FFFD00",
"Y. c #FFE200",
"T. c #938974",
"R. c #A8957B",
"E. c #6F7E81",
"W. c #717F82",
"Q. c #77868A",
"!. c #7B8C92",
"~. c #7E9097",
"^. c #6BBD82",
"/. c #78BC87",
"(. c #7BAC80",
"). c #68C885",
"_. c #77C689",
"`. c #7BD894",
"'. c #69D789",
"]. c #85969C",
"[. c #87999F",
"{. c #8D918D",
"}. c #B29E83",
"|. c #8FB591",
" X c #8C9DA3",
".X c #8FA1A7",
"XX c #93A5AB",
"oX c #94A5AA",
"OX c #98ADB6",
"+X c #A4B5BB",
"@X c #AAB9BE",
"#X c #A9AFAE",
"$X c #84CC93",
"%X c #89D69A",
"&X c #8AC191",
"*X c #94DCA2",
"=X c #9ADDA8",
"-X c #8ED9A0",
";X c #A6CBA9",
":X c #98E4A9",
">X c #8CF1A8",
",X c #92F5B0",
"<X c #A2EBAF",
"1X c #A5EAB3",
"2X c #A6F9BA",
"3X c #B0F4BD",
"4X c #AABDC4",
"5X c #B6C4C8",
"6X c #BECDD2",
"7X c #ADC1C9",
"8X c #AAFFC4",
"9X c #B8FCC7",
"0X c #C7D6DA",
"qX c #C6CDCD",
"wX c #C3FFCD",
"eX c #C7FFD2",
"rX c #CCFFD8",
"tX c #CDDCE1",
"yX c #D0DDE1",
"uX c #D3E2E6",
"iX c #D7E6EA",
"pX c #D5FBEA",
"aX c #E7F7FA",
"sX c #FFFFFF",
"dX c #F3FAFC",
"fX c #E5ECEF",
"gX c None",
/* pixels */
"gXgXgXgXgXgXgXgXgXgXgXgX# O O @ @ * gXgXgXgXgXgXgXgXgXgXgXgXgXgXgXgXgXgXgXgXgXgXgXgXgXgXgXgXgXgXgXgX",
"gXgXgXgXgXgXgXgX0 + o < l K W K W l < 1 5 gXgXgXgXgXgXgXgXgXgXgXgXgXgXgXgXgXgXgXgXgXgXgXgXgXgXgXgXgX",
"gXgXgXgXgXgXgX@ 2 E $.H.:X2X9X9X2X1XH.K 8 5 5 gXgXgXgXgXgXgXgXgXgXgXgXgXgXgXgXgXgXgXgXgXgXgXgXgXgXgX",
"gXgXgXgXgXgXo l H.>X2X9XrXeXwXwX*X^.v./ A V e 1 gXgXgXgXgXgXgXgXgXgXgXgXgXgXgXgXgXgXgXgXgXgXgXgXgXgX",
"gXgXgXgX2 o #.:X2X3XeXeXwX=X%X^.u.A P { ) ^ A j 5 e gXgXgXgXgXgXgXgXgXgXgXgXgXgXgXgXgXgXgXgXgXgXgXgX",
"gXgXgX2 o z.8X9XeXwX1X<X_.n.x.` P ` [ { { ( ^ ^ j 7 gXgXgXgXgXgXgXgXgXgXgXgXgXgXgXgXgXgXgXgXgXgXgXgX",
"gXgXgXo N.8XeXwX*X$X%XA.w.I e.t.i.d.i.i.d.x.| ) P j 5 gXgXgXgXgXgXgXgXgXgXgXgXgXgXgXgXgXgXgXgXgXgXgX",
"gXgX+ X.rXeX9X%X$X&Xv.w.i.i.x.n.f.g.n.x.x.m.d.{ ( S q 5 gXgXgXgXgXgXgXgXgXgXgXgXgXgXgXgXgXgXgXgXgXgX",
"gX2 ; =XrXwX1X$X=XC.w.x.c.c.f.d.C.G.d.c.c.c.i.{ { ^ f 5 gXgXgXgXgXgXgXgXgXgXgXgXgXgXgXgXgXgXgXgXgXgX",
"gXo N.rXwXwX1X%X^.x.t.x.x.x.h.w.x.C.d.d.d.n.c.| { ( A t q gXgXgXgXgXgXgXgXgXgXgXgXgXgXgXgXgXgXgXgXgX",
"gX0 $XrXwX9X%XG.D.r.A.c.y.c.$X_.A.s.c.p.p.d.c.p.{ [ ^ f 5 gXgXgXgXgXgXgXgXgXgXgXgXgXgXgXgXgXgXgXgXgX",
"# x <XeXwX:Xn.y.$X_.D.d.d.f.G._._.d.x.d.c.p.d.i.{ ( A Z 5 gXgXgXgXgXgXgXgXgXgXgXgXgXgXgXgXgXgXgXgXgX",
"# l 1XrX9XG.w.y.$X$Xy.d.x.f.r.y.t.c.x.f.c.c.n.d.} ( P Z e gXgXgXgXgXgXgXgXgXgXgXgXgXgXgXgXgXgXgXgXgX",
"& k 3XeX=XA.w.x.x.C.*Xn.d.x.c.f.n.s.i.c.f.f.n.d.[ A ^ P e 5 gXgXgXgXgXgXgXgXgXgXgXgXgXgXgXgXgXgXgXgX",
"# G 9XwX%X/.d.d.s.d.v.d.f.f.x.f.f.d.d.n.c.c.n.i.) ' Z d e e gXgXgXgXgXgXgXgXgXgXgXgXgXgXgXgXgXgXgXgX",
"< t :XpX1X$Xx.d.s.D.).F.n.n.n.n.m.m.f.d.Z.l.} ( C g - 3 y e gXgXgXgXgXgXgXgXgXgXgXgXgXgXgXgXgXgXgXgX",
"w * 8 |.aX%Xr.d.s.b.|./.i.a.a.u.u.[ Z ^ U J d - - 6 L.L.- e gXgXgXgXgXgXgXgXgXgXgXgXgXgXgXgXgXgXgXgX",
"4 l 4   |.pXA.r.m.0 > 8 p s g s p - 5 H r > n 1.L.I.U.R - e gXgXgXgXgXgXgXgXgXgXgXgXgXgXgXgXgXgXgXgX",
"gXt *X#.  N.2Xd.j.K o n 1.Y i i T T , k ` $ n I.U.I.Y - t e gXgXgXgXgXgXgXgXgXgXgXgXgXgXgXgXgXgXgXgX",
"gXO B.9XW   (.).h.Z.j 7 L.I.I.Y.I.T $ ) q.| - $ n 1 - V k 5 gXgXgXgXgXgXgXgXgXgXgXgXgXgXgXgXgXgXgXgX",
"gX, F >X2Xq 5 _.g.j.s.f $ Y 1.1.1   ] a.g.J.D.H p g J _ j 5 gXgXgXgXgXgXgXgXgXgXgXgXgXgXgXgXgXgXgXgX",
"gX4 4 ^.8XH.o B.S.f.u.} F p - - z M.^.v.t.F B.).` } q.) j 5 gXgXgXgXgXgXgXgXgXgXgXgXgXgXgXgXgXgXgXgX",
"gXgXO W 2X$XO #.K.D.d.e.` I t.G.`.'.F 4 u > & c.S.n.` S t 5 gXgXgXgXgXgXgXgXgXgXgXgXgXgXgXgXgXgXgXgX",
"gXgX2 = `.*X@ K K.c._.A.G.`.-XG.S.J.J > G G F n.j.u.) A t 4 gXgXgXgXgXgXgXgXgXgXgXgXgXgXgXgXgXgXgXgX",
"gXgXgX# #.:X< #.).w.G.%XG._.x.D./.W K U a.K J } 8 k _ Z 5 e gXgXgXgXgXgXgXgXgXgXgXgXgXgXgXgXgXgXgXgX",
"gXgXgX* 4 z.q $.F.w.y._.n.` J.%Xy O , H H , 1 w 1 5 h r q gXgXgXgXgXgXgXgXgXgXgXgXgXgXgXgXgXgXgXgXgX",
"gXgXgXgX4 4 @ N.>Xn.t.w.r.A.`.E O F k 1 , F V 1 f Z r 5 e gXgXgXgXgXgXgXgXgXgXgXgXgXgXgXgXgXgXgXgXgX",
"gXgXgXgXgX4 < u G.,X_.C.m.'.K O C / / C V A ^ ) _ / j 5 gXgXgXgXgXgXgXgXgXgXgXgXgXgXgXgXgXgXgXgXgXgX",
"gXgXgXgXgXgXt 1 + K &X`.F...> k / A ` a.q.` ` } V t 5 e gXgXgXgXgXgXgXgXgXgXgX. . & +   gXgXgXgXgXgX",
"gXgXgXgXgXgXgXw 5 @ * k w > h { P ( ] J F F j q 1 4 gXgXgXgXgXgXgXgX. . gXgX= ;.@XqXqX{.l   . gXgXgX",
"gXgXgXgXgXgXgXgXgXe 5 O O 5 h j h h 6 , 4 y t j t 4 gXgXgXgXgXgX  l &.&.l 4 !.aXsXsXsXsXdX#XE w * gX",
"gXgXgXgXgXgXgXgXgXgX@ $.M.; 5 7 * L  .t.j.S.Z.q.Z q e gXgXgXgX+ {.sXsXsX4XQ.4XuXyXfXyX0XaXsXaX+XE & ",
"gXgXgXgXgXgXgXgXgXgX+ |.2XD ; B c 8 [ l. .J v.g./ 8   + + X   V.sXdXtX0XuX0X X5XiXuX6X6X0XiXyX4XO.+ ",
"gXgXgXgXgXgXgXgXgXgX* ;X,XA % ! ,., : f o > t ] % q #XqXqX{.+.0XsX0XtXyXiXaXXX].+X4X X XOX4X.X=.t gX",
"gXgXgXgXgXgXgXgXgXgX+ ;X8XI ; q 8 B v = %.T.q . o.fXsXsXsXdX4X+XuXtX6X4X4X4X].E. X]. X.X X!.E.h gXgX",
"gXgXgXgXgXgXgXgXgXe # o.G.P ; y ! 0.7.= R.}.& h dXsX0X6X0XiX6X X4X+X X].~. X].-.]..XXXXXQ.Q.z @ gXgX",
"gXgXgXgXgXgXgXgXgXq t # o 1 4 5 8.0.! * 4.}.2 L iXyX6XtXtXyXOX-. X X X X XXX!.-.E. X XQ.!.=.2 gXgXgX",
"gXgXgXgXgXgXgXgXgXe ; M 2.:.c 8 n >.7   @.R.l 8 5XaXiX6X XXX XE.{. XXX.XXXXXE.E.!.~.!.!.=.5 gXgXgXgX",
"gXgXgXgXgXgXgXgXgXe ; m 8.<.:.4 9 1 n q l T.! X Q.fX4X X X XXX!.;.W.XXXX XQ.!.-.X.+.+.E 4 gXgXgXgXgX",
"gXgXgXgXgXgXgXgXgXq t e 6.7.b 9 8 % o.R.& %.5.2 l XX X X XXXXXQ.E.Q.~.!.Q.!.E.h + @ & & gXgXgXgXgXgX",
"gXgXgXgXgXgXgXgXgXgXe % M 8.>.b b 7 h 4.6 m T.E + Q.4X X X XQ.!.O.l =.-.-.O.4 & gXgXgXgXgXgXgXgXgXgX",
"gXgXgXgXgXgXgXgXgXgXe w ; 3.8.9.<.b ; o.m l T.! + X.OX].~.!.!.=.2 @ 2 h 0 & gXgXgXgXgXgXgXgXgXgXgXgX",
"gXgXgXgXgXgXgXgXgXgXgXt ; 8 ! 3.n ; t h h ; @.5.l * X.+.=.+.E 2 gXgXgXgXgXgXgXgXgXgXgXgXgXgXgXgXgXgX",
"gXgXgXgXgXgXgXgXgXgXgXe y 2 % 9 w n ; N 2.: z 5.@.l + & = & & gXgXgXgXgXgXgXgXgXgXgXgXgXgXgXgXgXgXgX",
"gXgXgXgXgXgXgXgXgXgXgXgXe e , 6 c B 8 N :.@ @ E %.Q w gXgXgXgXgXgXgXgXgXgXgXgXgXgXgXgXgXgXgXgXgXgXgX",
"gXgXgXgXgXgXgXgXgXgXgXgXe &Xz.u w ; q = 8 G k 6 y 5 w gXgXgXgXgXgXgXgXgXgXgXgXgXgXgXgXgXgXgXgXgXgXgX",
"gXgXgXgXgXgXgXgXgXgXgX# E >Xl.u.` f 6 o V.,Xj.P f q gXgXgXgXgXgXgXgXgXgXgXgXgXgXgXgXgXgXgXgXgXgXgXgX",
"gXgXgXgXgXgXgXgXgXgXgX4 y ] ` q._ r gX@ $.`.` / V e gXgXgXgXgXgXgXgXgXgXgXgXgXgXgXgXgXgXgXgXgXgXgXgX",
"gXgXgXgXgXgXgXgXgXgXgXgX4 * k C j q gXgX4 l k r 5 e gXgXgXgXgXgXgXgXgXgXgXgXgXgXgXgXgXgXgXgXgXgXgXgX",
"gXgXgXgXgXgXgXgXgXgXgXgXgXq 1 1 5 e gXgX0 < 1 4 gXgXgXgXgXgXgXgXgXgXgXgXgXgXgXgXgXgXgXgXgXgXgXgXgXgX"
};
