/* XPM */
static char *result[] = {
/* columns rows colors chars-per-pixel */
"50 50 226 2 ",
"   c #000001",
".  c #0D0202",
"X  c #0D0B09",
"o  c #140202",
"O  c #1D0403",
"+  c #150F0A",
"@  c #1D0C09",
"#  c #150607",
"$  c #1D120B",
"%  c #16100A",
"&  c #210503",
"*  c #240C04",
"=  c #230E0C",
"-  c #260A07",
";  c #22140D",
":  c #2B150B",
">  c #2D180D",
",  c #2C1105",
"<  c #331B0E",
"1  c #3A1D04",
"2  c #2B1411",
"3  c #2F1D12",
"4  c #341D11",
"5  c #381E10",
"6  c #332014",
"7  c #3B2313",
"8  c #3B2719",
"9  c #45290F",
"0  c #422515",
"q  c #452915",
"w  c #4B2C16",
"e  c #442B19",
"r  c #4A2C1A",
"t  c #482719",
"y  c #522F1B",
"u  c #4C311C",
"i  c #46301A",
"p  c #543219",
"a  c #5B361D",
"s  c #5B3A1E",
"d  c #593717",
"f  c #623B1E",
"g  c #68381D",
"h  c #743519",
"j  c #4D3822",
"k  c #543821",
"l  c #5A3A21",
"z  c #583B25",
"x  c #482F22",
"c  c #663B23",
"v  c #7B3D24",
"b  c #56441E",
"n  c #79481F",
"m  c #5B4428",
"M  c #5D4F35",
"N  c #654324",
"B  c #6C4223",
"V  c #6B4A25",
"C  c #634E2E",
"Z  c #734322",
"A  c #714A27",
"S  c #754B28",
"D  c #794C29",
"F  c #7B4525",
"G  c #6D572D",
"H  c #78572A",
"J  c #6F593A",
"K  c #6B563B",
"L  c #715A3A",
"P  c #715E42",
"I  c #6F5D47",
"U  c #7C6A49",
"Y  c #7C7353",
"T  c #756A4C",
"R  c #92491D",
"E  c #864C27",
"W  c #944C23",
"Q  c #87552C",
"!  c #92562A",
"~  c #8E5F31",
"^  c #9B5D33",
"/  c #A25A2A",
"(  c #A95E2B",
")  c #A35526",
"_  c #B05B26",
"`  c #85652C",
"'  c #886736",
"]  c #936A33",
"[  c #986633",
"{  c #867437",
"}  c #996B32",
"|  c #AA602D",
" . c #B5652F",
".. c #BB662D",
"X. c #BE692F",
"o. c #A36234",
"O. c #B86934",
"+. c #AA7838",
"@. c #B37F3D",
"#. c #B6763B",
"$. c #C5692D",
"%. c #CB6E2F",
"&. c #C2672B",
"*. c #C26C31",
"=. c #CA6E30",
"-. c #CB7233",
";. c #C0783E",
":. c #D17332",
">. c #D97632",
",. c #DD7A35",
"<. c #D97D3C",
"1. c #D47B3B",
"2. c #E27B35",
"3. c #E37F3C",
"4. c #847148",
"5. c #8A7B59",
"6. c #917D55",
"7. c #C87C40",
"8. c #958A34",
"9. c #AB8636",
"0. c #B8873D",
"q. c #B6973B",
"w. c #AF8A2D",
"e. c #C38636",
"r. c #EF8237",
"t. c #9C8449",
"y. c #958659",
"u. c #94904C",
"i. c #BA8840",
"p. c #A69247",
"a. c #AA9D55",
"s. c #B19A47",
"d. c #988C6A",
"f. c #A4956B",
"g. c #BAAB7A",
"h. c #B2A268",
"j. c #CB8C44",
"k. c #C68844",
"l. c #D58343",
"z. c #CB9648",
"x. c #DB9947",
"c. c #EC8B43",
"v. c #E78D48",
"b. c #EA8F49",
"n. c #E48743",
"m. c #F48F43",
"M. c #EC924A",
"N. c #E7984A",
"B. c #F2954C",
"V. c #FA964B",
"C. c #F49B4E",
"Z. c #FC9A4D",
"A. c #FB9D50",
"S. c #CBA949",
"D. c #D6B648",
"F. c #DEA94C",
"G. c #EAA54E",
"H. c #EAAA4E",
"J. c #E4A54D",
"K. c #F6A84C",
"L. c #EAB94A",
"P. c #ECAE50",
"I. c #FFA453",
"U. c #F4AD51",
"Y. c #FDAB54",
"T. c #F4A651",
"R. c #F4B152",
"E. c #FDB355",
"W. c #FFBA56",
"Q. c #FFBD59",
"!. c #F9B958",
"~. c #C2B17B",
"^. c #C1AE78",
"/. c #D8C049",
"(. c #EBC446",
"). c #ECC54A",
"_. c #EBCA4A",
"`. c #F6CD4B",
"'. c #FCD64E",
"]. c #FDC454",
"[. c #FFC259",
"{. c #FFCD5A",
"}. c #FACC53",
"|. c #FFDA53",
" X c #F6D759",
".X c #E5C850",
"XX c #FFE354",
"oX c #FCE75A",
"OX c #FFF45A",
"+X c #D8CA6B",
"@X c #C5C461",
"#X c #E9D866",
"$X c #FFD461",
"%X c #F5DB62",
"&X c #F8DE68",
"*X c #FFCF62",
"=X c #F7E163",
"-X c #FBE465",
";X c #F8E46D",
":X c #FCEA68",
">X c #FFF66B",
",X c #FAE974",
"<X c #FFFD73",
"1X c #FFFE7C",
"2X c #FFF372",
"3X c #C4B584",
"4X c #DBCF92",
"5X c #D6D18F",
"6X c #E4DA99",
"7X c #EADB83",
"8X c #FCE886",
"9X c #FFFD8B",
"0X c #FFFC86",
"qX c #FFFD93",
"wX c #FFFF9D",
"eX c #FBE898",
"rX c #F8EBA6",
"tX c #FFF6AD",
"yX c #FFFEAC",
"uX c #FFFFA4",
"iX c #FFFDB4",
"pX c #FFFFBB",
"aX c #FFFFC6",
"sX c #FFFFCB",
"dX c #FFFFD2",
"fX c None",
/* pixels */
"fXfXfXfXfXfXfXfXfXfXfXfXfXfXfXfXfXfXfXfXfXfXfXfXfXe fXfXfXfXfXfXfXfXfXfXfXfXfXfXfXfXfXfXfXfXfXfXfXfX",
"fXfXfXfXfXfXfXfXfXfXfXfXfXfXfXfXfXfXfXfXfXfXfXfX7 8 fXfXfXfXfXfXfXfXfXfXfXfXfXfXfXfXfXfXfXfXfXfXfXfX",
"fXfXfXfXfXfXfXfXfXfXfXfXfXfXfXfXfXfXfXfXfXfXfXfXr x 0 fXfXfXfXfXfXfXfXfXfXfXfXfXfXfXfXfXfXfXfXfXfXfX",
"fXfXfXfXfXfXfXfXfXfXfXfXfXfXfXfXfXfXfXfXfXfXfX7 y.U k fXfXfXfXfXfXfXfXfXfXfXfXfXfXfXfXfXfXfXfXfXfXfX",
"fXfXfXfXfXfXfXfXfXfXfXfXfXfXfXfXfXfXfXfXfXfXfX4.4X6.6.fXfXfXfXfXfXfXfXfXfXfXfXfXfXfXfXfXfXfXfXfXfXfX",
"fXfXfXfXfXfXfXfXfXfXfXfXfXfXfXfXfXfXfXfXfXfX, 6X4X6.~.* fXfXfXfXfXfXfXfXfXfXfXfXfXfXfXfXfXfXfXfXfXfX",
"fXfXfXfXfXfXfXfXfXfXfXfXfXfXfXfXfXfXfXfXfXfX4.dX~.U rXj fXfXfXfXfXfXfXfXfXfXfXfXfXfXfXfXfXfXfXfXfXfX",
"fXfXfXfXfXfXfXfXfXfXfXfXfXfXfXfXfXfXfXfXfX7 6XsX^.J sXy.fXfXfXfXfXfXfXfXfXfXfXfXfXfXfXfXfXfXfXfXfXfX",
"fXfXfXfXfXfXfXfXfXfXfXfXfXfXfXfXfXfXfXfXfX5.aXiX^.L aX~., fXfXfXfXfXfXfXfXfXfXfXfXfXfXfXfXfXfXfXfXfX",
"fXfXfXfXfXfXfXfXfXfXfXfXfXfXfXfXfXfXfXfXx rXpXiX^.J iXiXM fXfXfXfXfXfXfXfXfXfXfXfXfXfXfXfXfXfXfXfXfX",
"fXfXfXfXfXfXfXfXfXfXfXfXfXfXfXfXfXfXfXfXy.aXeXyX~.J tXaXy.fXfXfXfXfXfXfXfXfXfXfXfXfXfXfXfXfXfXfXfXfX",
"fXfXfXfXfXfXfXfXfXfXfXfXfXfXfXfXfXfXfXq #X0X;XuX3XJ tXiX7X9 fXfXfXfXfXfXfXfXfXfXfXfXfXfXfXfXfXfXfXfX",
"fXfXfXfXfXfXfXfXfXfXfXfXfXfXfXfXfXfXfXt.0XoXoXuX3XL tXrXqX{ fXfXfXfXfXfXfXfXfXfXfXfXfXfXfXfXfXfXfXfX",
"fXfXfXfXfXfXfXfXfXfXfXfXfXfXfXfXfXfXi 2X2X;X%XqX3XI iXrXqX#X0 fXfXfXfXfXfXfXfXfXfXfXfXfXfXfXfXfXfXfX",
"fXfXfXfXfXfXfXfXfXfXfXfXfXfXfXfXfXO p.<X%X;X=XwXg.z tXtX,X<Xp.& fXfXfXfXfXfXfXfXfXfXfXfXfXfXfXfXfXfX",
"fXfXfXfXfXfXfXfXfXfXfXfXfXfXfXfXfXj ;X`. X,X-XiXI = rXtX,X2X<XV fXfXfXfXfXfXfXfXfXfXfXfXfXfXfXfXfXfX",
"fXfXfXfXfXfXfXfXfXfXfXfXfXfXfXfX= s.oX(.%X;X9X6X4 & g.pX-X%X<XD.> fXfXfXfXfXfXfXfXfXfXfXfXfXfXfXfXfX",
"fXfXfXfXfXfXfXfXfXfXfXfXfXfXfXfXm |.`.(. X,X0X{ O & U pX,X X}.oX] fXfXfXfXfXfXfXfXfXfXfXfXfXfXfXfXfX",
"fXfXfXfXfXfXfXfXfXfXfXfXfXfXfX= q.oX(.(.=X1XD.< 4 < q #X1X;X_.'.U.q fXfXfXfXfXfXfXfXfXfXfXfXfXfXfXfX",
"fXfXfXfXfXfXfXfXfXfXfXfXfXfXfXN XX`.).(. X|.Z 2 7 6 - { 0X%X)._.{.[ fXfXfXfXfXfXfXfXfXfXfXfXfXfXfXfX",
"fXfXfXfXfXfXfXfXfXfXfXfXfXfX2 S.OX`.(._.|.0.s N ; # S N @X<X(._.].C.e fXfXfXfXfXfXfXfXfXfXfXfXfXfXfX",
"fXfXfXfXfXfXfXfXfXfXfXfXfXfX] &XV q.XX'.U.V H e : @ m ! G 1X X(._.{.#.2 fXfXfXfXfXfXfXfXfXfXfXfXfXfX",
"fXfXfXfXfXfXfXfXfXfXfXfXfXu [.` = ` oX{.v Q } 3 ; ; @ 0.Q { >X(._.R.E.Q fXfXfXfXfXfXfXfXfXfXfXfXfXfX",
"fXfXfXfXfXfXfXfXfXfXfXfX4 j.[ H /.b }.j.N @.L C o * 6 H W.p 0.}.)..XE.T.y fXfXfXfXfXfXfXfXfXfXfXfXfX",
"fXfXfXfXfXfXfXfXfXfXfXfX[ U.z oX{ ` {.y i.} Y e o o M K x.x.7 N.[.).L.E.N.8 fXfXfXfXfXfXfXfXfXfXfXfX",
"fXfXfXfXfXfXfXfXfXfXfXx E.U.` 9.s {.] H e.T f.. $ o m I ~ -X' s E.T.P.H.Q.l.4 fXfXfXfXfXfXfXfXfXfXfX",
"fXfXfXfXfXfXfXfXfXfX; x.[.Q.H # J.F.w [.D f.y.o * $ : 5.' K.[.N D Q.G.G.H.E.l.e fXfXfXfXfXfXfXfXfXfX",
"fXfXfXfXfXfXfXfXfX. #.[.G.E.@.+.{.i 0.K.P 5X9 - > : . h.Y / [.U.0 +.[.G.G.G.Y.-.r X fXfXfXfXfXfXfXfX",
"fXfXfXfXfX$ ; fX  ^ Y.P.G.J.R.$XA V $XW y.+XO > < : o a.a.h I.Q.j.0 N.!.G.P.G.Z.>.S X fXk 6 fXfXfXfX",
"fXfXfXfXfXr u   v V.Y.H.G.J.[.i.w T.I.c +X9.o > < < o { 0Xz 1.C.[.Q c E.P.P.G.M.V.>.! 3 u 3 fXfXfXfX",
"fXfXfXfXfXX e Q 3.C.P.G.G.E.!.x O.Q.*.M ;Xd @ < < > O b iXY R I.C.Y.t ^ E.N.G.M.B.n.>.! 3 fXfXfXfXfX",
"fXfXfXfXfXfX7 =.n.T.P.G.H.[.A c I.I.E u.).= = 5 5 > = 1 8X4Xd B.b.Y.7.u M.V.M.M.M.1.%.*.4 fX  fXfXfX",
"fXfXfXfXfXfX7 ..1.M.C.H.Q.#.r C.A.n.z 2X+.# < < 5 < : - S.pXm | A.v.I.D D Y.v.M.B.-.$. .4 fX  fXfXfX",
"fXfXfXfXfXfX7 ..-.M.b.T.N.0 #.I.Y.v u.-Xg ; > 5 5 5 ; - w.9Xt.c I.b.C.M.e 7.Z.b.M.-.$. .3 fX  fXfXfX",
"fXfXfXfXfXfX7  .<.C.M.I.Z S Y.Z.7.z :XN.> > 5 5 t 5 : # 8.OX!.a 7.Z.b.A.E a Y.B.M.1.$. .3 fX  fXfXfX",
"fXfXfXfXfXfX7 ..-.M.I.#.k C.c.I.B 8.:Xo.# < q 7 w 0 : # H '.}.~ c Y.b.C.c.w ! Z.I.7.&. .3 fX  fXfXfX",
"fXfXfXfXfXfX7 ..-.C.m.e o.,.m.#.m XXY.p * 0 7 0 w 0 7 * q L.].v.y 7.A.b.I.O.< X.M.-.%. .4 fX  fXfXfX",
"fXfXfXfXfXfX7 X.=.m.n c =.*.A.c 9.{.j.> 7 p 5 7 q 7 0 5 @ q.].W.E D I.b.B.m.g a >...%. .3 fX  fXfXfX",
"fXfXfXfXfXfX7 *.:. .x O.=.V.E N Q.Q.] @ w d q q w 0 7 5 # ' Q.U.v.y l.I.v.7.:.r E ,.%. .3 fX  fXfXfX",
"fXfXfXfXfXfX7 X.2.a N >.*.-.y j.W.E.z : p p p p d p q t 2 e G.R.Q.[ c b.7.=.>.) 8  .,. .3 fX  fXfXfX",
"fXfXfXfXfXfX7 :.X.e | %.:.h G {.W.j.< q p p p p p p p d q = @.[.[.k.7 _ -.X...>.F p ,.X.3 fXfXfXfXfX",
"fXfXfXfXfXfX7 2.g Z >...%.( p z.*XA @ p p p p p p y p p w ; k [.N.r W =.....X.*.>.s B =.e 3 . fXfXfX",
"fXfXfXfXfX% s E B ,.>.-.=.3.) N k.e w p p p p p p p p p p q 4 +.D ! r.:.=.:.:.=.,.,.n s p l X fXfXfX",
"fXfXfXfXfXu l u / X.( | | | -.F 8 p f l d a a a a d a a a f p 8 B *.| | | ( | | (  . .p u $ fXfXfXfX",
"fXfXfXfXfXfX; ; $ + + + + + + ; $ ; ; ; ; ; $ ; ; ; $ ; ; ; ; $ ; % + + % + % + % + % 6 $ fXfXfXfXfX",
"fXfXfXfXfXfXfXfXfXfXfXfXfXfXfXfXfXfXfXfXfXfXfXfXfXfXfXfXfXfXfXfXfXfXfXfXfXfXfXfXfXfXfXfXfXfXfXfXfXfX",
"fXfXfXfXfXfXfXfXfXfXfXfXfXfXfXfXfXfXfXfXfXfXfXfXfXfXfXfXfXfXfXfXfXfXfXfXfXfXfXfXfXfXfXfXfXfXfXfXfXfX",
"fXfXfXfXfXfXfXfXfXfXfXfXfXfXfXfXfXfXfXfXfXfXfXfXfXfXfXfXfXfXfXfXfXfXfXfXfXfXfXfXfXfXfXfXfXfXfXfXfXfX",
"fXfXfXfXfXfXfXfXfXfXfXfXfXfXfXfXfXfXfXfXfXfXfXfXfXfXfXfXfXfXfXfXfXfXfXfXfXfXfXfXfXfXfXfXfXfXfXfXfXfX",
"fXfXfXfXfXfXfXfXfXfXfXfXfXfXfXfXfXfXfXfXfXfXfXfXfXfXfXfXfXfXfXfXfXfXfXfXfXfXfXfXfXfXfXfXfXfXfXfXfXfX"
};
