/* XPM */
static char *_2259_dc67bc8bb528b82210032f664314b155d720d36c06306f8104f1f6638977e6fa[] = {
/* columns rows colors chars-per-pixel */
"50 50 221 2 ",
"   c #091417",
".  c #0B1719",
"X  c #0E1919",
"o  c #021215",
"O  c #151C1C",
"+  c #191B1B",
"@  c #29151D",
"#  c #1B201D",
"$  c #2D261E",
"%  c #21201D",
"&  c #3B291D",
"*  c #161D21",
"=  c #281C20",
"-  c #1A2323",
";  c #1D2929",
":  c #1B2C37",
">  c #1E3539",
",  c #2F2B23",
"<  c #272522",
"1  c #312A24",
"2  c #372523",
"3  c #283D3B",
"4  c #233538",
"5  c #323326",
"6  c #42281B",
"7  c #403327",
"8  c #4B3629",
"9  c #4C3128",
"0  c #693D33",
"q  c #653A32",
"w  c #653D2B",
"e  c #5C4438",
"r  c #7E5D38",
"t  c #6E4F35",
"y  c #283941",
"u  c #2A4344",
"i  c #264246",
"p  c #3C525D",
"a  c #3E6160",
"s  c #5F5E4B",
"d  c #796C55",
"f  c #69634F",
"g  c #4C5B74",
"h  c #4B5774",
"j  c #515D76",
"k  c #525B74",
"l  c #4B576E",
"z  c #4C697B",
"x  c #54667A",
"c  c #587A7B",
"v  c #4F7C7D",
"b  c #627F7A",
"n  c #65614D",
"m  c #8C3C1E",
"M  c #9B2B3C",
"N  c #87313C",
"B  c #A22B3D",
"V  c #DF273B",
"C  c #DC0C22",
"Z  c #895537",
"A  c #92543F",
"S  c #905B32",
"D  c #8F4D2F",
"F  c #A04928",
"G  c #AA4D2A",
"H  c #AA5333",
"J  c #976937",
"K  c #C75A34",
"L  c #D45D32",
"P  c #E95E35",
"I  c #CB6136",
"U  c #C16439",
"Y  c #D3623B",
"T  c #EA653C",
"R  c #F56A36",
"E  c #F56B3A",
"W  c #FD713C",
"Q  c #EC723C",
"!  c #B83243",
"~  c #843B42",
"^  c #DF3149",
"/  c #D53D4A",
"(  c #DF3147",
")  c #DF2E43",
"_  c #E62A41",
"`  c #E5354B",
"'  c #F7374F",
"]  c #E83C51",
"[  c #965340",
"{  c #9A5541",
"}  c #9C5942",
"|  c #8C6A4A",
" . c #946D4C",
".. c #966B48",
"X. c #9C724E",
"o. c #92714A",
"O. c #917650",
"+. c #A96747",
"@. c #B26E47",
"#. c #B27D54",
"$. c #A6744E",
"%. c #D5404D",
"&. c #E24759",
"*. c #D47145",
"=. c #EC7741",
"-. c #E57A4B",
";. c #F47B42",
":. c #E35667",
">. c #E4576A",
",. c #E46273",
"<. c #E56B7C",
"1. c #B68656",
"2. c #AE885D",
"3. c #8E8667",
"4. c #B58C64",
"5. c #B89268",
"6. c #B79169",
"7. c #B1A27D",
"8. c #C8844D",
"9. c #D8874D",
"0. c #CA8D54",
"q. c #C68A53",
"w. c #D58A51",
"e. c #CE9156",
"r. c #D59354",
"t. c #DA9554",
"y. c #DE9A55",
"u. c #DC9C59",
"i. c #E48A4D",
"p. c #F78348",
"a. c #F9954C",
"s. c #F48757",
"d. c #E39453",
"f. c #EA9657",
"g. c #E29C55",
"h. c #E49D5A",
"j. c #E89F59",
"k. c #EB9B57",
"l. c #FA9753",
"z. c #E68F51",
"x. c #ECA35A",
"c. c #EBA158",
"v. c #F0A25A",
"b. c #FCAB5C",
"n. c #FCA658",
"m. c #FFB25D",
"M. c #FFA54F",
"N. c #EA9478",
"B. c #CEA874",
"V. c #EBA164",
"C. c #FBAB64",
"Z. c #FFB461",
"A. c #FEBC6D",
"S. c #FEB767",
"D. c #EAAB7A",
"F. c #EBA876",
"G. c #F9BA74",
"H. c #F9BB7A",
"J. c #EEB371",
"K. c #D89E63",
"L. c #FDC37B",
"P. c #FBC37A",
"I. c #4F7A82",
"U. c #507A83",
"Y. c #587984",
"T. c #5E6E81",
"R. c #637983",
"E. c #E77886",
"W. c #E66F81",
"Q. c #4F8389",
"!. c #538689",
"~. c #558A8B",
"^. c #5C898B",
"/. c #5B9191",
"(. c #6A8A84",
"). c #6B868A",
"_. c #6C8A8B",
"`. c #648889",
"'. c #65918E",
"]. c #6E918B",
"[. c #6C9692",
"{. c #6B9995",
"}. c #769892",
"|. c #799C95",
" X c #7A9E98",
".X c #749F99",
"XX c #708B90",
"oX c #7DA39B",
"OX c #7BA196",
"+X c #E88492",
"@X c #E98C99",
"#X c #EC9F80",
"$X c #D0B98A",
"%X c #F5B783",
"&X c #EB95A2",
"*X c #ECA6B1",
"=X c #DCC395",
"-X c #F4C384",
";X c #FFCB83",
":X c #F3C68A",
">X c #FECD8B",
",X c #F6C98B",
"<X c #FFD288",
"1X c #E6C997",
"2X c #F1CB93",
"3X c #EDD09E",
"4X c #F4D297",
"5X c #F8D59C",
"6X c #ECD4A4",
"7X c #ECD8A8",
"8X c #F6DAA6",
"9X c #FEE3AA",
"0X c #EDBAC4",
"qX c #EEC4CD",
"wX c #F0CFD8",
"eX c #F1DCE4",
"rX c #F2E3EB",
"tX c #F5FFFF",
"yX c #F4F1F6",
"uX c #F2EBF2",
"iX c None",
/* pixels */
"iX- - - iXiXiXiXiXiXiXiXiXiXiXiXiXiXiXiXiXiXiXiXiXiXiXiXiXiXiXiXiXiXiXiXiXiXiXiXiXiXiXiXiXiX- - - iX",
"- b ].(.4 + - O O O # - - O * O O - - O O O * - - O O O - O # * O O - O # * O O - O # * + 4 (.].b - ",
"- ].oX Xl c (.(.(.(.(.(.(.(.(.(.(.(.(.(.(.(.(.(.(.(.(.(.(.(.(.(.(.(.(.).(.(.(.(.(.(.(.(.c l  XoX].- ",
"- (. X}.j _.oX|. X X|.|.|. X|.|.|. X|.|. X X X X|. X|.|.|. X X|. X|.|. X|. X|. X|.OX|.oX).x }. X(.< ",
"# v /.x l j x k k k j j g x j x j j x j j x j j x j j j g j j x j j x x x j j j g j g j k g ~.'.v - ",
"- `.}.g x U.R.).`.).)._.).).)._.T.j _._.).).).).).).).).)._.).)._._.).Y.Y._._.).).).).(.).R.x {.`.- ",
"- (. Xk U.~.{. X|..Xa 4 3 3 3 3 4 : 3 3 3 3 3 3 y 3 3 3 3 3 3 3 3 3 3 4 3 3 4 p {.|.|.|.OX).g |.(.- ",
"- (.}.x U.~.[.}.}.a w G F F F F F F F F F F F F F F F F F F F F F F F F F F G w a  X}.}.|.).j |.(.- ",
"- ].|.j I.~.[.}.oXu m W R R R R E E R E R R R E E E E E R R R R T E E E R R W m i OX}.}.|.).j |.(.- ",
"- (.|.j h x !.'.R.: S C.D.F.F.D.V.l.F.F.F.%XG.n.n.l.H.%XD.D.D.D.D.f.V.D.F.F.G.| y '.'.^.'.Y.j |.(.- ",
"- (. Xx x R.`.'.).4 O.8X7X6X7X2XH.2X7X9X1Xs s t t t s n 6X<XP.P.P.S.S.4X7X7X9X3.> {._.'.'.^.j |.(.- ",
"- (.|.g ^.[.[.'.{.3 o.L.-X6X2XG.-X3X8X=Xf d d r d r d r s x.G.H.H.P.-XH.,X:XL.o.u oX|.}.}.).j |.].- ",
"- (.|.j I.!.!.!./.> o.L.,X2XH.-X6X5X$Xd o.5X<X;X;X;X>X;XJ r $X8X7X2XH.G.2X2XL. .u OX}.}.|.).j |.(.- ",
"- _.|.j U.~.~.^./.> o.5X7XH.S.6X3X8X2.5 ;XG.S.2XS.2XZ.H.<X; 7.9X-XZ.C.2X2XH.<X .u oX|.}. X_.j |.(.- ",
"- ].|.g z z z c I.:  .>X2XH.-X6X4XV.Z 0 #XP.A.2XA.4XG.H.#X0 d $XA.M.:X2XA.G.L.o.: ).'.'.[.Y.j |._.- ",
"- (.|.x x x x x T.: 3.8XS.H.6X2XL.+.@ ' &.N.s.N.s.N.s.N.] ' @ 6.>Xm.J.H.:X7X8XO.: Y.~.~.~.Y.j |.].# ",
"- (.|.j _.OX|.}.oXu 3.<XM.H.6X-Xm.5.e ! ] ` ` ) ^ ( ` _ ' M w B.7XG.b.2X2X,XL.J u OX'.[./.).j |.(.- ",
"- ).|.j ).}.}.}.OXy | C.l.-X3XA.A.9XB.e M B ' ] ] ' ] B M e u.4X3XG.-X3XA.l.l.D u OX}.[.'.).j |.(.- ",
"- (.|.g _.OX|.|.oXi D Q a.P.P.b.P.7X2X8.& 9 M B M M M 9 & 9.b.:X6XG.P.H.m.a.;.D u oXOX}. X_.j |._.- ",
"- ].|.j b _.).).[.y S m.m.n.a.a.b.3X%XQ R L 6 & & & 6 L R Q b.2X3XC.a.a.n.m.Z.S y XX).(.).R.j |.(.- ",
"- (.OXx h g g g j : D n.Z.s.-.-.i.S.<Xb.s.s.p.p.p.p.s.s.p.Z.5X5XS.p.-.-.s.Z.l.D : z g g g h j  X].- ",
"- (.|.k U.~.!.!./.i Z , 1 1 5 1 1 $ $ , , 1 $ $ 1 5 $ 1 , , 1 1 $ 1 5 5 $ 1 1 Z i ~.!.!.!.U.j |.(.- ",
"- (.|.j U.~.!.!.!.T.y + L K I K I L I I I I I I I I I I I I I I K I I K I I % y T.~.Q.~.~.U.j .X(.- ",
"- ).|.j U.~.!.!.!.z h < =.T T P T P T T T T P T T T P P P T T T P P T =.T E < h I.I.!.!.~.U.j |.].- ",
"- (.|.x U.~.~.!.!.!.~.% ! ` &.,.<.,.) ( / <.<.^ ` %.<.<.,.<.&.) ,.W.&.^ / ! % !.!.!.!.~.~.U.x |.(.- ",
"- ].|.l U.!.Q.!.Q.!.!.4 = _ @XtXqXuXE.] *XeXrX*X` &.0XwXtXwX&.E.uXwXqX&.` % i !.Q.Q.!.Q.!.v g OX].- ",
"- v !.> p k k l k k k k 2 _ +XtX:.qXuX>.tXE.@XtX:.V C W.tX<.V yXqX:.tX@X_ 2 k k k k k k k p : ~.v # ",
"O ; ; O * H *.Y w.V.h.x.= _ +XtX,.qXeX>.tX+X&XtX:.*X+XW.tXW.V rXqX,.tXE._ = h.h.x.9.%.*.H * O ; ; O ",
"iX+ G I @ G W a.b.Z.8.8 H _ +XtX,.qXeX:.tX+X&XtX:.tX0X<.tXE.V rXqX,.tX+X) K 8 *.m.m.a.W H $ L G + iX",
"iX# Y W 2 H a.b.%X5X4.$ =.V +XyXwXrX:.( E.rXrXW._ >.rXrX&X_ ( :.eXrX*X) ^ =.< 4.4XP.m.a.F & W Y + iX",
"iX+ 9.n.U i.b.-X3X8X5.2 ^ / / / / / / / / %./ / / / %.%./ / / / / / / / / / 2 5.8X3XP.b.i.U n.w.+ iX",
"iX# g.Z.;.n.m.,X8X8X$X#.[ [ A A A A A A A A A A A A A A A A A A [ [ [ [ [ [ #.1X5X7X,XZ.M.p.m.c.# iX",
"iX# g.Z.=.*.2.2.6.4.5.6.+.A A A { { [ [ [ [ [ [ [ [ [ [ [ [ [ { [ { [ [ { X.6.6.4.4.4.1.*.=.Z.u.# iX",
"iX# y.Z.=.z.u.r.t.d.d.t.t.y.d.g.*.t 5 7 7 7 7 7 7 7 7 7 9 5 5 7 t *.y.u.d.d.t.d.d.t.t.u.w.=.m.y.# iX",
"iX# g.Z.=.8.0.b.c.q.q.v.x.q.0.c.f.q o   .                     o 0 f.x.q.0.k.k.0.0.h.b.0.8.=.m.y.# iX",
"iX# y.m.=.+. .h.q. .| t.r. . .0.f.0 X O * O X * + O X + + * X X 0 f.0. . .r.u. . .q.h. .+.=.Z.y.# iX",
"iX# g.m.=.@.X.c.q...4.J.r.X.X.r.f.0 . X + O + O X O X O + X + X 0 f.0.X.X.t.t.X.X.0.h.X.@.=.m.y.# iX",
"iX# y.Z.=.@.X.j.*.2.1X;Xe.X.X.0.f.0 X O X O X O + O O O O O O X 0 f.0.X.X.t.u.X.X.0.c.X.@.;.Z.y.# iX",
"iX# y.Z.=.+.O.g.B.=X8XL.0. . .0.f.0 X + O + + X X X O X + O + X 0 f.q. . .r.t. . .q.c.O.+.=.Z.y.# iX",
"iX# y.Z.=.9.e.v.L.>X;XA.d.q.8.h.f.0 X O O X O X O + O + X O X X 0 f.h.q.q.j.x.e.0.h.v.e.9.=.m.g.# iX",
"iX# y.Z.=.i.u.b.c.t.t.c.S.G.L.L.z.0 X O O X O + X O + + O O O X 0 d.G.L.L.A.k.h.h.x.b.u.z.=.Z.y.# iX",
"iX# g.m.=.+.O.h.q. .o.9.L.6X7X;Xz.0 X O O O O X O O X X O X O X 0 d.>X7X1XJ.r. . .q.h. .+.=.Z.g.# iX",
"iX# y.Z.=.@.X.c.0.X.X.r.L.7X1XJ.d.0 . * + O O O O + O O O O O . 0 z.<X1X2.w.u.X.X.q.h.X.@.=.m.y.# iX",
"iX# y.Z.;.@.X.h.0.X.X.r.L.3X5.0.f.0 X X   . . . .   . X     O X 0 d.%X6...r.y. .$.K.h.X.@.;.Z.y.# iX",
"iX# y.Z.Q +.O.c.0.X.X.r.P.5.X.e.f.0 . * 1 2 1 2 2 1 1 1 2 2 O . 0 d.0.X.X.r.t. .B.<Xg.X.+.*.m.g.# iX",
"iX# d.Z.+...X.h.q.X...r.r. . .e.f.q . 9 { { [ { [ [ [ [ { { 7   0 l.0. .X.t.u.B.7X>Xd.....+.Z.d.# iX",
"iX# y.m.+.+.1.v.t.1.#.c.h.#.1.u.V.q 7 { { [ [ [ [ [ [ [ [ [ { 7 0 f.y.#.#.d.L.5X5X;Xv.1.$.+.Z.y.# iX",
"iX# c.S.+.w.x.v.v.k.v.v.v.v.k.x.*.[ [ [ [ [ [ [ [ [ [ [ [ [ { [ [ w.v.k.v.k.v.v.k.x.v.x.w.+.m.c.O iX",
"iX< r.b.+.A { { { } } { { } { } { [ iXiXiXiXiXiXiXiXiXiXiXiXiXiX[ [ { } { { { { { { { } [ +.b.r.< iX",
"iXA } } A iXiXiXiXiXiXiXiXiXiXiXiXiXiXiXiXiXiXiXiXiXiXiXiXiXiXiXiXiXiXiXiXiXiXiXiXiXiXiXiX[ } { A iX"
};
