/* XPM */
static char *_0960_e9173f94868f2db149783fe25d37f21b1d9537860dd67fab6b10f73477eb25bd[] = {
/* columns rows colors chars-per-pixel */
"50 50 114 2 ",
"   c #0D1919",
".  c #141B1B",
"X  c #2C201F",
"o  c #2D2321",
"O  c #402725",
"+  c #462B27",
"@  c #402F28",
"#  c #5E342D",
"$  c #62362E",
"%  c #63392F",
"&  c #69382F",
"*  c #653B30",
"=  c #6A3C31",
"-  c #723F33",
";  c #634132",
":  c #6C4235",
">  c #724235",
",  c #7C4437",
"<  c #764837",
"1  c #7F4739",
"2  c #7C4D3A",
"3  c #7D523C",
"4  c #7F5441",
"5  c #864A3B",
"6  c #8D4D3C",
"7  c #934E3E",
"8  c #80513C",
"9  c #89523E",
"0  c #84583F",
"q  c #93533E",
"w  c #95583F",
"e  c #8B5740",
"r  c #845A40",
"t  c #8B5E42",
"y  c #965540",
"u  c #995541",
"i  c #965942",
"p  c #9A5C44",
"a  c #A05D46",
"s  c #8E6344",
"d  c #936345",
"f  c #9B6245",
"g  c #966847",
"h  c #9C6947",
"j  c #9D6648",
"k  c #966948",
"l  c #9C6C4A",
"z  c #9E704C",
"x  c #956E51",
"c  c #A1664A",
"v  c #A16D4B",
"b  c #A3754E",
"n  c #A9744F",
"m  c #A5784F",
"M  c #A76C51",
"N  c #A96D53",
"B  c #AB7256",
"V  c #A67950",
"C  c #A97C52",
"Z  c #AE7459",
"A  c #AC8057",
"S  c #AD8259",
"D  c #B08054",
"F  c #B2855C",
"G  c #B3885E",
"H  c #AC8962",
"J  c #B58B61",
"K  c #B88F64",
"L  c #B79067",
"P  c #BA9266",
"I  c #B5956A",
"U  c #BE956A",
"Y  c #BA9B6D",
"T  c #BF9F70",
"R  c #BFA071",
"E  c #C08E6C",
"W  c #C1966C",
"Q  c #C29A6D",
"!  c #C49370",
"~  c #C49D70",
"^  c #C3A373",
"/  c #CAA375",
"(  c #C7A876",
")  c #C8A976",
"_  c #CDA779",
"`  c #CDAB7A",
"'  c #D3AC7E",
"]  c #CFB07B",
"[  c #D2B37D",
"{  c #D4B87F",
"}  c #D6AC82",
"|  c #D8AE84",
" . c #D5B281",
".. c #DAB186",
"X. c #D7B981",
"o. c #D9BB83",
"O. c #DDBD8A",
"+. c #E0BE8D",
"@. c #DCC185",
"#. c #DEC18A",
"$. c #E1C28D",
"%. c #E6C692",
"&. c #E6C993",
"*. c #EACB96",
"=. c #EDCF9A",
"-. c #E9D096",
";. c #EFD09C",
":. c #F1D29E",
">. c #F2D99F",
",. c #F4D6A1",
"<. c #F5D9A2",
"1. c #F8DCA6",
"2. c #FFE3AC",
"3. c None",
/* pixels */
"3.3.3.3.3.3.3.3.3.3.3.3.3.3.3.3.3.3.3.3.3.3.3.3.3.3.3.3.3.3.3.3.3.3.3.3.3.3.3.3.3.3.3.3.3.* * % % % ",
"3.3.3.3.3.3.3.3.3.3.3.3.3.3.3.3.3.3.3.3.3.3.3.3.3.3.3.3.3.3.3.3.3.3.3.3.3.3.3.% % % % $ > l z z l * ",
"3.3.3.3.3.3.3.3.3.3.3.3.3.3.3.3.3.3.3.3.3.3.3.3.3.3.3.3.3.3.3.$ $ $ # * * # 3 z l l z k l C m C z * ",
"3.3.3.3.3.3.3.3.3.3.3.3.3.3.3.3.3.3.3.3.3.3.3.3.3.$ $ $ $ # # s z k i i k k z V V V V V V b b m l % ",
"3.3.3.3.3.3.3.3.3.3.3.3.3.3.3.3.3.3.3.$ # $ $ # * d k k k k k b V V f j C m m b b b b b b b b m z * ",
"3.3.3.3.3.3.3.3.3.3.3.3.# $ # # # # : k g g k d k b C C V V m m b V p j m b b b b b b m b b b V z * ",
"3.3.3.3.3.# # # # # # 2 k d d d d d k V m V V V C b p p p p b b b b p j V b b b b b b z b b b V z % ",
"$ # # # # 0 g d 9 e s l C C V V V C V V b p p f p p q 7 7 7 u b b b f u p j m b m b m V z p p p i % ",
"% r s t s b c f u v C V b b b V v p p f p 7 7 7 7 y f f g h w v V V f p h b v p p p p p f j h c d * ",
"* b C C V b h j p j b b z b V z p 7 7 7 q j f d f c _  .' A w p p p u p f p f j c j j g c m m V l * ",
"& l V b b b V V p j m b b b V j u j f p f C ` } / A ;.2.1.G q p g j j j j f v m b m m m m b b C l * ",
"* l V b b b b b p j m m V V V j w F ` ` W G 1.2.:.A P W Q C w v V m m m b m m b b b b b b b b b z * ",
"* z m b b m m V p c V h p j f i w U 2.2.%.C ! ~ W C U Q Q C p c b b b b b b b b b b b b b b b V z * ",
"* z C m m h f f u p j j j p f u p A ^ / U V U ~ P C *.1.<.G w c m b b b b b b b b m m m m b f j p * ",
"% d c j j p p f f p p l V m V j p A W U J F ,.1.=.S *.1.,.G q h m b b b b m m C b j g f j j p p i * ",
"% i p p p b m m b m V b b b V j w U <.1.O.S ,.1.=.C Q _ _ A w v m m V l j j f j f p p p p j V C z * ",
"* z V m b b b b b b b b b b m j q U <.1.+.C ` ' / V J K K C u p j j l j p p p p j V b b m m b m z * ",
"* l m b b b b b b b b b b b b j w F [  ./ V J K H C &.<.,.G q p p p y p v b m m b b b b b b b m z * ",
"* l m b b b b b b b b b b b V j p C J J C G :.,.*.F &.1.<.G q c m V p u u h m b b b b b b b b m l * ",
"* l m b b b b m z b b V b V b p w P ,.,.O.F :.<.*.Z  .+.O.S u h m m f p b b b b b b b b b b b m l * ",
"* l V b m m m m V b h v h b j u w P <.<.+.S +.%.O.C h h l l p v m b p y h m b m b b b b b m b V z * ",
"* z V V v v l v z f y p p u f j w K %.&. .v l l v l p u p u v m b m p j m b b m b V m m m v M v l * ",
"* k b v p p u y u l m b v p j j p b v v l u u u u p b b b b b b b V p j V m b v b b v b j e 6 y 6 * ",
"% y p p l b b b b b b f u y j v u u u w p b b b b b b V b m b b b b p j b m f 5 6 6 6 6 6 * & % $ # ",
"* l m b b b b b m b b b b p p m b b b b b m m b b b b b b b b u 6 9 7 6 7 q 2 : : : : : - q q 6 * 3.",
"* l V b b b b b b b b m j w f V b b b b b b b b b q 6 y 7 7 q > * : = : = $ x ] ( ( ) L 7 u u 9 $ 3.",
"* l V b b b b b b b b b b p f b b b h y y q w w 6 = * = = * * H ` ^ ^ ^ ^ ^ ` X.X.X.@.Q u b b l * 3.",
"* l m b b b b b b b m f u y q u u u 6 & = = & % > Y ^ ^ ^ R ~ [ o.X.X.X.X.X.X.] O.*.;.' u b V z * 3.",
"* l V b b p u p p u p 1 % & & & & $ 4 T T Y T Y ^ { o.X.X.X. .&.*.*.*.*.*.O.[ ] #.,.<.} u b m k $ 3.",
"% y p p p > % & & & $ k T Y Y Y Y I ^ X.X.o.{ o.X.&.*.*.X.%.*.;.,.;.;.;.;.=.O.o.*.;.<.} q b V l * 3.",
"$ = = & = 1 S T I I I ) @.{ o.{ o.o.O.=.;.*.*.*.*.:.:.:.o.*.<.;.;.;.;.;.;.:.#.O.:.;.<.} i b V l $ 3.",
"3.$ , 5 5 7 / o.o.o.{ $.&.&.*.:.' c N Z Z Z Z Z Z Z Z Z M B Z B N ..1.;.;.;.*.*.;.*.,.} i b V l * 3.",
"3.% 7 u u 7 W &.o.[ ' $.:.1...Z B f f f d f f f d f f f f f f f w b n ' 1.=.;.;.=.=.,.| q n n l % 3.",
"3.* f v c w W -.=.X.o.*.,.} v p l V C V C C C V C V V m C C C C D h w M | :.;.=.=.;.,.' w n V l % 3.",
"3.* l V m w W *.,.o.$.:.<.U q m V l 2 r 3 9 3 9 8 8 8 8 8 8 8 8 z V m w E >.=.=.=.=.>.| i b b l % 3.",
"3.* l V b p W -.:.%.*.;.,.! w m l * X o X X X X X o o o X X X X ; l m w ! >.;.;.=.;.>.| u b V l % 3.",
"3.* l V b i W *.;.:.;.=.<.! u V t O         . . .   .           O s C w W >.=.=.=.=.<.} w b b l * 3.",
"3.* k V b i W -.:.=.;.=.<.! w C d + . . . . . . . . . . . . . . + d C w ! >.;.;.=.=.>.} i b V l $ 3.",
"3.$ l V b u W *.;.;.=.=.<.! w C s + . . . . . . . . . . . . . . + d n w ! 1.;.;.;.;.<.} i b V l * 3.",
"3.* l V b i U *.,.&.*.;.<.Q w C p + . . . . . . . . . . . . . . + d C w ! >.;.;.*.&.<.} q b V l % 3.",
"3.% l V b w W =.,.o.$.:.<.W u C d + . . . . . . . . . . . . . . + d C w W >.=.:.$.o.1.} w b b l % 3.",
"3.% l V b w W =.=...o.=.1.! w C d + . . . . . . . . . . . . .   + f C w ! <.:.=.o. .:.| w b V l % 3.",
"3.% l b b w Q -.#.{ { $.>.W w C d + . . . . . . . . . . . . . . + d C w W :.=.$.X.X.#.} i b V l % 3.",
"3.% l V b p F Q W W W W Q B p C t + . . . . . . . . . . . . . . + d C p Z ~ W W W W ^ F i b V l % 3.",
"3.% l b b p q p w p w i p q f C d +   . . . .   . . . . . . .   + d A i 9 p w p i p p w p b v l % 3.",
"3.% k f v p c b b b b b b j p b i +             .               + w b < 3 V b b b h v j p v j l % 3.",
"3.% l b b p v C b C m m m j q a e +   X o o X X o o o o o o o . O 9 a > 3 A m V c p p u p b b l % 3.",
"3.* l a b p d l k k l k z p p C j + o u u e y y e y y y 7 y y @ + d D 2 2 z l l l l l f p b p l * 3.",
"3.% k i g i - * = = * * = $ 2 V r = u u u u y u u u u u u y u y & 0 m 3 $ & & % $ % $ : i k u d % 3.",
"3.$ * % * % 5 q 7 7 7 7 y , # * # - 3.3.3.3.3.3.3.3.3.3.3.3.3.3.> % % # , q w 1 3.3.3.3.* * % * $ 3."
};
