/* XPM */
static char *_447_0e47e09dcb8c9f81c36a647e9bfeb4ad29f5e6da10f37bd11cf9fe5bd8ec315e[] = {
/* columns rows colors chars-per-pixel */
"50 50 222 2 ",
"   c #000F14",
".  c #071619",
"X  c #0A1619",
"o  c #0D1A19",
"O  c #091817",
"+  c #141B1B",
"@  c #1B1D1C",
"#  c #111A18",
"$  c #211D1D",
"%  c #281E1F",
"&  c #25211D",
"*  c #331B25",
"=  c #2A2423",
"-  c #3D2A24",
";  c #362323",
":  c #3D3126",
">  c #492C2A",
",  c #4A2F25",
"<  c #4C322C",
"1  c #493729",
"2  c #53342C",
"3  c #5C352D",
"4  c #54392F",
"5  c #5C392B",
"6  c #5C3B31",
"7  c #5B3730",
"8  c #51242A",
"9  c #6C3A2D",
"0  c #63392C",
"q  c #733D2E",
"w  c #7C3D2D",
"e  c #742932",
"r  c #7C2A34",
"t  c #633A31",
"y  c #6C3D33",
"u  c #633431",
"i  c #733E35",
"p  c #68272F",
"a  c #66432C",
"s  c #7A412C",
"d  c #634133",
"f  c #6C4235",
"g  c #6F4438",
"h  c #7D4433",
"j  c #734539",
"k  c #7C4639",
"l  c #7D4B3A",
"z  c #754638",
"x  c #7E5C3C",
"c  c #832B36",
"v  c #8B2938",
"b  c #9E2F3C",
"n  c #932D3B",
"m  c #9F303C",
"M  c #AC2E3E",
"N  c #A22E3E",
"B  c #A9313F",
"V  c #AB3C3B",
"C  c #C0343F",
"Z  c #82422E",
"A  c #8B462D",
"S  c #95492F",
"D  c #93472F",
"F  c #8B4634",
"G  c #8C4A35",
"H  c #834B3C",
"J  c #8C4C3B",
"K  c #844633",
"L  c #934A34",
"P  c #934E3B",
"I  c #974B32",
"U  c #835434",
"Y  c #8C5936",
"T  c #8C543E",
"R  c #86573B",
"E  c #92533E",
"W  c #925C38",
"Q  c #A8512F",
"!  c #A54F34",
"~  c #A55134",
"^  c #AC5335",
"/  c #B55633",
"(  c #BB5A34",
")  c #B75B36",
"_  c #8F6036",
"`  c #AB693C",
"'  c #C45C34",
"]  c #C55C37",
"[  c #CD623B",
"{  c #C66136",
"}  c #DC6639",
"|  c #D56639",
" . c #EC6E3B",
".. c #E76C3A",
"X. c #F4733C",
"o. c #FD7A3D",
"O. c #EA743D",
"+. c #B32F40",
"@. c #B33241",
"#. c #E91F42",
"$. c #DE2541",
"%. c #DE2B45",
"&. c #CB3B47",
"*. c #DD3247",
"=. c #DF3449",
"-. c #DD3A4C",
";. c #D43948",
":. c #E12442",
">. c #EA2445",
",. c #E12C46",
"<. c #ED2D49",
"1. c #E92B48",
"2. c #FB2546",
"3. c #F92A4A",
"4. c #E3354B",
"5. c #EB334D",
"6. c #E3394D",
"7. c #EB3A4E",
"8. c #E13147",
"9. c #F3334C",
"0. c #FB334F",
"q. c #F03B4F",
"w. c #EC3C50",
"e. c #F53C52",
"r. c #FC3D53",
"t. c #F43650",
"y. c #8F5641",
"u. c #955441",
"i. c #9B5543",
"p. c #965A42",
"a. c #9D5945",
"s. c #8E4E41",
"d. c #AE4C44",
"f. c #A94942",
"g. c #BD4546",
"h. c #B34B45",
"j. c #B84B47",
"k. c #A45B45",
"l. c #AB5C46",
"z. c #A45B49",
"x. c #AC5A48",
"c. c #B65E44",
"v. c #9B6C4B",
"b. c #9D7151",
"n. c #B86545",
"m. c #A7664E",
"M. c #C64548",
"N. c #CB4449",
"B. c #CA4849",
"V. c #C14447",
"C. c #C6534B",
"Z. c #DA4C52",
"A. c #E24352",
"S. c #EC4253",
"D. c #E84B57",
"F. c #FC4156",
"G. c #E55A5E",
"H. c #E25258",
"J. c #C56343",
"K. c #D66945",
"L. c #D37947",
"P. c #C76A59",
"I. c #D26D50",
"U. c #E67647",
"Y. c #FA7C42",
"T. c #E76E43",
"R. c #E55E60",
"E. c #F25661",
"W. c #E66464",
"Q. c #E96264",
"!. c #E46966",
"~. c #EC746E",
"^. c #DC824B",
"/. c #E8854B",
"(. c #FF8442",
"). c #FF8942",
"_. c #FC8949",
"`. c #F69C53",
"'. c #EF9B53",
"]. c #FCA356",
"[. c #FDAC58",
"{. c #F9AA57",
"}. c #FDB15B",
"|. c #D89672",
" X c #E8947D",
".X c #E8997F",
"XX c #C0A36F",
"oX c #C2B176",
"OX c #D2B57D",
"+X c #CAA976",
"@X c #E99C81",
"#X c #DABB85",
"$X c #DEB988",
"%X c #CFBE85",
"&X c #E4AB82",
"*X c #EBAC89",
"=X c #EAA586",
"-X c #ECB28D",
";X c #E7B58C",
":X c #F3B08D",
">X c #D4C284",
",X c #D7C98A",
"<X c #DDCE90",
"1X c #DED292",
"2X c #E4CC93",
"3X c #EBC896",
"4X c #E7DB9B",
"5X c #F1D49F",
"6X c #F2C296",
"7X c #DFE29B",
"8X c #E1E49D",
"9X c #EFDCA2",
"0X c #F2DFA5",
"qX c #EEE5A5",
"wX c #EBE9A5",
"eX c #E5E7A0",
"rX c #F3E1A6",
"tX c #F4EAAB",
"yX c #F6E3A8",
"uX c #F2F3AE",
"iX c #F6F7B2",
"pX c None",
/* pixels */
"pXpXpXpXpXpXpXpXpXpXpXpXpXpX+ + X O o o . X o o O o X X X X X . X # + pXpXpXpXpXpXpXpXpXpXpXpXpXpXpX",
"pXpXpXpXpXpXpXpXpXpXpXpXpX1 Y _ f 4 < - ; a Y Y a 2 < - > d Y U U Y U - pXpXpXpXpXpXpXpXpXpXpXpXpXpX",
"pXpXpXpXpXpXpXpXpXpXpXpX& W {.}.L.x.u.i a L.[.[.L.z.s.i h ^.].`.`.{.'.U X pXpXpXpXpXpXpXpXpXpXpXpXpX",
"pXpXpXpXpXpXpXpXpXpXpXpX& _ [.}./.c.z.i z | [.}.U.m.i.i h L.[.].].[.].U o pXpXpXpXpXpXpXpXpXpXpXpXpX",
"pXpXpXpXpXpXpXpXpXpXpXpXo 1 Y _ E k.a.k 3 G ` ` k.a.i.y 5 Y L._.)./.` : X pXpXpXpXpXpXpXpXpXpXpXpXpX",
"pXpXpXpXpXpXpXpXpXpXpXpXpXo o + 1 y.a.l 5 < 4 6 z u.u.z 2 > D  .o./ % pXpXpXpXpXpXpXpXpXpXpXpXpXpXpX",
"pXpXpXpXpXpXpXpXpXpXpXpXo = < 4 d y.p.R l g d g l W u.y.y > w ..o./ X pXpXpXpXpXpXpXpXpXpXpXpXpXpXpX",
"pXpXpXpXpXpXpXpXpXpXpXpX+ t C.C.h.d.d.h.h.h.d.d.h.h.h.x.s.i L ] T.I @ pXpXpXpXpXpXpXpXpXpXpXpXpXpXpX",
"pXpXpXpXpXpXpXpXpXpXpXpXo r S.F.6.-.-.=.8.,.8.8.=.6.5.V.i.y.u.l.n.k @ pXpXpXpXpXpXpXpXpXpXpXpXpXpXpX",
"pXpXpXpXpXpXpXpXpXpXpXpXo r 0.r.q.5.5.1.>.#.>.>.<.3.0.N.i.p.i.k.z.j @ pXpXpXpXpXpXpXpXpXpXpXpXpXpXpX",
"pXpXpXpXpXpXpXpXpXpXpXpX+ c r.r.7.%.:.6.G.Q.Q.Q.w.>.=.h.u.T l l H 7 + pXpXpXpXpXpXpXpXpXpXpXpXpXpXpX",
"pXpXpXpXpXpXpXpXpXpXpXpX+ e w.r.4.%.%.W.-X5X5X6X~.;.@.p.J y 3 t i < + pXpXpXpXpXpXpXpXpXpXpXpXpXpXpX",
"pXpXpXpXpXpXpXpXpXpXpXpXo % c ;.<.7.!.-XyXiXuX4X.XP.i.T l 3 9 ! ' w + pXpXpXpXpXpXpXpXpXpXpXpXpXpXpX",
"pXpXpXpXpXpXpXpXpXpXpXpXpXpX$ M 2.S.=XwX4X2X2X>X>XXXv.P k 7 A X.(.) @ pXpXpXpXpXpXpXpXpXpXpXpXpXpXpX",
"pXpXpXpXpXpXpXpXpXpXpXpXpXpX+ M 2.D.-XwX,XOXOXOX,XoXv.F k 3 D X.).' @ pXpXpXpXpXpXpXpXpXpXpXpXpXpXpX",
"pXpXpXpXpXpXpXpXpXpXpXpXpXpX% +.2.S.;XwX<X#X#X<X4X#XP.V J j J [ T.I @ pXpXpXpXpXpXpXpXpXpXpXpXpXpXpX",
"pXpXpXpXpXpXpXpXpXpXpXpXpXpX# M 3.S. X5XwXqXqXtXyX=XD.&.P y.i.l.n.j + pXpXpXpXpXpXpXpXpXpXpXpXpXpXpX",
"pXpXpXpXpXpXpXpXpXpXpXpXpXpX+ M 0.<.H..XrXiXiXtX:XE.5.&.P p.a.a.z.g + pXpXpXpXpXpXpXpXpXpXpXpXpXpXpX",
"pXpXpXpXpXpXpXpXpXpXpXpXpX@ e &.q.1.C S. X*X*X=XG.>.1.M.E l j z H 7 + pXpXpXpXpXpXpXpXpXpXpXpXpXpXpX",
"pXpXpXpXpXpXpXpXpXpXpXpX+ p 6.e.7.4.8.<.6.-.6.-.4.1.<.B.T t 3 i h < + pXpXpXpXpXpXpXpXpXpXpXpXpXpXpX",
"pXpXpXpXpXpXpXpXpXpXpXpX+ c F.r.6.-.4.*.%.$.$.:.,.5.t.B.H 4 q ( [ A + pXpXpXpXpXpXpXpXpXpXpXpXpXpXpX",
"pXpXpXpXpXpXpXpXpXpXpXpXO c 7.e.6.6.-.-.-.4.4.5.5.5.A.j.l 4 D X.(.' $ pXpXpXpXpXpXpXpXpXpXpXpXpXpXpX",
"pXpXpXpXpXpXpXpXpXpXpXpXo r 6.e.6.6.4.6.4.5.6.6.5.;.h.p.l 5 D ..(.( @ pXpXpXpXpXpXpXpXpXpXpXpXpXpXpX",
"pXpXpXpXpXpXpXpXpXpXpXpXO c 7.e.6.-.6.4.5.7.-.V.h.d.u.y.T H J J.K.P @ pXpXpXpXpXpXpXpXpXpXpXpXpXpXpX",
"pXpXpXpXpXpXpXpXpXpXpXpX+ v r.r.4.6.-.-.;.&.j.y.x R R u.p.i.p.l.x.j @ pXpXpXpXpXpXpXpXpXpXpXpXpXpXpX",
"pXpXpXpXpXpXpXpXpXpXpXpX+ e 7.r.6.4.6.N.k.u.u.R R y.u.u.u.i.u.i.a.f + pXpXpXpXpXpXpXpXpXpXpXpXpXpXpX",
"pXpXpXpXpXpXpXpXpXpXpXpXo ; v -.e.6.6.&.j.f.h.j.h.V.V.d.E l g i k 2 + pXpXpXpXpXpXpXpXpXpXpXpXpXpXpX",
"pXpXpXpXpXpXpXpXpXpXpXpXpXpX$ @.r.w.4.4.-.-.-.6.6.5.q.N.J 6 3 i K 2 + pXpXpXpXpXpXpXpXpXpXpXpXpXpXpX",
"pXpXpXpXpXpXpXpXpXpXpXpXpXpXo @.r.w.-.5.5.1.5.1.5.9.0.B.H 4 q ] ..S @ pXpXpXpXpXpXpXpXpXpXpXpXpXpXpX",
"pXpXpXpXpXpXpXpXpXpXpXpXpXpX@ @.r.w.-.%.$.$.$.$.,.7.7.B.l 4 D o.).' @ pXpXpXpXpXpXpXpXpXpXpXpXpXpXpX",
"pXpXpXpXpXpXpXpXpXpXpXpXpXpX$ @.r.6.%.%.-.A.A.6.4.>.<.B.H 6 D ..(./ @ pXpXpXpXpXpXpXpXpXpXpXpXpXpXpX",
"pXpXpXpXpXpXpXpXpXpXpXpXpXpX@ @.r.<.$.H. X-X-X=XW.>.>.M.T l P n.J.G @ pXpXpXpXpXpXpXpXpXpXpXpXpXpXpX",
"pXpXpXpXpXpXpXpXpXpXpXpXpXpXo B 0.5.H..X5XuXuXtX:XR.;.^ E p.z.z.x.j + pXpXpXpXpXpXpXpXpXpXpXpXpXpXpX",
"pXpXpXpXpXpXpXpXpXpXpXpXpXpX% @.2.S..XrXtXyX0XrXyX;Xm.n E i.P u.i.f + pXpXpXpXpXpXpXpXpXpXpXpXpXpXpX",
"pXpXpXpXpXpXpXpXpXpXpXpX+ ; N =.#.D.;XuXyX5X3X2X4X%Xb.G J k y y j 2 + pXpXpXpXpXpXpXpXpXpXpXpXpXpXpX",
"pXpXpXpXpXpXpXpXpXpXpXpX+ e e.r.,.A.&XeX4X2X#XOX>XoXv.P F t 3 Z I 3 + pXpXpXpXpXpXpXpXpXpXpXpXpXpXpX",
"pXpXpXpXpXpXpXpXpXpXpXpX+ r e.r.,.A.|.,X,X>X>X>X>XXXm.P h 7 Z | T.~ @ pXpXpXpXpXpXpXpXpXpXpXpXpXpXpX",
"pXpXpXpXpXpXpXpXpXpXpXpXO e 7.r.8.*.Z.|.1X8X8XeXOX!.N.d.k 4 I o.).{ @ pXpXpXpXpXpXpXpXpXpXpXpXpXpXpX",
"pXpXpXpXpXpXpXpXpXpXpXpX. e 7.r.6.,.%.R.*X3X3X-X~.<.<.M.H t G } Y.^ @ pXpXpXpXpXpXpXpXpXpXpXpXpXpXpX",
"pXpXpXpXpXpXpXpXpXpXpXpXO e 7.r.6.8.,.6.G.W.Q.R.6.>.3.B.u.R E c.J.K + pXpXpXpXpXpXpXpXpXpXpXpXpXpXpX",
"pXpXpXpXpXpXpXpXpXpXpXpXO e q.r.6.6.8.8.8.:.$.$.,.5.w.M.z.p.i.z.z.j @ pXpXpXpXpXpXpXpXpXpXpXpXpXpXpX",
"pXpXpXpXpXpXpXpXpXpXpXpXo c r.F.e.e.e.9.9.9.9.9.t.r.e.&.l l H J u.6 + pXpXpXpXpXpXpXpXpXpXpXpXpXpXpX",
"pXpXpXpXpXpXpXpXpXpXpXpX+ c S.F.F.r.r.F.r.F.r.F.r.r.e.n = 1 y y g < X pXpXpXpXpXpXpXpXpXpXpXpXpXpXpX",
"pXpXpXpXpXpXpXpXpXpXpXpX+ 8 b @.m m N N N m N N b +.v * @ 0 ! ^ ^ i = O pXpXpXpXpXpXpXpXpXpXpXpXpXpX",
"pXpXpXpXpXpXpXpXpXpXpXpX+ + + o o o o o o o o + o o + ; y / | } } ] i $ O pXpXpXpXpXpXpXpXpXpXpXpXpX",
"pXpXpXpXpXpXpXpXpXpXpXpXpXpXpXpXpXpXpXpXpXpXpXpX  + a ) ) ! F F F ( ] 3 X pXpXpXpXpXpXpXpXpXpXpXpXpX",
"pXpXpXpXpXpXpXpXpXpXpXpXpXpXpXpXpXpXpXpXpXpXpXpX  - [ ).X./ Z h F ] X.A X pXpXpXpXpXpXpXpXpXpXpXpXpX",
"pXpXpXpXpXpXpXpXpXpXpXpXpXpXpXpXpXpXpXpXpXpXpXpXpX- { Y.X.} [ ] | X. .s o pXpXpXpXpXpXpXpXpXpXpXpXpX",
"pXpXpXpXpXpXpXpXpXpXpXpXpXpXpXpXpXpXpXpXpXpXpXpXpX= h ^ ~ ~ ^ ^ / / ~ , pXpXpXpXpXpXpXpXpXpXpXpXpXpX",
"pXpXpXpXpXpXpXpXpXpXpXpXpXpXpXpXpXpXpXpXpXpXpXpXpXpX> 0 3 3 3 7 3 y u pXpXpXpXpXpXpXpXpXpXpXpXpXpXpX"
};
