/* XPM */
static char *_5284_e47e796c605f2f44fee6068a59d94af09a7feeb773397421e48959eaade598d9[] = {
/* columns rows colors chars-per-pixel */
"50 50 38 1 ",
"  c #E9874A",
". c #EC8C4C",
"X c #EF914F",
"o c #F0924F",
"O c #EF9150",
"+ c #F29552",
"@ c #F59B54",
"# c #F89E56",
"$ c #F7A057",
"% c #F9A257",
"& c #F7A158",
"* c #FBA559",
"= c #FFAD5D",
"- c #FFB15F",
"; c #FFAF61",
": c #FFB261",
"> c #FFB46C",
", c #FFB86B",
"< c #FFB771",
"1 c #FFBA74",
"2 c #FEBC7B",
"3 c #FEC07E",
"4 c #FEBF81",
"5 c #FEC287",
"6 c #FEC389",
"7 c #FEC690",
"8 c #FECA94",
"9 c #FECC9B",
"0 c #FECEA0",
"q c #FED1A6",
"w c #FED5AD",
"e c #FDD9B5",
"r c #FDDDBC",
"t c #FDDFC1",
"y c #FDE1C5",
"u c #FDE3C9",
"i c #FDE7D1",
"p c #FCF4EB",
/* pixels */
"==================================================",
"=====================;>;==========================",
"=====================>e1=========-================",
"===================*=<e2;=======----==============",
"=====================;>;=======-----==--====>>;===",
"==============================-=-----==-===>0e>===",
"============================-===-====---===;25:===",
"==========>;================-==*%%%*--:--=-=;;;===",
"=========<q<===============---=%++$%=-----========",
"========;4i4===============-:-*@X.+$-----=-=======",
"=======;6ute>==============-::*@..o@*--==*==--====",
"=======;6trt<=============--::*+..X%==*%#%==----==",
"========>4r4;;======;;=====-=:*@oX+%*=@@o@%=----==",
"=========>e2;======;21=====--=*#++#*=%@..o$=----==",
"=========;>;=======<y0>====--==*$#%==$+. X@=---===",
"===================;<>======---**=---%o. X@=----==",
"================================-----*+oXo%=----==",
"===============================----:-=%@@%%=---===",
"===============================---::-=*%***-======",
"=========================;:;====-----======-======",
"=======================;248:========-===---=======",
"=======================2prt<===========;---=======",
"==============--=======:9u4===========;=--========",
"==============--;======;20>=======================",
"======>>=====------====-;;;=======================",
"=====>ew,-====-----=-==-=;========================",
"====;;22:---------=--=--==========;2>;;===========",
"======;;-----=****=-----========;;<i0;============",
"========---:-=%#@$*--:-----=======;<>=============",
"=======----:-*@XX+$=--:-==========================",
"===-=-===----%+. X@*=======-======================",
"==----=*%**==*+. X@===%#%=====================*===",
"===-:,*&++$***+X.o$=*%@+@*========================",
"==--58:@XX+$**$+o@%*%@O.+%=::=-===================",
"===:8r>@. X$***$$%**%+  X%=-:=====================",
"===-,1=@. .+*=--*=-=%+  X$=-::====================",
"==---:*#XXX$*-----:-*+..+%=;=;====================",
"===---=$+X@%--,,::--*#++#*==-=====================",
"==----=*$$%*=-3r1-:=**##%====-====================",
"====-===*=*==-1e1---;;============================",
"========--===-:>-===-=================;>;=;>;=====",
"========----=========--:-=*===========>q7;>q2=====",
"========---==========----=============;95;1e4;====",
"====:======,>==========================>;;;<;=====",
"===>7>====>wq>=*==================================",
"===2p2===;;53:=-==================================",
"===;2;=====;:=====================================",
"==================================================",
"==================================================",
"=================================================="
};
