/* XPM */
static char *_2224_cbee8139390b6d0e25b68947731a89b95e1d85643a75c03f751fc8b80e70ba4b[] = {
/* columns rows colors chars-per-pixel */
"50 50 11 1 ",
"  c #995F43",
". c #9B6445",
"X c #9D6847",
"o c #9D6748",
"O c #9E6B49",
"+ c #9F704B",
"@ c #A06E4B",
"# c #A3754E",
"$ c #A4784F",
"% c #A47750",
"& c #A57850",
/* pixels */
"%%&&$#&#####XX. ...XX....X......X.XX........ @@@@#",
"%%%##%#&####XX.  ...XXX..XX.XX.X....... .. . @@@@#",
"##########@@@. . ..XOOOOXOOOOOOOOXX.........@ .@@#",
"OOOOOOOO@XX.X.. .XX@@@++#@###@#@@O... ......  @XXX",
"........@  @@ . .XO####+#$######+@OX......  .X.X..",
"    . .    . .@@OO+###$$@@+@@#####OOXXXO.@@@XXX@X.",
"            @@@@###+$$$##+XXXOO##$#+O+@@@#@@@@@@#@",
". .... . .. @@#$#####$$#@XX..XO+#$$#########$#####",
"XXXX@@@ @ X@@##%$#$######XX..XX@%&&&&$$$$##$$&#%##",
"++++@@@@@@@@##%%$$$#######@@@@@#%%&&&&%#$$$$##%#$$",
"##############$%$#$######@######%%%@$##$##$##$####",
"#$$$&##&$$##$####$##$###@$$$####@@@@##############",
"$#&&&&&&$$$######$#######%&&&$#@o@.@@@@##########$",
"$$#&$&&&%%$$%#$###+$#####%%%#$@@o..X@@#########$##",
"#$##&&&$$$$$%%%%$$$$$$$###%#%#@OX.X..@###########$",
"$$###&$$$&&$%%%&$$$$$&#####%@%@@XX@X@@###$####$$$#",
"#%#%#$$##$$#%###$#$#%%%%####&###@@@@@%########$##$",
"%#%%#@#####@###@######%%%%&#&#####%#@%#######$#%##",
"$$%#@@@@@@@@@@@@@@@@@###&&&&&&&#$$%#%%######%%%%$$",
"##@@O@XX@@@ @@@@oXXO@@##%&%%%&&&$%#$%%#%$$$##$%%$$",
"@@@X.. .      ......@@@@$########&%%#&&#$$$#####$%",
"OOX..                 @@@#@@###%%%&%&&&%$$##O#@#@@",
".X... ....           .@@@@X@.@@##%%%#&%%$###OOOo@@",
"............oooo.o@ ..    . .@@@########$##XO... .",
"o@@@@@@@@@@@@@@@@@@@@          @OO@O@@@@@@@o.     ",
"@@@@@@@@@#@@@@@@#@#@@@@         ooOXoooo.....     ",
"$%#%##########%%##$#@@@     .  ..o.o.o.o.@....    ",
"%#%#%%%#&&###%%###$$@@@@@@@@@.@@oOOooOo@@@@@OO@@@@",
"#%%#%%#%$$$$$$$$$$&######@@#@@@@@@@@@@@@@##@#@@##@",
"%#%$%#%%$&$$&$$$$$$&$##$#######$##%%%#%#@@%%$#$$%#",
"######%%&#$$$$&$&&#&%&&&%&&&$$$$%%%@@@@#@#@$$$&%%%",
"####$$%%&##$$$&&###&&&&&&&&&##$$#%@O@oXOXO@@$&&%%%",
"#####$$$#%#########%%&&&&$$$######XXooo..XO+#$$$$#",
"#$#$$$$$####@#@##@##%&&#$$##$$$$##OXooo.XXO@#$%###",
"$%#%$$$###OO@@XX@@@#%%%#####$#$$##+OO+OO++++#%$#$#",
"###$#$$##O.. ... @@@###$#####@######+%%+++########",
"$$$#####@X.      @@@@@@@###@@#@$#&$$$$$%#@@@@@####",
"$####@OXX.       .  @.X@@@##@O@@##&&$$$%@@@@@@@@##",
"#$@@X.....    .    .   @@#@@XOO@##%#$%%%#@X.XOO#+$",
"#@@X......@.@@.@..@. @ @@@#XOXX@####%%++@@XXXXO#$+",
".@ @    .oOO@@#O@@@@@@@@@@#@@@@#####$#$+@@@@@@@@$$",
" @.     X@##########@@#####$@#@###$###$##@@@@@@%+#",
"..  @ @@@@#$$&%###$###%%%##&$$#$$$$$$#$##%#%##%%##",
"@@@@@@@@@##$&&&%%%#$#%%%&&#$$$$$$$$#$$$&#%%%####$+",
"@#@#@%@#####$$$$$$$$&&##&%%%$$$#$$####$+#%#%#####$",
"##%#%%%############$###################$%#########",
"%#%%%%%$#$########$##$@@@@@@#@@@@@@@+#####$####$##",
"###%#$$%#############@@ @@@@XXXXXX..OO############",
"###&#################@........... ..X+##$####$####",
"########&####&####$$#@X.. ..........XO+#$$#######$"
};
