/* XPM */
static char *result[] = {
/* columns rows colors chars-per-pixel */
"50 50 57 1 ",
"  c #683F19",
". c #744A1E",
"X c #774C20",
"o c #7C5224",
"O c #815625",
"+ c #845827",
"@ c #87572F",
"# c #8A5E2B",
"$ c #895735",
"% c #8E5D37",
"& c #8F5F38",
"* c #915F37",
"= c #8E622C",
"- c #92642D",
"; c #96692F",
": c #986A2F",
"> c #946434",
", c #976A31",
"< c #9C6D33",
"1 c #956439",
"2 c #98673A",
"3 c #9D6B3B",
"4 c #9F7034",
"5 c #A06E3C",
"6 c #A37436",
"7 c #A97537",
"8 c #A77836",
"9 c #A97A37",
"0 c #A5733B",
"q c #AA763D",
"w c #A77838",
"e c #AC7B3B",
"r c #B27D3D",
"t c #BD7D3E",
"y c #A67440",
"u c #A87640",
"i c #AD7B40",
"p c #B27E41",
"a c #BF7F40",
"s c #B3823E",
"d c #BB813F",
"f c #C1803F",
"g c #B58342",
"h c #BB8542",
"j c #BD8A44",
"k c #C18542",
"l c #C28D45",
"z c #C98E46",
"x c #C38D48",
"c c #C49147",
"v c #C89247",
"b c #C69348",
"n c #C99649",
"m c #CC994A",
"M c #D19C4D",
"N c #D5A14E",
"B c #D6A150",
/* pixels */
"lhlbbbnbllcbmnjjnjjmj1pmccbnccjsccbggcklllblcbnzjl",
"ltkbbljblhnlje32gssmj3hmcbjsnj6<6cmq0zkk3qmbh8sstl",
"zkzjq66jbmg332320nccbncjcnjsbccjejbbnh7gxjbbje64rz",
"lhlj,sg6cx225553gnccbms6jbcbclngibcbMs46cmbcbblsdb",
"zdhbcnjemg105533jmccbb76cjwcblkqimbjje66eesmcbmmbc",
"ccnjdmzmBj133210bnbbbh6rvcjccclkbcns<6ee66jzljejbc",
"cbNe.shwwcg30ppcj2hby06dbbnzccnnbssj6hmj,sntkr:jmc",
"bjjsoo:>ojmjxmmmh3gw<6ebbccccccjcjjs,jmj6hndkllchl",
"ms;966mnqlcnbccccmmsslbccccccng;jmmi>hmcsjbccbbcah",
"nce69cmlzcccccccbgqbmvkdlbcccbjsmbnbjccbbbccccccll",
"ccne<jnhtlbccccbc1&jmlttlbcclbm6,mjegbccbnbccbccmb",
"s6mjgbbllccbnmbcmpicbcllccccbnm>.,=#-cbcbhjcclcbjx",
"jsllncccnnmjiibnglmbccbbbbbbxccm4>ccsncbj13cblln2i",
"bmktkcbnjsr311jx1hnccbleebbjbccmbmmiecbcc30bbbccjj",
"cbjtkcmj686352g03bbccMj46g6sbcnlgi331gmcbcxbccbllz",
"cbclcbc039966gp&rzcbjss6666ebbc023331imccbbcccbckk",
"ncbbcnr,e77r6ij5aalnj<6es6wjbme10353ucbccccccczcgj",
"h2gncbcs21ql3gmnhkcbbjlmb69bbmi26e3qklbcbnbcbhdl3g",
"p$eMbcbmgqs7hmcbccccbbklb6ebbnj26e4qkzcljjbbczlnnb",
"xgjgjmbcnmcecccccbccczkhbjjbcbnj6wjjvvbcr4eccbcsjn",
"bmme2ibcccbnbccccccbnbcccnbcnnnnjjbbcccmd64jnbc64g",
"nbcmg3jmccccccccccbggclcccbleejnbnbccccbs:ebccce4s",
"gpscMq3bbccklcccccmg3khzbcbcw46lccccccbcsscbcnj66j",
"i>rnmgiblnMbbmmccnmj5tklbccjlce6jnccccccbbbccbjsth",
"ng2yjmmbng4bcsgcbgp00lcmbcbejmchlbcccbbbcccccczlll",
"np21gmmbnlX=,=Osm112qmcdclcmncmmccccbjjccbmbmcttzc",
"j325clilbM7+jm6rnjjlbne4sjmjjmsjbnccbe4jmcjhjljkcc",
"j31jNu&0cbchmbbbbbbmbc666=-==6+gbhbcc6,dj336>3cbmc",
"bggmj323cccvlcbbb03gncjss=o<6sedhdccbjsg330geinxqj",
"bmmmq&3hmnccbcnmh2&imcnnms-egMjjlbccbmi1gmjbmmmj>g",
"cbcbj3umlgnllbxg03ijncccnne69bjgmbcbnq&emcssmcbbjx",
"cnswbmesj6sktbu160bmccbldnnshbbmcccbb32ms6q6iewjmc",
"ns46jmg,hcjkll566gmbbbzahbbzzcbl3pnbbjbb06u336<hmb",
"ns<scbcsbc8lmj6w6ixhslllblcbcbcj5gnccmb336353qsjgn",
"ccjlbcbmbbe6zns6w6662enbbjjbclcbccbbbni103530cmngg",
"ccllbbkgbnng6hmg6w662snbjhbbkthlbnbjbni35y53ibcmhq",
"nccccblljgbBh7nz46qqgcbcbjjbldtlnce6smg1y>014mbxcb",
"llbcccbmiumwdk>ljgmnbcccbcccvfklmh666ll=@=#=,mbczl",
"klbccccm4eho+-.sBnccccccccbmcelnbj<86jm<4cs76jgbzj",
"cccccccmeX.es8ejbllccbbbbnnbq&inbls6<3g6jMNbj6emll",
"mg6cncccp@&mNmbbbxccclzllju5320nccmju3<qcbcbbjcbdf",
"cjennccvu23gbmmbbbcbzhke801132hncbcmc682gnccbbklcc",
"q3bpjncmi353upi0ezcblth640ra2gmccxlmg670jbbcclthbb",
"jgj1hnlmj33311113lbccllhsjkkhbbbktkb040pnccbcczkdc",
"nbglbktkbg03530ihbbcmbcnmbhknbcblahng630vczlcbbldc",
"blsbnhklbmbjlccmnccbgjbccczcbnnbbllbmr,0nmlthbbllc",
"cnjsnbeibbbnnmbbccbbijbbjhbcjjsjjnbbmlscbspfkbbbmc",
"cnsebny1jzkcn0gckhcbmcclhjms648e7kljejmmj46lbxbljj",
"j9c3qmljcttzg$ilttbjgblttzbg6ejnkaks;snbl66bc6es:e",
"jel0ibbmcjhve3xnklnpinckhcbblcbbzhjcjzcbbsencwsjej"
};
