/* XPM */
static char *_2590_e7791c44bdbfe1cb60e9728a987eb22388f988c2768fead4c11a6dd91af9d293[] = {
/* columns rows colors chars-per-pixel */
"50 50 209 2 ",
"   c #E88749",
".  c #E9874A",
"X  c #EA874A",
"o  c #E98849",
"O  c #EA884A",
"+  c #EB894B",
"@  c #EA8A4B",
"#  c #EB8A4B",
"$  c #EA894C",
"%  c #EB894C",
"&  c #EB8A4C",
"*  c #EB8B4C",
"=  c #ED8A4C",
"-  c #EC8B4C",
";  c #EC8B4D",
":  c #EB8C4C",
">  c #EC8C4C",
",  c #EC8C4D",
"<  c #ED8D4D",
"1  c #EC8E4C",
"2  c #EE8D4E",
"3  c #ED8E4E",
"4  c #EE8E4E",
"5  c #EE8F4E",
"6  c #EE8F4F",
"7  c #EE904D",
"8  c #EE904E",
"9  c #EF904E",
"0  c #EE914E",
"q  c #EE904F",
"w  c #EF904F",
"e  c #EF914F",
"r  c #EF924F",
"t  c #F0914F",
"y  c #F0924F",
"u  c #F1924F",
"i  c #F0934F",
"p  c #EF9150",
"a  c #F19150",
"s  c #F19350",
"d  c #F29350",
"f  c #F19550",
"g  c #F19551",
"h  c #F29551",
"j  c #F39651",
"k  c #F09552",
"l  c #F19552",
"z  c #F29552",
"x  c #F29652",
"c  c #F39652",
"v  c #F29752",
"b  c #F39752",
"n  c #F49652",
"m  c #F49753",
"M  c #F29754",
"N  c #F39851",
"B  c #F39852",
"V  c #F39853",
"C  c #F39953",
"Z  c #F49952",
"A  c #F59952",
"S  c #F49853",
"D  c #F49953",
"F  c #F59953",
"G  c #F49A53",
"H  c #F59A53",
"J  c #F49954",
"K  c #F49A54",
"L  c #F59A54",
"P  c #F59B54",
"I  c #F49B55",
"U  c #F59B55",
"Y  c #F69B54",
"T  c #F59C54",
"R  c #F59D54",
"E  c #F59C55",
"W  c #F69C54",
"Q  c #F69C55",
"!  c #F69D55",
"~  c #F59E55",
"^  c #F69E55",
"/  c #F79E55",
"(  c #F69D56",
")  c #F79E56",
"_  c #F69F56",
"`  c #F79F56",
"'  c #F89E55",
"]  c #F89D56",
"[  c #F89F56",
"{  c #F7A056",
"}  c #F7A057",
"|  c #F8A055",
" . c #F8A056",
".. c #F8A156",
"X. c #F9A156",
"o. c #F8A057",
"O. c #F9A057",
"+. c #F8A157",
"@. c #F9A157",
"#. c #FAA157",
"$. c #F8A257",
"%. c #F9A257",
"&. c #F8A357",
"*. c #F9A357",
"=. c #F9A457",
"-. c #FAA457",
";. c #F7A158",
":. c #F8A158",
">. c #F9A158",
",. c #FAA158",
"<. c #F8A258",
"1. c #F9A258",
"2. c #F9A358",
"3. c #F9A259",
"4. c #FAA258",
"5. c #FAA358",
"6. c #FBA358",
"7. c #FAA359",
"8. c #F9A458",
"9. c #FAA458",
"0. c #FBA458",
"q. c #FAA558",
"w. c #FBA558",
"e. c #FAA559",
"r. c #FBA559",
"t. c #FAA659",
"y. c #FBA659",
"u. c #FBA759",
"i. c #FBA55A",
"p. c #FBA55B",
"a. c #FBA65A",
"s. c #FBA75A",
"d. c #FBA65B",
"f. c #FBA75B",
"g. c #FCA659",
"h. c #FCA759",
"j. c #FCA65A",
"k. c #FCA75A",
"l. c #FCA75B",
"z. c #FDA75B",
"x. c #FBA85B",
"c. c #FCA85A",
"v. c #FCA95A",
"b. c #FDA95A",
"n. c #FCA85B",
"m. c #FDA85B",
"M. c #FCA95B",
"N. c #FDA95B",
"B. c #FEA95B",
"V. c #FDAA5A",
"C. c #FDAB5A",
"Z. c #FCAA5B",
"A. c #FDAA5B",
"S. c #FEAC5B",
"D. c #FBAA5C",
"F. c #FDA95C",
"G. c #FCAA5C",
"H. c #FDAA5C",
"J. c #FCAB5C",
"K. c #FDAB5C",
"L. c #FCAB5D",
"P. c #FDAB5D",
"I. c #FEAA5C",
"U. c #FEAB5C",
"Y. c #FEAB5D",
"T. c #FFAB5D",
"R. c #FCAC5C",
"E. c #FDAC5C",
"W. c #FDAC5D",
"Q. c #FEAC5C",
"!. c #FFAC5C",
"~. c #FEAD5C",
"^. c #FFAD5C",
"/. c #FEAC5D",
"(. c #FFAC5D",
"). c #FEAD5D",
"_. c #FFAD5D",
"`. c #FEAE5C",
"'. c #FEAE5D",
"]. c #FFAE5D",
"[. c #FEAF5D",
"{. c #FFAF5D",
"}. c #FEAC5E",
"|. c #FFAD5E",
" X c #FFAE5E",
".X c #FFAF5E",
"XX c #FFAE5F",
"oX c #FFAF5F",
"OX c #FFB05D",
"+X c #FEB05E",
"@X c #FFB05E",
"#X c #FFB15E",
"$X c #FEB05F",
"%X c #FFB05F",
"&X c #FFB15F",
"*X c #FFB25E",
"=X c #FFB25F",
"-X c #FFB35F",
";X c #FFAF60",
":X c #FFB060",
">X c #FFB160",
",X c #FFB161",
"<X c #FFB260",
"1X c #FFB360",
"2X c #FFB361",
"3X c #FFB460",
"4X c #FFB560",
"5X c #FFB461",
"6X c #FFB561",
/* pixels */
"_._._._._._._._._._._._._._._._._._._._._._._._._._._._._._._._._._._._._._._._._._._._._._._._._._.",
"_._._._._._._._._._._._._._._._._._._._._._._._._._._._._._._._._._._._._._._._._._._._._._._._._._.",
"_._._._._._._._._._._._._._._._._._._._._._._._._._._._._._._.{.{.{.]._._._._._._._._._._._._._._._.",
"_._._._._._._._._._._._._._._._._._._._._._._._._._._._._.].].OX#X@X.X X_._._._._._._._._._._._._._.",
"_._._._._._._._._._._._._._._._._._._._._._._._._._._._._.].{.#X=X=X%XoX X(.(.(._._._._._._._._._._.",
"_._._._._._._._._._._._._._._._._._._._._._._._._._._._._.].OX@X&X>X:X%X X_._._._._._._._._._._._._.",
"_._._._._._._._._._._._._._._._._._._._._._._._._._._._.].].].Q.Q.Y.)._. X{.@X.X XXX_._._._._._._._.",
"_._._._._._._._._._._._._._._._._._._._._._._._._._._..X@X.XT.k.2.$.e.N.{.=X3X-X:X%X.X_._._._._._._.",
"_._._._._._._._._._._._._._._._._._._._._._._._._._.].@X=X%XH.@.C v E 0.`.3X6X3X<X&X@X]._._._._._._.",
"_._._._._._._._._._._._._._._._._._._._._._._._._._.].%X1X&Xn.P w 3 g { K.<X2X>X.X.X X].].]._._._._.",
"_._._._._._._._._._._._._._._._._._._._._._._._._._. X%X<X%Xd.V < # r ^ Z.oXXXU.b.B.(.]..X.X]._._._.",
"_._._._._._._._._._._._._._._._._._._._._._._._._._..X>X,X;Xp.v > # r ^ v.(.z.,.' @.m.].%X%X.X]._._.",
"_._._._._._._._._._._._._._._._._._._._._._._._._._. X%X>XoXd.J 5 5 b >.M.c.[ n d Z 5.}.<X=X#X{._._.",
"_._._._._._._._._._._._._._._._._._._._._._._._._._.].%X&XoXM./ c m ] j.A.9.S 2 = u ` W.<X-X@X{._._.",
"_._._._._._._._._._._._._._._._._._._._._._._._._._.]..X%X.XS.-.[ X.g.Q.Q.&.g % X 5 ~ L.<X-X@X{._._.",
"_._._._._._._._._._._._._._._._._._._._._._._._._._._. X.X.X^.V.c.A.[.@X`.=.g ; $ e _ P.<X-X@X{._._.",
"_._._._._._._._._._._._._._._._._._._._._._._._._._._._.].].].].{.#X1X1X].q.A t w x $.W.>X=X@X{._._.",
"_._._._._._._._._._._._._._._._._._._._._._._._._._._._._.].].@X=X1X2X1X.Xc.| H G ^ w./.:X%X@X]._._.",
"_._._._._._._._._._._._._._._._._._._._._._._._._._._._._._._.@X=X=X<X<X@XQ.h.9.8.u.A._. X X]._._._.",
"_._._._._._._._._._._._._._._._._._._._._._._._._._._._._._._.].OXOX@X@X.X].^.~.Q.)._._._._._._._._.",
"_._._._._._._._._._._._._._._._._._._._._._._._._._._._._._._._._._. X].{.{.OX#X%X%X.X_._._._._._._.",
"_._._._._._._._._._._._._._._._._._._._._._._._._._._._._._._._._._._._.].{.@X%X&X&X.X_._._._._._._.",
"_._._._._._._._._._._._._._._. X X]._._._._._._._._._._._._._._._._._._._.]. X.X.X.X X_._._._._._._.",
"_._._._._._._._._._._._._._. XoX%X@X{._._._._._._._._._._._._._._._._._._._._._.]. X_._._._._._._._.",
"_._._._._._._._._._._._._. X%X<X<X<X@X]._._._._._._._._._._._._._._._._._._._._._._._._._._._._._._.",
"_._._._._._._._._._._._.]..X&X<X<X<X@X].]._._._._._._._._._._._._._._._._._._._._._._._._._._._._._.",
"_._._._._._._._.].]. X X{.@X.X+X.X.X.X.X{.{.].].]._._._._._._._._._._._._._._._._._._._._._._._._._.",
"_._._._._._._..X@X&X<X&X#X`.A.s.a.k.U..X&X&X&X%X.X{.]._._._._._._._._._._._._._._._._._._._._._._._.",
"_._._._._._._..X=X3X4X5X&XC.*.Q I ) y.'.1X5X3X=X@X{.].]._._._._._._._._._._._._._._._._._._._._._._.",
"_._._.].].].]..X$X=X3X5X%Xs.L a 6 l +.E.<X3X1X&X.X].].].]._._._._._._._._._._._._._._._._._._._._._.",
"_._._.{.{.OX]./.K.~.@X=XoXe.x ; + 0 ! Z.@XOX).U.U._.].].]._._._._._._._._._._._._._._._._._._._._._.",
"_._.{.OX*X#X/.a.%.-.b.).(.7.k & O 7 R x.Q.N.0.O.6.A.].OX]._._._._._._._._._._._._._._._._._._._._._.",
"_._.{.@X1X1XR.o.B N ) a.F.7.V 4 - i _ f.k.>.D z Y r._.@X.X]._._._._._._._._._._._._._._._._._._._._.",
"_._.].@X2X5XR.T 9 1 l } l.t.) j s F 3.l.9.K q , h 4./.%X%X.X]._._._._._._._._._._._._._._._._._._._.",
"_._.].@X2X5XJ.G - o 8 Y a.A.r. .' #.z.n.$.f @ . y @.~.>X>XoX X_._._._._._._._._._._._._._._._._._._.",
"_._.].@X2X2XD.C *   < F y._.).N.N.H.}.H.@.s O . r +.~.=X>X;X X_._._._._._._._._._._._._._._._._._._.",
"_._..X%X1X2XG.U 6 : p W c..X>X&X@X&X>X}.7.c < , g 1./.&X&XoXXX_._._._._._._._._._._._._._._._._._._.",
"_._.{.#X=X&XK.;.M l D ..A.%X2X5X5X5X1X{.s.( x z U r.Y..X@X@X]._._._._._._._._._._._._._._._._._._._.",
"_._.]..X@X.X/.l.<.} %.h.!.%X<X1X3X3X<X XH.i.:.o.7.m.(..X.X]._._._._._._._._._._._._._._._._._._._._.",
"_._._.].].]._.(.A.M.V.U._..X@X&X=X&X@X.X|.Y.F.Z.I.T._.].]._._._._._._._._._._._._._._._._._._._._._.",
"_._._._._._._. X X].].{.].].].{.{.]. X X.X X X.X X]._._._._._._._._._._._._._._._._._._._._._._._._.",
"_._._._._._.].@X%X%X%X.X]._._._._._._._..X%X%X%X@X{._._._._._._._._._._._._._._._._._._._._._._._._.",
"_._._._._._._..X%X%X%X].]._._._._._._._.].oX%X%X@X{._._._._._._._._._._._._._._._._._._._._._._._._.",
"_._._._._._._.].].].].]._._._._._._._._._._.].].]._._._._._._._._._._._._._._._._._._._._._._._._._.",
"_._._._._._._.]._._._.]._._._._._._._._._._._._._._._._._._._._._._._._._._._._._._._._._._._._._._.",
"_._._._._._._._._._._._._._._._._._._._._._._._._._._._._._._._._._._._._._._._._._._._._._._._._._.",
"_._._._._._._._._._._._._._._._._._._._._._._._._._._._._._._._._._._._._._._._._._._._._._._._._._.",
"_._._._._._._._._._._._._._._._._._._._._._._._._._._._._._._._._._._._._._._._._._._._._._._._._._.",
"_._._._._._._._._._._._._._._._._._._._._._._._._._._._._._._._._._._._._._._._._._._._._._._._._._.",
"_._._._._._._._._._._._._._._._._._._._._._._._._._._._._._._._._._._._._._._._._._._._._._._._._._."
};
