/* XPM */
static char *_8167_41b72707b3025b45a05c93f53b309b69a369fdad282b90ae968f13443d7a02f5[] = {
/* columns rows colors chars-per-pixel */
"50 50 255 2 ",
"   c #02020B",
".  c #0B0A0E",
"X  c #05050B",
"o  c #14090E",
"O  c #030312",
"+  c #050A14",
"@  c #0A0B13",
"#  c #000219",
"$  c #070D19",
"%  c #0E1115",
"&  c #0C141B",
"*  c #0D1A1E",
"=  c #03151A",
"-  c #121516",
";  c #111518",
":  c #141C1B",
">  c #1B1C19",
",  c #0A1608",
"<  c #251718",
"1  c #2F1011",
"2  c #06261B",
"3  c #1A241E",
"4  c #16241C",
"5  c #082202",
"6  c #27281B",
"7  c #34361C",
"8  c #2F3115",
"9  c #0C1C21",
"0  c #061B23",
"q  c #121C24",
"w  c #00082E",
"e  c #082527",
"r  c #142222",
"t  c #1D2B24",
"y  c #152B2B",
"u  c #1A2827",
"i  c #1A342D",
"p  c #172D36",
"a  c #0D3437",
"s  c #193B37",
"d  c #09312F",
"f  c #253829",
"g  c #243A37",
"h  c #2E312B",
"j  c #310F27",
"k  c #510B09",
"l  c #650609",
"z  c #45361B",
"x  c #772C10",
"c  c #6E1B2A",
"v  c #513427",
"b  c #693132",
"n  c #521F25",
"m  c #34481D",
"M  c #1A4539",
"N  c #114E36",
"B  c #2C432D",
"V  c #33472C",
"C  c #264539",
"Z  c #334D35",
"A  c #2A523B",
"S  c #365739",
"D  c #2A633E",
"F  c #1F6438",
"G  c #4F5016",
"H  c #516A13",
"J  c #575A22",
"K  c #514A32",
"L  c #765334",
"P  c #44683D",
"I  c #586E33",
"U  c #686823",
"Y  c #777826",
"T  c #696F2C",
"R  c #6E5303",
"E  c #1A3D41",
"W  c #2A3948",
"Q  c #0A1D5C",
"!  c #733051",
"~  c #1C4849",
"^  c #185E59",
"/  c #0C4D56",
"(  c #2A4848",
")  c #2B5948",
"_  c #335C44",
"`  c #2B5956",
"'  c #345B54",
"]  c #345B58",
"[  c #30484D",
"{  c #1C7559",
"}  c #13625B",
"|  c #386847",
" . c #276559",
".. c #3A645C",
"X. c #386659",
"o. c #387856",
"O. c #2D7351",
"+. c #376863",
"@. c #3D7865",
"#. c #174B7A",
"$. c #474B51",
"%. c #435641",
"&. c #426C45",
"*. c #487649",
"=. c #467A56",
"-. c #4D754A",
";. c #6A6E47",
":. c #477A68",
">. c #4D766A",
",. c #8F1F1A",
"<. c #B50915",
"1. c #903429",
"2. c #AF2F30",
"3. c #A8281A",
"4. c #C11A2D",
"5. c #CE3732",
"6. c #F02D2E",
"7. c #CD2B1F",
"8. c #BA5512",
"9. c #8B7313",
"0. c #885833",
"q. c #B54C2C",
"w. c #8E6B31",
"e. c #A8611B",
"r. c #D34F33",
"t. c #D26F36",
"y. c #FD7437",
"u. c #F75B29",
"i. c #8D3E44",
"p. c #DB3848",
"a. c #A24E45",
"s. c #B57447",
"d. c #8D5743",
"f. c #F3534B",
"g. c #FB7346",
"h. c #DF6A54",
"j. c #558C3B",
"k. c #788D3A",
"l. c #7A933D",
"z. c #718B2C",
"x. c #398555",
"c. c #3D8C64",
"v. c #4C814E",
"b. c #4A894C",
"n. c #54854C",
"m. c #548A4D",
"M. c #5B8C4B",
"N. c #598848",
"B. c #5C924C",
"V. c #57954E",
"C. c #458254",
"Z. c #4B8452",
"A. c #4D8B5A",
"S. c #4C8A55",
"D. c #548B54",
"F. c #588D54",
"G. c #5C9354",
"H. c #569658",
"J. c #4C9750",
"K. c #678B43",
"L. c #758A43",
"P. c #62924B",
"I. c #6A9749",
"U. c #779842",
"Y. c #649C55",
"T. c #619855",
"R. c #6AA559",
"E. c #6AA559",
"W. c #76AB57",
"Q. c #77AB50",
"!. c #4C9561",
"~. c #559666",
"^. c #508C6D",
"/. c #5AA364",
"(. c #72B261",
"). c #909017",
"_. c #A8911A",
"`. c #A7A516",
"'. c #BCA91D",
"]. c #BFB119",
"[. c #9B9C2D",
"{. c #959529",
"}. c #869737",
"|. c #949C32",
" X c #909435",
".X c #898D26",
"XX c #A59E29",
"oX c #A79B25",
"OX c #B58C2D",
"+X c #97A537",
"@X c #99B132",
"#X c #AEA426",
"$X c #A6A02A",
"%X c #AAA329",
"&X c #ACAA29",
"*X c #B4A524",
"=X c #BAA621",
"-X c #BDAA21",
";X c #B3AA2A",
":X c #B4AB25",
">X c #ADB527",
",X c #BDB52A",
"<X c #B7B728",
"1X c #A9B739",
"2X c #AAAC33",
"3X c #98A316",
"4X c #C3AA1D",
"5X c #CBAC1A",
"6X c #CAA616",
"7X c #D0B31B",
"8X c #E1B915",
"9X c #F69629",
"0X c #C4AE21",
"qX c #C5BB2B",
"wX c #CBBD2A",
"eX c #C5B626",
"rX c #D1B827",
"tX c #EFAA2E",
"yX c #C5951B",
"uX c #B6C338",
"iX c #AAC53A",
"pX c #E9C41A",
"aX c #CAC22A",
"sX c #D4C62A",
"dX c #D3CD32",
"fX c #F7D030",
"gX c #FDE531",
"hX c #8E8E4B",
"jX c #88B349",
"kX c #92B549",
"lX c #89B14E",
"zX c #ACBE42",
"xX c #A69F59",
"cX c #F0934D",
"vX c #FFA857",
"bX c #FFB65C",
"nX c #E3A270",
"mX c #96C454",
"MX c #89C251",
"NX c #AAC944",
"BX c #B3C341",
"VX c #C8D048",
"CX c #F4CB65",
"ZX c #6375B5",
"AX c #174A95",
"SX c #F66D8D",
"DX c #5B91C0",
"FX c #BF81B3",
"GX c #FFA6B7",
"HX c #A5C1BA",
"JX c #F2DBA6",
"KX c #BDC2EB",
"LX c #F5F0E6",
"PX c #F9CAE8",
"IX c None",
/* pixels */
"IXIXIXIXIXIXIXIXIXIXIXIXIXIXIXIXIXIXIXIXIXIXIXIXIX% & % % @ $ $ & & & * IXIXIXIXIXIXIXIXIXIXIXIXIXIX",
"IXIXIXIXIXIXIXIXIXIXIXIXIXIXIXIXIXIXIXIXIXIXIXIXIX& : : * & * * 0 9 * * IXIXIXIXIXIXIXIXIXIXIXIXIXIX",
"IXIXIXIXIXIXIXIXIXIXIXIXIXIXIXIXIXIXIXIXIXIXIXIX& 4 t i i y y i i y t r IXIXIXIXIXIXIXIXIXIXIXIXIXIX",
"IXIXIXIXIXIXIXIXIXIXIXIX# # # # # O # # O O O # 9 g A S D _ | ) | _ C f : @ + + @ IXIXIXIXIXIXIXIXIX",
"IXIXIXIXIXIXIXIXIXIXIX$ # # # # # # # # O   O $ i _ o.A.D.A.H.H.H.D.&.g : + + + % ; IXIXIXIXIXIXIXIX",
"IXIXIXIXIXIXIXIXIXIX& & : : q ; : & % # . o > f A *.!./.(.(.MXmXmXU.I V > + % r t f 3 IXIXIXIXIXIXIX",
"IXIXIXIXIXIXIXIXIX# & 7 J U U U J J G G G G J K *.C.!./.(.kXNXVXVXzXY G > @ r i S S B 3 IXIXIXIXIXIX",
"IXIXIXIXIXIXIXIX# $ 7 U XX;X;X2XXX[.oXoX_.oX_.}.K.S.A.F.lXzXdXVXdX,X.XG 3 & y A &.&.S f ; . IXIXIXIX",
"IXIXIXIXIXIXIXO O 7 Y XXwXdXdXsXqXqXqXwXsXrX,X2XhXP.P.K.}.;XwXpXsX-X.XJ t e d ( | *.&.S t - @ IXIXIX",
"IXIXIXIXIXIXO + 7 Y %XqXsXdXsXsXaXwXqXqXrXwXwX;X@X}.k.}.[.*XeXqX<X2Xk.I C a a a C D | S V f 3 ; IXIX",
"IXIXIXIXIXO @ 7 w.;XqXwXwXqXqX,XeX,X,XqXqXeXeX;X&X+X[.XXoX*X*X%X+XU.P.v.| ( d d d s A &.&.S f 3 - @ ",
"IXIXIXIX# 9 7 Y :XwXwXqX;X;X%X;X%X;X;X#X;X;X;X;X%X%X*X'.0X*XXX}.K.!.!.!.S.| B t r f S *.n.*.Z t % @ ",
"IXIXIX$ 0 f T @XaXaXwX,X#XXXXXXX%X%X%X%X%X%X%X#X#X*X4X4X4X*X[.L.Z.c.c.~.T.K.T G z G P -.G.b.S t % @ ",
"$ $ 0 e M &.hX1XqXwXeX-X#XXXXXXXXXXXXXXXXX%XXXXX#X*X=X4X4X*X{.K.C.c.c.H.lX|.{.9.Y Y k.Y.G.*.A t @ O ",
"= 9 r M | Y.kX1XqXrX4X:X#XXXXXXX%XXXXXXXXXXXoXXXXX#X:X'.-X*X|.L.-.C.H.I.hX;X0X6X=X%XkXU.G.o.C q @ O ",
"9 9 p _ A.(.mXVXeX4X4X*XoXXXXXXXXXXXXX%XXX%X%XXX%X#X*X*X*X#X[.l.P.M.K.l.%X0X8X8XpXaXzXlXG.| M * + O ",
"* r i | H.(.mXiXqX0X4X=X#X$X$X%X#X%X%X%X%X&X$X$X%X%X#X*X*X#XXX X}.l.}.[.*X5X8XpXpXdXBXlXG.| s * O O ",
"* r i D J.E.mXmX<XeX0X].-X;X;X>X&X%X&X&X%X%X%X#X#X#X#X*X*X#X%X$X[.XXXXoX=X4X7X8XsXqXzXlXB.| s = + O ",
"* * y C | V.I.@X@XuX,XqXqXqX].,X<X>X&X&X>X`.:X:X*X:X=X=X=X*X=X=X=X4X4X4X4X4X4X0X:X1XkXQ.G.| s 9 O + ",
"& & * y M _ v.I.Q.@XuXaXaXsXsXaXqXuX>X>X>X:X<X-X'.-X-X=X=X=X0X4X5X5X5X5X5X'.*XXX+XhXQ.Y.G.| B : . O ",
"IXIX+ = 0 d A o.E.jXiXuXaXaX7XaXaX<X<XuX>X].-X0X'.'.:X'.'.=X=X0X4X5X7X5X4X*XXX Xl.I.R.H.H.&.B q O O ",
"IXIXIX# # $ a _ M.Q.@X@X3X3X3X`.`.`.`.].:X:X;X%X&X:X#X'.*X#X#X*X*X-X'.'.*X$X Xk.P.H.~./.V.*.B : @ + ",
"IXIXIXIXO O w $.;.hXhXz.H H H R R 9._.t.OX[. X}.}.}.|.+X+X|.|.|.}.|.[.[.[. Xk.P.F.A.!.H.D.P V : . O ",
"IXIXIXIXO O j b a.q.L K 8 5 , , z x 8.8.t.w.;.-.n.j.K.l.l.K.k.L.k.k.l.l.L.k.K.m.F.H.~.H.G.*.V 4 @ O ",
"IXIXIXIX+ j c 2.7.2.c 1 O O # @ j ,.4.6.2.i.[ `  .x.b.M.M.N.n.n.N.n.N.N.N.n.n.n.D.H.H.Y.G.*.V : . O ",
"IXIXIX2 6 G q.5.6.<.l o # w Q Q ! p.6.6.4.i.W #.} { x.S.m.S.C.C.C.C.=.C.v.=.Z.n.D.T.Y.Y.G.-.V : . O ",
"IXIX2 f J w.t.u.6.<.k X w Q AXZXFXSXf.p.4.c W E } { x.S.D.Z.Z.C.=.=.C.=.C.v.v.v.D.P.Y.Y.P.-.V : . O ",
"* 2 m H {.tXtXy.6.<.k X w #.DXKXPXGXh.p.4.c W / } { x.b.m.m.Z.Z.Z.Z.v.Z.*.Z.v.v.F.T.R.E.Y.-.Z 3 @ O ",
"4 4 m z.<XfXfXtXu.3.l o i ^.HXLXLXGXnXf.1.b Z `  .o.Z.M.M.m.n.n.n.n.n.n.n.-.n.n.M.T.R.W.R.n.Z > @ O ",
"4 3 G .XaXgXgXtX9X8.e.x U Q.JXJXLXJXnXs.0.K %.| o.C.n.n.M.M.n.n.n.n.n.n.n.n.N.n.F.Y.E.(.E.n.Z t @ . ",
"- 4 m z.>XgXgXgX8XyX9.)._.;XVXCXCXnXxX;.I -.*.*.b.b.n.M.N.N.M.M.M.n.n.M.M.M.F.F.T.Y.(.(.Y.n.V u - @ ",
"- 4 7 J .XaXdXdXsXaXeX'.].].].iXiX@XU.P.m.b.m.N.N.M.K.P.P.P.M.M.M.M.M.M.B.M.P.Y.Y.R.E.Y.P.P B u ; % ",
"% & 3 7 J z.+XiXNXiXiXuX>X>X`.3Xz.z.j.J.J.J.V.B.I.I.B.B.B.M.M.M.B.M.B.M.P.P.Y.R.E.E.Y.M.P V t : ; - ",
"IXIXo > 6 G I U.MXMXmXMX@X}.z.z.z.j.j.J.J.E.V.B.V.B.B.B.m.B.B.B.B.M.B.B.T.Y.Y.E.E.Y.N.P f t : & IXIX",
"IXIXIX@ @ : B P V.E.(.E.E.I.I.j.I b.b.S.J.J.J.H.J.J.b.b.b.J.D.J.F.F.M.M.F.T.Y.Y.T.N.P f : @ @ IXIXIX",
"IXIXIXIXO O 2 i | C.!.!.H.!.b.b.=.*.*.=.j.J.S.J.S.x.x.x.x.x.x.S.S.D.D.D.F.F.F.D.-.P f : @ @ IXIXIXIX",
"IXIXIXIXIXO + * i ( X.+.@.@.@.+...&...&...=.=.@.o.{ { { { { { @.x.:.=.:.=.=.*.&.Z f : @ @ IXIXIXIXIX",
"IXIXIXIXIXIX+ $ * y C ` +.+.+.+.] ] ..] ] ` ` `  . .` ^ ^ ^ ^  . ...+.+...] [ g 3 - % @ IXIXIXIXIXIX",
"IXIXIXIXIXIXIX@ . % q W ~ ` ` ] ..=.X.X.` ~ E E ( [ $.$.$.[ W ~ ~ ` ` ....' C u - X . IXIXIXIXIXIXIX",
"IXIXIXIXIXIXIXIX+ + $ q E W ` ] :.=.=.o.) N a p h ! i.a.a.i.! n p p ~  .o.=._ f -     IXIXIXIXIXIXIX",
"IXIXIXIXIXIXIXIXIXIX. @ q p [ ] >.^.~.C.) N 2 > n 1.r.f.f.r.2.c < r d O.=.D.&.V >     IXIXIXIXIXIXIX",
"IXIXIXIXIXIXIXIXIXIX. . % r W ..^.~.~.A.F 2 = 1 c q.f.g.g.y.r.,.k % 2 N x.A.-.Z 6 @ . IXIXIXIXIXIXIX",
"IXIXIXIXIXIXIXIXIXIXIXX . q E =.^.^.~.o.F 2 = 1 x r.cXvXvXcXu.3.k . 2 N o.A.=.S t - . IXIXIXIXIXIXIX",
"IXIXIXIXIXIXIXIXIXIXIX. @ q W ] ^.^.^.o.N 2 , < 0.t.vXbXCXbXcXr.n - 2 a  .o.&._ t ; @ IXIXIXIXIXIXIX",
"IXIXIXIXIXIXIXIXIXIXIX. - : g ' >.:.:.+.~ 0 + < x s.cXbXCXvXcXq.x q e a ~ ` ) g t ; % IXIXIXIXIXIXIX",
"IXIXIXIXIXIXIXIXIXIXIX% - : t g ' ..+. ./ e = - v 0.OXcXcXcXs.0.K f a a E E g u q : IXIXIXIXIXIXIXIX",
"IXIXIXIXIXIXIXIXIXIXIXIX; ; q t ( ' +.] ~ d = % < v L 0.w.0.d.K K ( E s p y u r > IXIXIXIXIXIXIXIXIX",
"IXIXIXIXIXIXIXIXIXIXIXIXIXIX- : u ( ] ] ` a 9 + , - < 6 7 h V Z ' ] [ E y q ; ; IXIXIXIXIXIXIXIXIXIX",
"IXIXIXIXIXIXIXIXIXIXIXIXIXIX. % 4 g ' &.] E 9 +         X , e M `  .` g y ; @ IXIXIXIXIXIXIXIXIXIXIX",
"IXIXIXIXIXIXIXIXIXIXIXIXIXIX. . : f ' +.] W 2 O           + e s ` ..' g r - . IXIXIXIXIXIXIXIXIXIXIX"
};
