/* XPM */
static char *_3965_77c210fe9c042df1753899214f3201baa653f60a1701bae0bf957db0c7821ede[] = {
/* columns rows colors chars-per-pixel */
"50 50 230 2 ",
"   c #09070D",
".  c #08170D",
"X  c #030A15",
"o  c #0C0E14",
"O  c #040C19",
"+  c #020416",
"@  c #001217",
"#  c #0D141A",
"$  c #0A1818",
"%  c #111415",
"&  c #101519",
"*  c #141B1B",
"=  c #1A1C1C",
"-  c #191817",
";  c #37181A",
":  c #2F1416",
">  c #09251D",
",  c #1A221D",
"<  c #17201E",
"1  c #353D0C",
"2  c #27291C",
"3  c #332219",
"4  c #31351E",
"5  c #36391D",
"6  c #2F331E",
"7  c #06182A",
"8  c #1D2C24",
"9  c #1D2D2D",
"0  c #162221",
"q  c #173728",
"w  c #17293A",
"e  c #202E24",
"r  c #212E2B",
"t  c #362A22",
"y  c #233426",
"u  c #263A2A",
"i  c #273929",
"p  c #203330",
"a  c #393723",
"s  c #4C191B",
"d  c #551D1C",
"f  c #412E12",
"g  c #783019",
"h  c #472822",
"j  c #552722",
"k  c #493728",
"l  c #533A27",
"z  c #4A373F",
"x  c #793228",
"c  c #3F461C",
"v  c #1D4033",
"b  c #2D432D",
"n  c #354B2D",
"m  c #2A4639",
"M  c #324C31",
"N  c #365435",
"B  c #385636",
"V  c #3C5B36",
"C  c #3D5E39",
"Z  c #32553A",
"A  c #2B5536",
"S  c #3D613C",
"D  c #4C4715",
"F  c #63581A",
"G  c #76761D",
"H  c #575721",
"J  c #43493A",
"K  c #4F4F2F",
"L  c #77522E",
"P  c #45683D",
"I  c #546F38",
"U  c #616022",
"Y  c #6A6823",
"T  c #7B7A25",
"R  c #686B35",
"E  c #1B314C",
"W  c #294742",
"Q  c #32554C",
"!  c #255653",
"~  c #335552",
"^  c #345B53",
"/  c #395D55",
"(  c #3D4E49",
")  c #396546",
"_  c #3C794E",
"`  c #2A6453",
"'  c #366156",
"]  c #3B6453",
"[  c #3D6B53",
"{  c #376058",
"}  c #346955",
"|  c #3D7154",
" . c #3B7755",
".. c #2D4265",
"X. c #4E574E",
"o. c #6B564B",
"O. c #6B4F4C",
"+. c #456E45",
"@. c #4B7544",
"#. c #4E7A46",
"$. c #4C7C4D",
"%. c #48754C",
"&. c #517C45",
"*. c #51794D",
"=. c #446A51",
"-. c #427B54",
";. c #4B7E50",
":. c #497750",
">. c #696849",
",. c #6A7647",
"<. c #71654A",
"1. c #9B2A24",
"2. c #86342B",
"3. c #8F3128",
"4. c #844E15",
"5. c #887B1D",
"6. c #9D7E1F",
"7. c #8B432C",
"8. c #985837",
"9. c #895335",
"0. c #BA482B",
"q. c #AC532E",
"w. c #827C23",
"e. c #9B6A3D",
"r. c #9A6D30",
"t. c #B36C34",
"y. c #C74836",
"u. c #D74C37",
"i. c #D34F35",
"p. c #E85036",
"a. c #CE6A2E",
"s. c #F6633E",
"d. c #AB5542",
"f. c #B15743",
"g. c #8A7847",
"h. c #817451",
"j. c #B17347",
"k. c #BC7A77",
"l. c #D65A41",
"z. c #CE7547",
"x. c #FF6A44",
"c. c #E77646",
"v. c #E9694D",
"b. c #FE5A40",
"n. c #79912C",
"m. c #768937",
"M. c #799839",
"N. c #4E824F",
"B. c #54844B",
"V. c #56884F",
"C. c #598A4D",
"Z. c #5C8348",
"A. c #5E904D",
"S. c #488555",
"D. c #518452",
"F. c #558B52",
"G. c #5A8E50",
"H. c #5D9353",
"J. c #579357",
"K. c #638D46",
"L. c #688843",
"P. c #708A41",
"I. c #68964B",
"U. c #749744",
"Y. c #649953",
"T. c #68A55B",
"R. c #92971E",
"E. c #8E951B",
"W. c #888426",
"Q. c #918B27",
"!. c #918228",
"~. c #8D9D2C",
"^. c #989929",
"/. c #958D36",
"(. c #8C9B34",
"). c #879B37",
"_. c #919337",
"`. c #A9882A",
"'. c #B68828",
"]. c #A79F29",
"[. c #A89F28",
"{. c #A2833A",
"}. c #9CA42C",
"|. c #89A13C",
" X c #9BA232",
".X c #96A533",
"XX c #ADA327",
"oX c #A5A22A",
"OX c #A9A229",
"+X c #ADAA29",
"@X c #A5AB28",
"#X c #B2A525",
"$X c #B2AB2A",
"%X c #B8AF2A",
"&X c #B7AA26",
"*X c #BAB12B",
"=X c #B9B028",
"-X c #A4AA33",
";X c #C29F31",
":X c #D3993E",
">X c #C2B62A",
",X c #CFAD35",
"<X c #86A343",
"1X c #AFA856",
"2X c #D7894A",
"3X c #C38350",
"4X c #E18848",
"5X c #FF874C",
"6X c #E7924E",
"7X c #FE9853",
"8X c #F39352",
"9X c #FDA555",
"0X c #EBB151",
"qX c #FA976F",
"wX c #FEB474",
"eX c #DAC159",
"rX c #D4C56D",
"tX c #5F6B8A",
"yX c #647797",
"uX c #917E8F",
"iX c #A7AB89",
"pX c #909EA7",
"aX c #EBB9AA",
"sX c #F7DA93",
"dX c #F3DEB8",
"fX c #FDEDBB",
"gX c #B0B5D0",
"hX c #DBCAD5",
"jX c #F1EBE8",
"kX c None",
/* pixels */
"kXkXkXkXkXkXkXkXkXkXkXkXkXkXkXkXkXkXkXkXkXkXkXkXkXkXkXkXkXkXkXkXkXkXkXkXkX* * * * * * * * * * kXkXkX",
"kXkXkXkXkXkXkXkXkXkXkXkXkXkXkXkXkXkXkXkXkXkXkXkXkXkXkXkXkXkXkXkXkXkXkXkXkX* < < * < < * * * * kXkXkX",
"kXkXkXkXkXkXkXkXkXkXkXkXkXkXkXkXkXkXkXkXkXkXkXkXkXkXkXkXkXkXkXkXkXkXkXkX0 9 u b b b i , , * & kXkXkX",
"kXkXkXkXkXkXkXkXkXkXkXO O O O O O O O O O O O O O O O O O O O O O + + O 8 b S P P P V b 8 * & kXkXkX",
"kXkXkXkXkXkXkXkXkXkX# & # $ # # # # # # # # # # # # # # # # # & o X X & u C $.G.H.C.@.N 8 $ # kXkXkX",
"kXkXkXkXkXkXkXkXkXkXe 4 4 a 4 4 4 4 4 4 4 4 4 4 4 4 4 6 4 4 4 4 6 6 6 5 K @.C.T.T.Y.B.C y * o kXkXkX",
"kXkXkXkXkXkXkXkXO 2 n H Y Y U U U U U U U U U U U U U U U U U U U U U U I Z.G.Y.T.T.C.S 8 o X o * * ",
"kXkXkXkXkXkXkX+ o 4 F W.].^.Q.Q.Q.Q.Q.Q.Q.Q.Q.Q.Q.Q.Q.Q.Q.Q.Q.Q.Q.Q.Q.W.n.m.C.F.T.H.B.B 2 o   o * * ",
"kXkXkXkXkXkX# # 2 D T OX>X*X*X$X$X$X$X$X$X$X$X$X$X$X$X$X$X$X$X$X$X=X&X$X_.U.C.N.D.B.@.B i , & & * * ",
"kXkXkXkXkXkX2 5 H T ^.$X>X>X*X*X%X%X%X%X%X%X%X%X%X%X%X%X%X%X%X$X%X>X>X&X.XU.B._ ) B M M M b i e * * ",
"kXkXkXkX+ - 5 U w.^.].OX$X$XXX+X$XOX$XOX$XOX+XXXOX$XOX$XOX$X$XOXXX%X$XOX|.U.F.] m 8 e b P +.B u , * ",
"kXkXkXO # 2 H w.OX*X$XOXOXOXOX].].OXOXOX].OXOXOXOXOXOXOXOXOXOXOXXXXX#XoX(.U.A.) u < = M @.&.+.b < * ",
"kXkXkX0 8 n R ^.*X>X%XOXOX].OXOXOX].OXOXOX].OX].].oX].OXOXOX].OXOXXXXX]..X).P.I n i u S V.Y.#.M < * ",
"* * 8 q M P m.^.%X>X$XOXOX].].OXOXOXOX].OX].OXoXOXOXOXOX].OXOXOXOXXXOX]. X X).m.I P S N.H.Y.@.M , * ",
"* * e M ) K.M. XOX#XXXOXOXOXOXOX].OXOXOXOXOXOX].OX].].OXoXOX].OX].OXOXXX[.XXoX(.m.Z.N.F.H.C.+.b < * ",
"* * y Q N.T.<X XOX#XXXOXOX].oX].OXOXOX].OX].oXOXOXOXOXOX].].OXOXOXOX].[.#X&X#X^.M.Z.$.$.#.@.B u * * ",
"* * y Z $.I.<X-X#X#XXX[.OXOX[.[.oXOX].OX[.OXOXOXoXOXOXOXOXOXOXOXOXOXoX[.#X=X&X^.T K A m N M b e * * ",
"* < 9 Z %.I.<X X#X#XXXOX[.OX@X[.].OXOXOXOXOXOX[.OX[.OXOXoX[.oX[.OXOXoXOX&X>X&XW.H a 7 > 8 e 8 * * * ",
"* * e Z %.I.<X_.OXXXXXoXOXOX@XXXOXOXOXOX[.OX[.OXoXOXOXOXOXOXOXOXXXoXXX[.#X%XoXT H 2 # O # & & * * * ",
"* * 8 Z @.A.I.).~.}.}.@XXX@X+X&X$X$X$X+X@X@X@X@X@XoX@XXX$X$X&X+X+X#X@X@X@X X|.m.I n 8 # # o o & * * ",
"* * y N @.A.Y.I.m.|.~.}.@X#X=X&X%X*X=X+X+X@X@X}.@X@X@X$X=X*X*X*X&X&X@X}..X).U.Z.&.P N u , $ o & kXkX",
"* * y N #.G.F.D.V.P.).@X#X#X@XXXXXXXXXoXOX@XOXXXOXOXOXXXOXOX@XOX[.#X#X@X(.U.C.D.F.C.@.B y * o kXkXkX",
"* * y N &.J.S. . .L./.`.'.6.5.G T T w.W.`.`.'.'.'.`.!.!.T T G G 5.6.'.`./.,.:.S.J.H.C.S y * o kXkXkX",
"* * y V &.F.S. .[ >.d.t.a.4.f 1 1 c H L 8.t.a.a.a.t.r.L H D 1 1 D 4.q.t.e.>.[  .S.J.B.S y * o kXkXkX",
"* * y V &.F.S.} / o.8.i.0.g ;   . * e l 7.0.p.p.p.0.7.l e * . . 3 g 0.y.d.o./ } S.F.&.V y & # kXkXkX",
"* * y V &.V. .` ~ O.f.u.l.7.z w 7 O O ; 2.y.p.x.s.y.2.; o O 7 w z 2.y.l.d.O.^ `  .V.&.V y * o kXkXkX",
"* * y V #.F. .` ~ O.d.s.v.uXuXtX..7 + : 2.l.x.x.x.l.2.: + 7 ..tXuXk.v.v.f.o.~ !  .F.&.V y * o kXkXkX",
"* * y V #.D. .` ^ o.e.c.qXaXhXgXyXE @ : 7.c.5X7X5Xc.7.: O E yXgXhXaXqXc.f.o.~ `  .F.&.V y - o kXkXkX",
"* * y V #.F. .` / >.t.6XwXdXjXjXpX/ 8 h 8.:X9X9X9X2X9.f 0 X.pXjXjXfXsX4Xt.>./ ` -.F.#.V y * o kXkXkX",
"* * y V B.H.S.| =.>./.2XwXsXfXdXiX>.D F r.:X0X0X0X:X6.F D >.iXhXfXsX9X:X/.,.=.| S.H.B.C y & o kXkXkX",
"* * y C B.H.J.-.$.P./.;X,XeXrXrX1X/.w.5.`.;X;X,X;X;X`.5.T _.1XrXrX0X,X;X/.P.$.;.J.H.B.V i * o kXkXkX",
"* * y V #.H.J.F.V.P._.OX#XXX$XOX].[.[.[.[.[.#X#X#X#X[.].].].oX@X$X$X%X]._.P.B.D.J.H.&.V y * o kXkXkX",
"* * 8 b V I N.F.A.I.M.~.~.R.R.R.^.@X@X-X X.X~.~.~.~..X X-X@X^.R.E.R.}.~.M.U.H.C.B.#.S b 8 * % kXkXkX",
"kXkX, e b B +.B.Y.I.U.M.n.n.n.n.M.).|.<XM.M.M.M.n.M.).<X|.|.n.n.n.n.n.M.U.I.Y.B.+.B b , , kXkXkXkXkX",
"kXkXkX* < y B @.A.H.A.A.K.K.K.K.K.K.K.K.K.K.K.A.K.K.K.K.K.K.K.K.m.A.A.A.Y.Y.H.%.B 6 < * kXkXkXkXkXkX",
"kXkXkXX X < u V B.B.B.N.$.S.N.N.;.;.N.$.$.N.;.;.;.N.-.N.;.;.$.$._ ;.N.#.N.B.#.S v >   X kXkXkXkXkXkX",
"kXkXkXkXX @ > v A ) ) [ | | | | [ [ [ [ [ [ [ [ [ [ [ [ [ [ | | | | =.[ ) ) A q > @ X kXkXkXkXkXkXkX",
"kXkXkXkX@ @ $ $ > v W ^ } ] ] ] ] / ^ ' ' ^ / ^ ' ^ ' ^ ^ ' ] ] ' [ } ^ W v 0 > $ @ @ kXkXkXkXkXkXkX",
"kXkXkX= = = - % < 9 m ~ ' ' ~ ~ ^ ^ ^ ^ ^ ^ ^ ^ ^ ^ ~ ~ ^ ~ ~ ~ ^ ' ' ~ W 9 = - * = = = kXkXkXkXkXkX",
"kXkXkXt h j d s s k J ] } } ~ ~ ^ / ) [ ] [ [ =.[ [ [ [ [ ] ^ Q ~ { } ] B k s s d j h 3 kXkXkXkXkXkX",
"* * 2 j 2.1.1.1.2.L o.&.-.} ^ ~ ] =.$.&.D.;.;.D.D.;.D.*.$.=.] ~ ~ [  .*.K L 3.1.1.3.x j t & kXkXkXkX",
"* = 3 x 0.u.p.u.y.8.g.*.S.} ] ^ ] %.C.C.C.V.F.F.V.V.V.C.C.$.) / ' } S.Z.g.q.y.u.p.u.0.x t # @ kXkXkX",
"* * h 7.i.s.s.s.s.z.g.K._ } ^ ^ [ %.N.B.&.#.@.I @.@.&.B.B.:.] ^ ^ } _ C.g.z.c.s.s.x.i.7.k # @ kXkXkX",
"* * k 9.s.5X7X5Xx.3Xg.*.` ` Q ^ ' =.%.+.C B n b n N C +.:.=.] ^ Q ` } *.h.z.x.5X5X5Xc.8.k # @ kXkXkX",
"* * k 8.4X9X9X7X8X3X<.=.` ! ! Q { { { Q m e , = , e u Q ' } ' ^ ` ! ! [ h.3X7X7X9X9Xz.e.k $ O kXkXkX",
"* * k L j.6X6X6X3X3X<.X.! ! ! ) / { ~ W 9 & o   o & 9 W ~ { / ^ Q ! ! Q >.j.2X6X6X6Xz.9.h $ @ kXkXkX",
"* * t K 9.e.e.e.e.<.X.Q ! ! ^ ^ ^ / ~ W 9 #       & 9 W ~ ^ / ^ ^ ! ! Q X.<.e.e.e.e.9.K t * kXkXkXkX",
"kXkXkXt k l K l k J ( ^ ^ ^ ^ ^ / / ~ W 9 * o   o & 9 W ~ { ' ^ ^ ^ / ~ ( n k l l K k t kXkXkXkXkXkX",
"kXkXkX* * * & % * p m ~ / / ^ ^ / { ^ W p 0 % o % < 9 W ^ { ' ^ ^ { { ~ m 9 * % % * * * kXkXkXkXkXkX",
"kXkXkX* * * & % * r W Q { { ^ ^ { { ^ W p 0 % o % = p m ^ { ' ^ / / { ~ W 9 * % * * * * kXkXkXkXkXkX"
};
