/* XPM */
static char *_381_87a2dd7eb7d3c47f9bec03ce995fa66a9ca4c0c80aa40360623bf89ea965a01e[] = {
/* columns rows colors chars-per-pixel */
"50 50 228 2 ",
"   c #030914",
".  c #0B0E15",
"X  c #000319",
"o  c #050D1A",
"O  c #090E18",
"+  c #030616",
"@  c #001317",
"#  c #0E1117",
"$  c #031519",
"%  c #0A111A",
"&  c #071A1A",
"*  c #121415",
"=  c #111619",
"-  c #141B1B",
";  c #1A1C1B",
":  c #191917",
">  c #231F1D",
",  c #09231D",
"<  c #1C231C",
"1  c #17201D",
"2  c #22241B",
"3  c #2C211E",
"4  c #262C1D",
"5  c #292D1C",
"6  c #32231F",
"7  c #38271A",
"8  c #2E321E",
"9  c #32351C",
"0  c #3A3C1E",
"q  c #36371C",
"w  c #0E1C22",
"e  c #151E20",
"r  c #192423",
"t  c #1D2A23",
"y  c #182726",
"u  c #1E312D",
"i  c #173929",
"p  c #15352B",
"a  c #212F28",
"s  c #3A2520",
"d  c #3E2822",
"f  c #233326",
"g  c #263A29",
"h  c #213635",
"j  c #253D3B",
"k  c #243938",
"l  c #3C342F",
"z  c #531B1B",
"x  c #4D1D1C",
"c  c #43221D",
"v  c #58221D",
"b  c #422721",
"n  c #492923",
"m  c #592B23",
"M  c #47372E",
"N  c #662F26",
"B  c #6F3327",
"V  c #783428",
"C  c #6B3C32",
"Z  c #3E401E",
"A  c #1F4134",
"S  c #3B4A29",
"D  c #274835",
"F  c #324C31",
"G  c #38423C",
"H  c #2D5337",
"J  c #365335",
"K  c #385636",
"L  c #3A5837",
"P  c #35593B",
"I  c #2E462F",
"U  c #3E613C",
"Y  c #4D4B1D",
"T  c #5D5A1F",
"R  c #59541D",
"E  c #675D1B",
"W  c #69631E",
"Q  c #71691E",
"!  c #494C21",
"~  c #555621",
"^  c #5B5B21",
"/  c #585821",
"(  c #474E34",
")  c #7C4933",
"_  c #684F3A",
"`  c #46673C",
"'  c #58743A",
"]  c #5A6128",
"[  c #6A6A25",
"{  c #797725",
"}  c #6D7128",
"|  c #294541",
" . c #2D4E4B",
".. c #2B4945",
"X. c #2D514B",
"o. c #31524B",
"O. c #37554D",
"+. c #255B55",
"@. c #2B5B55",
"#. c #315652",
"$. c #345B53",
"%. c #395F51",
"&. c #374742",
"*. c #3A6747",
"=. c #2A6653",
"-. c #346254",
";. c #3C6452",
":. c #356C53",
">. c #3D6952",
",. c #376158",
"<. c #386158",
"1. c #387552",
"2. c #465B4C",
"3. c #544B44",
"4. c #715546",
"5. c #456D42",
"6. c #436E4F",
"7. c #486F42",
"8. c #4A7344",
"9. c #4E7846",
"0. c #46724E",
"q. c #4A754D",
"w. c #4C7B4D",
"e. c #43784A",
"r. c #517C4A",
"t. c #567348",
"y. c #497551",
"u. c #4A7855",
"i. c #467551",
"p. c #4F6C4E",
"a. c #677245",
"s. c #893729",
"d. c #97372A",
"f. c #9A2F26",
"g. c #A23A2B",
"h. c #934A3B",
"j. c #B84531",
"k. c #B6563B",
"l. c #A74B37",
"z. c #827E25",
"x. c #B0623D",
"c. c #C84833",
"v. c #D24932",
"b. c #DA4A34",
"n. c #CB5D3D",
"m. c #D44931",
"M. c #E64A34",
"N. c #FF4F37",
"B. c #EA5338",
"V. c #FE5236",
"C. c #FE5539",
"Z. c #F85539",
"A. c #855946",
"S. c #BB5F40",
"D. c #886D44",
"F. c #976B44",
"G. c #857644",
"H. c #758A39",
"J. c #76913F",
"K. c #7C933C",
"L. c #4F844F",
"P. c #47854F",
"I. c #55854C",
"U. c #5A864B",
"Y. c #57884C",
"T. c #5A8A4C",
"R. c #5E8546",
"E. c #4D8350",
"W. c #448151",
"Q. c #558D53",
"!. c #5B8E50",
"~. c #518651",
"^. c #5E9252",
"/. c #5F9957",
"(. c #5D914F",
"). c #638A46",
"_. c #6B8D43",
"`. c #608A48",
"'. c #668445",
"]. c #708F41",
"[. c #68924A",
"{. c #749342",
"}. c #7C9B44",
"|. c #769744",
" X c #609652",
".X c #629954",
"XX c #6C9C50",
"oX c #96881F",
"OX c #868326",
"+X c #898627",
"@X c #948D26",
"#X c #948921",
"$X c #9C9D2E",
"%X c #989227",
"&X c #879637",
"*X c #8A9736",
"=X c #829539",
"-X c #899A39",
";X c #949B32",
":X c #959D33",
">X c #818C33",
",X c #A29E2B",
"<X c #A59924",
"1X c #8FA13C",
"2X c #9AA436",
"3X c #96A337",
"4X c #ADA327",
"5X c #A6A12A",
"6X c #A9A229",
"7X c #AFAD2F",
"8X c #B2A425",
"9X c #B9A722",
"0X c #BCA922",
"qX c #B3AB2A",
"wX c #B7AD29",
"eX c #BAB12A",
"rX c #A3A832",
"tX c #B1B635",
"yX c #C3AA1D",
"uX c #CAAC1A",
"iX c #C4BA2B",
"pX c #C3B528",
"aX c #C0BB30",
"sX c #CAC32F",
"dX c #C1C133",
"fX c #829E42",
"gX c #87A342",
"hX c None",
/* pixels */
"hXhXhX- - - - - - - - - - hXhXhXhXhXhXhXhXhXhXhXhXhXhXhXhXhXhXhXhXhXhXhXhXhXhXhXhXhXhXhXhXhXhXhXhXhX",
"hXhXhX- - - - - - - - - - hXhXhXhXhXhXhXhXhXhXhXhXhXhXhXhXhXhXhXhXhXhXhXhXhXhXhXhXhXhXhXhXhXhXhXhXhX",
"hXhXhX- - 1 4 8 q 0 Y 0 9 2 hXhXhXhXhXhXhXhXhXhXhXhXhXhXhXhXhXhXhXhXhXhXhXhXhXhXhXhXhXhXhXhXhXhXhXhX",
"hXhXhX% % < q ~ [ { Q Q R q ;   + . # # o o o o o o o o o o o o o o o o o o o hXhXhXhXhXhXhXhXhXhXhX",
"hXhXhXo % 4 ! { %XqXqX%X{ Y 2 + + . = % % $ % o % % % % % % o % % % o % o % % # hXhXhXhXhXhXhXhXhXhX",
"hXhXhXo o 4 ^ @XeXsXsXqX@X^ g & w r < 4 4 5 5 5 a 4 4 4 5 4 4 4 5 4 4 4 4 5 4 2 hXhXhXhXhXhXhXhXhXhX",
"hXhX% X X < T #XpXsXtX3XJ.' J D h A D J ! T E R R ~ ~ / / / / ~ / / ~ / ^ ] ~ 0 2 hXhXhXhXhXhXhXhXhX",
"- - % X X < R #XeXtX3X{.U.8.e.*.=.*.` ' H.OXoXoXOXOXOXOXOXOXOXOXOXOXOXOX@X%Xz.^ 8 % X hXhXhXhXhXhXhX",
"- - = % = 5 T #X5X2X|.I.E.L.T.T.Q.Q.`.{.-X6XqX8X4X4X8X4X4X6X7X4X6X4X4XqXeXeX5X{ ! < % hXhXhXhXhXhXhX",
"- - < 5 0 ~ } >X-X|.`.L.I. X|.}.}.|.}.fXgX2XrX7XeXeXwXeXeXeXeXeXeXeXeXeXiXiXqX@X{ ! 8 < hXhXhXhXhXhX",
"- - 5 Y Q { >X].).T.L.L.R.{.-X3X2X:X-X-XfX}.=X3XrXqXwXqXqXqX7X4XqXqXqXqXwXeX8X,X@X{ T q :   hXhXhXhX",
"- - 0 W %XrX-X[.Y.E.u.I.).K.$X4X8X4X,X*X_.U._.K.,X4X8X6X5X5X5X5X,X4X,X,X5X5X6X7XwX5Xz.~ 2 o o hXhXhX",
"- - 0 { <XiXtX}.`.~.E.I.).*X6X0XyXyX4X*X_.E.I.J.$X8X8X4X5X5X6X5X4X,X4X4X4X,X5XeXiXeX%X} S r = hXhXhX",
"- - Y { qXsXdXrX1X[.Y.U.).&X6XyXuXuX9X*XU.E.E.].;X8X8X6X5X6X,X4X5X,X5X5X,X,X4XqXeXeX$XH.` D u r - - ",
"- - 0 [ ,XiXiXpXrX-X).U.).=X5X8XyX0X5X*X_.E.U.{.$X4X8X6X,X4X6X6X5X4X,X4X4X,X5X8X9X6X;XK.'.*.D u - - ",
"- - 9 ^ z.<X<X<X%X>X'.Y.`.J.;X5X6X6X$X&X_.`._.=X5X<X8X4X6X,X4X5X5X4X5X5X5X4X5X6X4X4X2XgXXXP.P f - - ",
"- - 5 S T Q Q W W [ ' I.(._.K.K.K.K.K.K.H.K.=X;X,X5X4X4X,X5X5X4X4X5X5X5X4X,X4X4X8X8X5XgXXXL.P f - - ",
"- - < 4 9 q 9 7 8 S ` I.(. XT.R.U.U.).J.=X;X$X6X6X4X4X5X5X4X4X,X5X5X4X,X6X4X5X4X9X8XrXgX[.w.H f - - ",
"- - - - # = % O - I L U.^.T.T.U.L.P.U.J.*X4X8X8X6X,X5X5X5X5X,X5X6X,X4X,X,X6X6X4X8X6X;X}.).e.J u - - ",
"- - # O o @ % w u H 5.I. X[._._._.).J.=X$X9X0X9X4X4X4X4X4X4X4X8X4X4X4X4X8X8X4X,X$X*XK.|. Xw.H f - - ",
"hXhXhX. O - p D P 5.w.L.[.K.*X;X;X*X;X$X4X8X8X8X8X9X8X8X8X8X8X8X4X4X8X4X8X0X4X$X-XJ.[. X(.8.J f - - ",
"hXhXhX# # t I ` I.Q.~.I._.&X$X4X4X4X5X4X4X4X4X4X5X6X6X<X4X5X5X4X4X4X4X4X8X8X5X:X{.R.Q.Q.!.9.J f - - ",
"hXhXhX. # t J 9././.Q.I.).K.;X5X5X,X$X$X;X;X;X;X;X;X;X;X;X;X;X$X;X;X$X;X$X$X;XK.).~.E.Q.!.9.L f - - ",
"hXhXhX. # t F 9.^./.Q.I.R._.K.-X&X=X=XK.K.K.K.K.K.K.K.K.K.K.K.K.K.K.K.K.K.=XK._.R.E.~.Q.!.9.L f - - ",
"hXhXhX# # t F 7.!.^.Q.Y.U.R.R.`.).).).R.).T.`.R.`.`.R.`.`.R.R.`.R.`.`.T.).).R.T.Y.I.Q.!.T.9.L f - - ",
"hXhXhX# # t F ` Y.^.T.I.I.~.E.E.L.~.E.L.I.L.~.L.E.I.L.E.E.I.E.~.L.L.E.I.L.L.L.L.I.I.T.^.T.9.L f - - ",
"hXhXhX# # t F 7.T.^.T.U.I.I.E.E.L.E.L.E.L.E.L.L.E.E.E.E.E.E.E.E.E.E.E.E.E.E.L.L.I.I.T.^.^.9.L f - - ",
"hXhXhX# # t F 7.Y.^.Q.I.Y.I.I.I.L.I.I.L.I.I.I.I.I.I.I.I.I.I.I.Y.I.I.I.I.I.I.I.I.I.Y.T.^.!.9.L f - - ",
"hXhXhX# # < F 7.T.^.^.I.Y.Y.I.I.I.I.I.I.I.I.I.Y.U.Y.Y.U.I.Y.I.I.I.I.U.I.I.I.I.I.Y.I.T.!.T.9.L f - - ",
"hXhXhX# # t J 8.^.^.^.I.U.Y.I.I.I.I.I.T.I.I.I.Y.I.I.I.I.Y.I.I.Y.I.U.Y.I.I.U.Y.I.I.U.!. X Xr.L f - - ",
"hXhXhX# # t J 9.^..X(.Y.U.I.I.I.Y.Y.I.I.Y.I.I.Y.I.Y.Y.I.I.T.I.Y.I.Y.I.I.Y.I.I.U.I.I.!. X.XI.L g - - ",
"hXhXhX# # < F 8.(.^.T.I.I.I.I.U.U.I.Y.Y.I.I.U.I.U.I.U.I.I.I.I.I.I.I.U.I.U.Y.Y.Y.I.I.!.^. Xr.L f - - ",
"hXhXhXhX= < g L 8.I.I.T.!.(.I.I.Y.Y.Y.Y.Y.Y.Y.Y.Y.I.T.I.I.Y.Y.Y.I.Y.Y.Y.I.Y.Y.T.T.T.T.U.9.U I t - - ",
"hXhXhXhXhX1 t g F ` 9.(.^.^.(.T.T.T.R.T.T.T.Y.T.Y.T.T.T.T.T.T.Y.T.T.T.T.T.I.T.(..X^.I.` L I t 1 hXhX",
"hXhXhXhXhXhX= - t F ` !..X(.T.T.Y.U.T.T.T.T.T.T.T.Y.T.T.Y.T.T.T.Y.Y.T.T.T.U.T.(..X^.9.L g ; - hXhXhX",
"hXhXhXhXhXhXhX  = u L 8.I.I.L.I.L.I.r.r.I.w.I.w.I.r.L.I.I.w.I.r.I.w.I.I.I.w.I.U.Y.9.U A -   . hXhXhX",
"hXhXhXhXhXhXhX  o , i D P *.>.i.u.i.0.0.6.6.6.6.6.6.0.6.6.6.6.6.6.0.0.0.0.y.6.*.U H A , @   hXhXhXhX",
"hXhXhXhXhXhXhX@ @ $ & y i H $.;.;.;.;.;.;.%.%.%.%.-.%.%.%.%.%.%.;.;.;.;.6.;.$...A p , $ @ @ hXhXhXhX",
"hXhXhXhXhXhXhX; ; : # : a j X.%.,.$.$.$.$.$.$.$.$.$.#.#.$.#.$.O.O.$.$.@.$.,.$.D t 1 * : ; ; ; hXhXhX",
"hXhXhXhXhXhX6 n m v z x n ( *.>.,.#.#.#.%.*.>.>.>.*.6.;.6.;.6.;.-.$.O.#.,.<.;.2.M c z v m n s hXhXhX",
"hXhXhXhX% 2 c B d.d.f.f.) 4.p.u.:.$.$.-.6.q.L.w.r.y.w.y.r.u.r.w.6.;.$.@.:.1.u.a.) s.f.g.g.s.m s - - ",
"hXhXhX$ & 3 B l.v.B.M.v.k.z.'.P.1.-.$.;.q.U.T.T.Y.Y.Y.I.I.Y.T.Y.w.6.$.$.:.u.`.G.x.c.b.M.b.j.B s - - ",
"hXhXhX$ $ 3 V j.B.C.V.B.n.F.a.W.1.$.$.<.0.r.U.I.I.r.L.I.I.I.I.I.q.>.$.$.:.1.a.G.x.B.C.C.C.v.s.b - - ",
"hXhXhX@ $ 6 V j.C.C.C.C.n.F.t.1.=.$.$.%.>.6.q.y.u.u.u.u.u.u.y.0.6.%.$.$.=.1.u.D.S.B.C.C.C.b.s.n - - ",
"hXhXhX$ $ 3 B j.M.N.N.M.S.A.3.@.+.@.$.$.$.$.,.%.<.;.<.6.,.<.;.;.%.$.$.$.+.=.%.4.l.b.N.N.Z.c.s.b - - ",
"hXhXhXhX% 3 N d.c.m.m.j.h.4.2.+.@.@.$.$.$.#.#. .#. . . . . .#.#.#.#.$.$.+.+.$.3.h.j.m.m.c.l.B s - - ",
"hXhXhXhXhX> b N V s.s.V C 3.O.@.@.@.$.$.$.$. ...j h h h j |  .#.$.$.$.O.@.@.@.3._ B s.s.s.B n a - - ",
"hXhXhXhXhXhX> s b c c c l G #.#.$.$.$.$.<.$. .j u y e e y k ..#.$.$.$.$.$.@.#.&.l s c c b 7 6 hXhXhX",
"hXhXhXhXhXhXhX- - = * - t j o.$.<.%.$.,.,.$. .k r * . * * a D #.,.,.$.$.$.,.$.| u - * * - - - hXhXhX",
"hXhXhXhXhXhXhX- - - # - y D X.%.$.$.$.$.,.$...k y * * * - u | $.,.,.$.$.,.,.$.| u - * = - - - hXhXhX"
};
