/* XPM */
static char *_875_9882a8c079196c5f774cf6630a5f4ee7c74a50c87b88bb41044038daa54985e2[] = {
/* columns rows colors chars-per-pixel */
"50 50 253 2 ",
"   c #02010C",
".  c #0B0A0E",
"X  c #06060C",
"o  c #020213",
"O  c #050A16",
"+  c #0B0C13",
"@  c #000319",
"#  c #030C19",
"$  c #090E1A",
"%  c #0A0412",
"&  c #0E1115",
"*  c #0C131A",
"=  c #0D1A1D",
"-  c #031517",
";  c #111315",
":  c #111619",
">  c #141B1B",
",  c #1A1B17",
"<  c #0D130B",
"1  c #27181B",
"2  c #310A0C",
"3  c #1B231D",
"4  c #17261E",
"5  c #0E2916",
"6  c #272819",
"7  c #35271C",
"8  c #33371C",
"9  c #081C23",
"0  c #151D23",
"q  c #030632",
"w  c #0A2529",
"e  c #142324",
"r  c #1A2A27",
"t  c #033429",
"y  c #1D322C",
"u  c #1B382D",
"i  c #192B33",
"p  c #083238",
"a  c #183637",
"s  c #082E33",
"d  c #232C23",
"f  c #25372A",
"g  c #233B36",
"h  c #373331",
"j  c #4F0F0F",
"k  c #6E1B1B",
"l  c #4B2B12",
"z  c #4F1D23",
"x  c #4A2434",
"c  c #6B3237",
"v  c #641D26",
"b  c #35501D",
"n  c #18453A",
"m  c #114A2F",
"M  c #274839",
"N  c #344C33",
"B  c #2B553C",
"V  c #355235",
"C  c #395B3C",
"Z  c #2D442D",
"A  c #3C623C",
"S  c #58531C",
"D  c #4D4E0F",
"F  c #6F4E13",
"G  c #6C6813",
"H  c #595A22",
"J  c #4F4B2B",
"K  c #754A2A",
"L  c #486539",
"P  c #586B2C",
"I  c #676723",
"U  c #6D772C",
"Y  c #466102",
"T  c #0E374E",
"R  c #213A42",
"E  c #142969",
"W  c #502A46",
"Q  c #1A4548",
"!  c #125652",
"~  c #284948",
"^  c #2A5847",
"/  c #335B48",
"(  c #295956",
")  c #335A57",
"_  c #314A50",
"`  c #1A6258",
"'  c #1B7559",
"]  c #0F6A55",
"[  c #386646",
"{  c #3C754D",
"}  c #2C655B",
"|  c #396559",
" . c #267B59",
".. c #377759",
"X. c #286C47",
"o. c #356862",
"O. c #3B7663",
"+. c #4C4E4E",
"@. c #426B46",
"#. c #477849",
"$. c #527B48",
"%. c #457A56",
"&. c #426C55",
"*. c #467866",
"=. c #426E61",
"-. c #664649",
";. c #910B0E",
":. c #8B3117",
">. c #921B2B",
",. c #A8312F",
"<. c #9C252B",
"1. c #DC3832",
"2. c #E7272E",
"3. c #E81D27",
"4. c #875531",
"5. c #AF4A2D",
"6. c #946338",
"7. c #B0673B",
"8. c #A16614",
"9. c #D24935",
"0. c #FD4935",
"q. c #CC6D33",
"w. c #F86937",
"e. c #DB611B",
"r. c #8B3F43",
"t. c #FC3541",
"y. c #A94F47",
"u. c #857449",
"i. c #934756",
"p. c #F3534A",
"a. c #FC7845",
"s. c #E6645C",
"d. c #588F38",
"f. c #7C933C",
"g. c #7A953C",
"h. c #73922A",
"j. c #398554",
"k. c #388A65",
"l. c #4D834D",
"z. c #4A894A",
"x. c #53854D",
"c. c #548B4D",
"v. c #5B8C4B",
"b. c #5A8948",
"n. c #489449",
"m. c #5C924C",
"M. c #55944D",
"N. c #458154",
"B. c #4B8352",
"V. c #4A8A57",
"C. c #538C54",
"Z. c #5A8E51",
"A. c #528957",
"S. c #5C9453",
"D. c #54945A",
"F. c #589858",
"G. c #4E9459",
"H. c #668D46",
"J. c #718E40",
"K. c #62924B",
"L. c #699749",
"P. c #769743",
"I. c #649C55",
"U. c #629954",
"Y. c #709751",
"T. c #69A55A",
"R. c #69A559",
"E. c #76AB50",
"W. c #458862",
"Q. c #539863",
"!. c #54926D",
"~. c #6AAE62",
"^. c #5EA966",
"/. c #9C8E18",
"(. c #A89818",
"). c #A4A519",
"_. c #BEA71F",
"`. c #ACB01D",
"'. c #9A9B2D",
"]. c #879737",
"[. c #949C31",
"{. c #9A9B31",
"}. c #8D892D",
"|. c #A59E29",
" X c #A69A25",
".X c #B88C2C",
"XX c #9AA435",
"oX c #91AB34",
"OX c #ADA326",
"+X c #A7A029",
"@X c #AAA329",
"#X c #ADA92A",
"$X c #ADAA26",
"%X c #B4A424",
"&X c #BBA721",
"*X c #B4AA26",
"=X c #BCAA21",
"-X c #B2AA2A",
";X c #B5A82A",
":X c #ACB62A",
">X c #BBB32B",
",X c #B7B626",
"<X c #A6AB33",
"1X c #A6B738",
"2X c #B4B736",
"3X c #8CA119",
"4X c #C3AA1D",
"5X c #CCAD1A",
"6X c #C3A419",
"7X c #D6B51A",
"8X c #CCB31F",
"9X c #E6BC15",
"0X c #FF8E33",
"qX c #C6A921",
"wX c #C3BB2B",
"eX c #C8BA27",
"rX c #D4BE24",
"tX c #C6BF30",
"yX c #F6B12F",
"uX c #A9C83B",
"iX c #B7C537",
"pX c #BFC12E",
"aX c #CDC22C",
"sX c #C8C32B",
"dX c #D6C82B",
"fX c #C8C431",
"gX c #D9CE2E",
"hX c #F9D631",
"jX c #F4D427",
"kX c #8D8947",
"lX c #88B649",
"zX c #94B84B",
"xX c #89B14D",
"cX c #B3B44C",
"vX c #BABF79",
"bX c #D38748",
"nX c #F4904C",
"mX c #FFA957",
"MX c #FFBF60",
"NX c #93C551",
"BX c #AECA47",
"VX c #C8CC46",
"CX c #F7CD64",
"ZX c #DFCA65",
"AX c #2C64A0",
"SX c #FF6E89",
"DX c #7CA099",
"FX c #8C84BF",
"GX c #F4A39F",
"HX c #F9EDAB",
"JX c #85ADD7",
"KX c #EFDFE2",
"LX c None",
/* pixels */
"LXLXLXLXLXLXLXLXLXLXLXLXLXLX* $ # O O $ * & : : * LXLXLXLXLXLXLXLXLXLXLXLXLXLXLXLXLXLXLXLXLXLXLXLXLX",
"LXLXLXLXLXLXLXLXLXLXLXLXLXLX= = 9 = * = = > > : * LXLXLXLXLXLXLXLXLXLXLXLXLXLXLXLXLXLXLXLXLXLXLXLXLX",
"LXLXLXLXLXLXLXLXLXLXLXLXLXLXe r r u i r r y d r 4 # LXLXLXLXLXLXLXLXLXLXLXLXLXLXLXLXLXLXLXLXLXLXLXLX",
"LXLXLXLXLXLXLXLXLXo   o $ e M B ^ [ ^ ^ A / C M r - @ @ o @ @ @ @ @ @ @ @ # LXLXLXLXLXLXLXLXLXLXLXLX",
"LXLXLXLXLXLXLXLX; +     O r V #.M.F.D.G.D.V.V.[ M e @ o o o @ @ @ @ @ @ @ O $ LXLXLXLXLXLXLXLXLXLXLX",
"LXLXLXLXLXLXLXd y e $   % 6 L P.xXNXNXE.~.^.Q.N.[ f 3 . + + & * = = > 3 3 > = # LXLXLXLXLXLXLXLXLXLX",
"LXLXLXLXLXLXd V V Z e @ % 6 H [.iXVXBXNXE.^.Q.D.l.P H S D S S H H I I I I J 6 # @ LXLXLXLXLXLXLXLXLX",
"LXLXLXLX+ 3 N A { B a - + 7 G  XaXgXgX1XxXI.F.D.K.f.'.(..X X X'.|.$X>X*X X}.H 3 @ @ LXLXLXLXLXLXLXLX",
"LXLXLX& > f C [ [ ^ p w e 8 I '.eX9X7X>X{.P.K.L.P.XX>XeXdXrXwXwXtXaXdXgXdX>X XH , @ o LXLXLXLXLXLXLX",
"LXLX> r Z V A ^ B n p p a C U ].#XeXeXqX@X].].g.XX1XwXeXrXeXtXwXtXaXdXgXgXgXtX|.H , o @ LXLXLXLXLXLX",
": 3 d Z A A C n y s p n X.{ B.K.].XX%X&X%X|.'.{.{.<X>XwXwX>X>X>X>X>XwXwXfXaXdXaX|.I 6 o o LXLXLXLXLX",
"> r f A l.%.A Z 4 r f / j.W.W.V.v.P.{.%X&X6X%XOX+X#X#X-XOX;XOX;XOX#X#X-X>XwXtXdXaX@XI 6 O @ LXLXLXLX",
": e g [ M.S.$.J 8 D S U S.Q.k.k.N.H.].OX4X4X&X%XOX;X|.;X@X@X|.@XOX|.|.|.#X-XeXdXdXwX[.L r # @ LXLXLX",
"& = u [ C.I.L.U I 8./.}.xXT.W.k.j.x.].|.&X4XqX%X%X|.|.|.|.|.|.|.|.|. X|.OX%XqXrXdXaX1XJ.C a 9 # $ + ",
"O * r B B.R.xXXX%X_.6X_.{.P.S.V.%.b.].|.%X&X%X%X|.|.|.@X|.|.|.|.|.|.|.|.|.%XqXeXrXfXcXxXD.[ u = + + ",
"O # w M %.R.zXtXdX9X9X7XOX].J.v.H.J.].|.%X%X%X%XOXOX|.|.@X@X|.@X|.|.|.|.|.%X_.5XeXfXBXNX~.j.M w $ X ",
"o O 9 n { Y.zXiXgX9X9X7X&X|.].f.f.].{.|.OX%XOXOXOXOXOXOX@X+X+X@X|.@X@X@XOX&X_.5XrXsXBXNX~.V.B e $ O ",
"o $ 9 n { I.xX2XeX7X9X5X6X&X|.|.{.|.|.;XOX*X%XOXOXOXOX$X@X$X$X#X#X$X-X;X;X=X=X8XpXiXNXNXT.{ M r : + ",
"O O 0 M %.F.E.oX<X>XqX4X4X4X4X6X&X&X&X%X%X%X%X*X*X*X*X*X:X:X:X#X,X,XsX,XeXeXwXpXuXzXE.L.l.A u e : $ ",
"% + 0 B #.F.R.E.].'.OX&X5X5X5X5X5X4X6XqX_._._.=X=X=X,X`.:X:X:X,XsXsXsXrXdXsXpXuXoXE.M.L V n r > : ; ",
"% + 4 M %.F.F.I.Y.f.{.OX6X5X5X5X4X4X_._.=X_._._.=X=XqX=X,X:X:XpXeXeXrX7XsXpXiXzXE.d.[ n w = * * LXLX",
"o + 3 N $.D.Q.D.M.H.].{.@X&X=X&X%X%X%XOX%X%XOX`.:X$X$X;X*X*X`.).).(.3X).).1X1XcXL.j.~ w # o % LXLXLX",
"X . 3 N $.D.Q.G.A.x.H.f.[.{.'.[.{.[.[.[.[.XX[.].].g.].{..X.X8.8.G Y Y Y G h.kXkXkX-.h $ o   LXLXLXLX",
"% . 3 N $.F.F.D.V.B.b.H.J.g.f.g.J.J.g.J.P.g.g.c.z.#.$.u.7.e.8.:.l < < < , D 4.y.y.4.x 0 o   LXLXLXLX",
"o + 3 V $.S.T.F.C.B.l.x.x.x.x.x.x.x.x.c.v.M.j.j.' ` ! -.,.1.1.,.W q @     ; k ,.9.9.<.z * O LXLXLXLX",
"% + 3 V $.K.I.S.C.x.B.B.N.B.l.%.N.%.B.C.C.z.j.j.] ! E W <.2.t.p.i.E E q @ % j ;.2.0.9.4.8 5 - LXLXLX",
"o + 3 V $.U.R.S.Z.x.x.%.N.%.N.N.%.l.B.B.C.C.j. .] ! E x >.3.p.SXGXFXAXE q o 2 ;.3.0.w.7.I D 5 5 LXLX",
"+ * r C x.I.T.U.Z.x.x.l.l.B.l.N.l.N.B.c.c.z.V.j.' ] ! h >.3.SXGXKXKXJXAXT @ 2 ;.2.w.0XyX|.h.b 5 # @ ",
"+ ; d A v.T.T.R.Z.b.x.$.$.x.x.B.l.x.x.C.v.v.C.j. .` ~ h c ,.s.GXKXKXKXDX/ 6 j ;.e.0XyXhXgX'.P 5 # @ ",
"& : f L S.T.T.R.S.v.x.x.x.x.x.x.x.x.x.b.v.v.c.l.{ ..[ C -.4.bXGXHXHXHXvX6.G F :.e.yXhXhXjX:XI d $ @ ",
": > f C C.T.T.T.U.S.v.Z.b.x.b.b.v.b.b.v.b.v.v.c.z.l.#.#.@.U kXcXZXCXCXVX2X/./..XqXjXhXhXgX$XI 8 - # ",
"; > r N #.I.T.T.I.U.S.K.v.v.v.b.v.v.v.v.H.K.K.v.M.c.z.l.l.z.d.xX1X,XsXaX,X,X:X>XwXaXdXdX$X}.S 6 = - ",
"; : > d V $.S.R.R.R.U.U.K.v.v.m.K.v.v.K.K.K.K.K.K.m.M.M.n.n.n.d.h.3X).`.:XiXuXuXuXuX1X'.h.S 8 , : * ",
"LXLX& : 4 N @.K.I.R.R.U.K.v.v.m.v.M.m.M.v.b.M.M.K.K.U.F.M.n.n.d.d.h.h.h.oXzXNXNXE.E.d.P D 6 1 ; LXLX",
"LXLXLX+ + , Z @.Z.I.T.U.S.v.Z.S.M.C.c.G.z.n.V.n.M.M.M.M.M.V.z.z.z.d.d.E.R.E.E.~.E.d.A Z > + + LXLXLX",
"LXLXLXLXX . , Z @.x.C.C.A.A.A.A.C.V.j.j.j.j.j.j.V.A.G.C.l.%.&.@.{ %.N.n.W.Q.Q.W.j.V u = O o LXLXLXLX",
"LXLXLXLXLXX . , f / @.&.&.%.*.%.O.O. .' ' ' ' o. .....%.&.&.&.| | | o.O.O.O.| [ B u = $ O LXLXLXLXLX",
"LXLXLXLXLXLXX . , f N ) =.o.o.o.} ` ` ` ` ` ` o.( } ( } ) | | | | | o.o.o.o._ R r = * # LXLXLXLXLXLX",
"LXLXLXLXLXLXLX  % , g / | } ( ! Q ~ R +.+.+._ R _ R T Q / | | =.| ) ) ( _ ~ i 0 * + + LXLXLXLXLXLXLX",
"LXLXLXLXLXLXLX  % e N @... .Q R i W c r.i.y.r.c h i i R ^ { %.%.O.) ) _ T i 0 9 $ + LXLXLXLXLXLXLXLX",
"LXLXLXLXLXLXLX  % 6 @.#.N.X.m s 1 z <.9.p.p.9.,.v 1 - t B { A.!.W.o._ R i 0 ; + LXLXLXLXLXLXLXLXLXLX",
"LXLXLXLXLXLXLX  + f @.A.V.X.m - 2 k 9.w.a.nXa.9.:.2 . 5 m #.Q.^.!.*._ g 0 & + + LXLXLXLXLXLXLXLXLXLX",
"LXLXLXLXLXLXLX% & f @.A.{ X.t - 2 :.9.nXmXmXnXw.,.j . - m X.Q.!.!.*./ i : + . LXLXLXLXLXLXLXLXLXLXLX",
"LXLXLXLXLXLXLX% ; f / %. .! t < 7 :.w.mXCXMXmXa.5.k . - t ^ W.!.!.*._ g > & . LXLXLXLXLXLXLXLXLXLXLX",
"LXLXLXLXLXLXLX& : d M ) ^ n p 9 7 K q.mXMXCXmXbX8.l & - p ! | *.*.=._ y e ; ; LXLXLXLXLXLXLXLXLXLXLX",
"LXLXLXLXLXLXLXLX: 0 y a Q T p p h J 6.q.nXnXbX7.c l * 9 p Q o.o.| _ g r > > ; LXLXLXLXLXLXLXLXLXLXLX",
"LXLXLXLXLXLXLXLXLX: > r a a Q Q ~ N H K 6.6.4.K l 1 : w a ( ) ) _ g d 0 > : LXLXLXLXLXLXLXLXLXLXLXLX",
"LXLXLXLXLXLXLXLXLXLX+ * e a Q ^ _ ~ g d 6 6 7 6 , < : i Q _ ) / g r > : LXLXLXLXLXLXLXLXLXLXLXLXLXLX",
"LXLXLXLXLXLXLXLXLXLXLX. : g ^ ( ( Q w - X X X X   X < y ~ ) ) ~ d 0 ; . LXLXLXLXLXLXLXLXLXLXLXLXLXLX",
"LXLXLXLXLXLXLXLXLXLXLX. & y _ ) ` Q w o             - u ~ | ) M d : + O LXLXLXLXLXLXLXLXLXLXLXLXLXLX"
};
