/* XPM */
static char *_583_58741db31f5b3917d12f44f2d2ad4bafbb3477d00efe9a5125592a45ac0358a4[] = {
/* columns rows colors chars-per-pixel */
"50 50 246 2 ",
"   c #02030D",
".  c #060609",
"X  c #020413",
"o  c #020D13",
"O  c #0B0D14",
"+  c #000419",
"@  c #050D1A",
"#  c #0B0610",
"$  c #021216",
"%  c #0E1216",
"&  c #0B1419",
"*  c #061719",
"=  c #111518",
"-  c #151C1C",
";  c #1B1D1B",
":  c #151816",
">  c #0C1108",
",  c #330B11",
"<  c #1B231E",
"1  c #17211D",
"2  c #052018",
"3  c #2A261C",
"4  c #2E321D",
"5  c #35381E",
"6  c #383506",
"7  c #010E34",
"8  c #0B2724",
"9  c #1B2620",
"0  c #1D2B23",
"q  c #152828",
"w  c #1C3635",
"e  c #17352A",
"r  c #232D24",
"t  c #382221",
"y  c #243325",
"u  c #273B2A",
"i  c #393524",
"p  c #253D35",
"a  c #373832",
"s  c #4C1518",
"d  c #531515",
"f  c #4E2C11",
"g  c #472922",
"h  c #4B3325",
"j  c #6E3327",
"k  c #1A4B36",
"l  c #2A432D",
"z  c #31482E",
"x  c #354528",
"c  c #294634",
"v  c #344D34",
"b  c #3B5936",
"n  c #39613A",
"m  c #3E4C0B",
"M  c #4B4C11",
"N  c #78550E",
"B  c #59621F",
"V  c #7D741E",
"C  c #4A542E",
"Z  c #795733",
"A  c #6D4C32",
"S  c #43653B",
"D  c #48693A",
"F  c #586835",
"G  c #7A7724",
"H  c #777626",
"J  c #6D7033",
"K  c #192C4C",
"L  c #23325E",
"P  c #583B50",
"I  c #184E55",
"U  c #1B5755",
"Y  c #294645",
"T  c #345948",
"R  c #255453",
"E  c #2D5353",
"W  c #2D5C54",
"Q  c #275558",
"!  c #315552",
"~  c #335C54",
"^  c #345E5A",
"/  c #3B5754",
"(  c #314F4C",
")  c #1A6059",
"_  c #3C664A",
"`  c #3E7848",
"'  c #276856",
"]  c #346256",
"[  c #3B6254",
"{  c #3E6955",
"}  c #36625B",
"|  c #39635A",
" . c #3B6A5A",
".. c #376856",
"X. c #2C755A",
"o. c #357A57",
"O. c #2A6A4E",
"+. c #455748",
"@. c #5B4948",
"#. c #456D41",
"$. c #486F42",
"%. c #4C7643",
"&. c #49774B",
"*. c #527D44",
"=. c #527C4A",
"-. c #446A53",
";. c #457B53",
":. c #4A7C52",
">. c #596C4E",
",. c #6E6451",
"<. c #AF1E1F",
"1. c #BC3A1E",
"2. c #A31E20",
"3. c #89362A",
"4. c #912D28",
"5. c #B72724",
"6. c #A9342A",
"7. c #942C14",
"8. c #8C5430",
"9. c #B64A34",
"0. c #98702B",
"q. c #8B772F",
"w. c #B5772D",
"e. c #AD6F31",
"r. c #9F6C15",
"t. c #C94639",
"y. c #D84C37",
"u. c #D55033",
"i. c #F74C37",
"p. c #F95438",
"a. c #EB5039",
"s. c #C67329",
"d. c #CC6836",
"f. c #914946",
"g. c #846E4A",
"h. c #AF7B4A",
"j. c #B94544",
"k. c #F75845",
"l. c #CC7743",
"z. c #EF6E49",
"x. c #CE5740",
"c. c #7C8D13",
"v. c #7F921C",
"b. c #5E8A3B",
"n. c #67873C",
"m. c #7A8C39",
"M. c #7C9C37",
"N. c #799A2F",
"B. c #3B8358",
"V. c #4C874E",
"C. c #54844C",
"Z. c #5A8C4D",
"A. c #5B8947",
"S. c #5F914B",
"D. c #498855",
"F. c #578A55",
"G. c #49905E",
"H. c #549156",
"J. c #5C9353",
"K. c #59985A",
"L. c #618C49",
"P. c #63944B",
"I. c #6A9649",
"U. c #689648",
"Y. c #649C56",
"T. c #619653",
"R. c #789D44",
"E. c #64A35C",
"W. c #6AA658",
"Q. c #72A552",
"!. c #7AA744",
"~. c #549E62",
"^. c #6EB161",
"/. c #71BB67",
"(. c #77C067",
"). c #8B8C1A",
"_. c #A99D18",
"`. c #A48C1A",
"'. c #ACA319",
"]. c #B7A41E",
"[. c #898426",
"{. c #8B9B36",
"}. c #8D942D",
"|. c #A59E29",
" X c #A99F29",
".X c #A19B25",
"XX c #B29621",
"oX c #9AA729",
"OX c #87A535",
"+X c #98A838",
"@X c #9FB133",
"#X c #ACA326",
"$X c #A2AC27",
"%X c #A7A029",
"&X c #A9A129",
"*X c #ADAC2A",
"=X c #A4A726",
"-X c #B2A325",
";X c #B2AB2A",
":X c #B9AA26",
">X c #A8B129",
",X c #B3B12A",
"<X c #BCB32B",
"1X c #BBB427",
"2X c #A2B239",
"3X c #D59738",
"4X c #C4A828",
"5X c #C1B62B",
"6X c #C3B92C",
"7X c #CBBB27",
"8X c #D9B535",
"9X c #D3B225",
"0X c #C9AF1E",
"qX c #CEC32C",
"wX c #8C8348",
"eX c #8AA642",
"rX c #B6AC4C",
"tX c #A28B64",
"yX c #D5904D",
"uX c #E68548",
"iX c #FD864D",
"pX c #FF8B54",
"aX c #F69A55",
"sX c #E29751",
"dX c #FEA858",
"fX c #FEB659",
"gX c #EBA84C",
"hX c #FC8B69",
"jX c #FFB566",
"kX c #EEC651",
"lX c #D7CA66",
"zX c #F0CF69",
"xX c #3C5E99",
"cX c #506C94",
"vX c #7187BD",
"bX c #E4A1A4",
"nX c #BCC2AE",
"mX c #FFC18A",
"MX c #FEDCBA",
"NX c #FFE593",
"BX c #94A7D3",
"VX c #BFADC9",
"CX c #F6F4CE",
"ZX c #F8F6F1",
"AX c #C9D6F1",
"SX c None",
/* pixels */
"SXSXSXSXSXSXSXSXSXSXSXSXSXSXSXSXSXSXSXSXSXSXSXSXSXSXSXSXSXSXSXSXSXSXSXSXSXSXSXSXSXSXSXSXSXSXSXSXSXSX",
"SXSXSXSXSXSXSXSXSXSXSXSXSXSXSXSXSXSXSXSXSXSXSXSXSXSXSXSXSXSXSXSXSXSXSXSXSXSXSXSXSXSXSXSXSXSXSXSXSXSX",
"SXSXSXSXSXSXSXSXSXSXSXSXSXSXSXSXSXSXSXSXSXSXSXSXSXSXSXSXSXSXSXSXSXSXSXSXSXSXSXSXSXSXSXSXSXSXSXSXSXSX",
"SXSXSXSXSXSXSXSXSXSXSXSXSXSXSXSXSXSXSXSXSXSXSXSXSXSXSXSXSXSXSXSXSXSXSXSXSXSXSXSXSXSXSXSXSXSXSXSXSXSX",
"SXSXSXSXSXSXSXSXSXSXSXSXSXSXSXSXSXSXSXSXSXSXSXSXSXSXSXSXSXSXSXSXSXSXSXSXSXSXSXSXSXSXSXSXSXSXSXSXSXSX",
"SXSXSXSXSXSXSXSXSXSXSXSXSXSXSXSXSXSXSXSXSXSXSXSXSXSXSXSXSXSXSXSXSXSXSX= = % & & - - SXSXSXSXSXSXSXSX",
"SXSXSXSXSXSXSXSXSXSXSXSXSXSXSXSXSXSXSXSXSXSXSXSXSXSXSXSXSXSXSXSXSXSX- 9 < < < 1 - - = SXSXSXSXSXSXSX",
"SXSXSXSXSXSXSXSXSXSXSXSXSXSXSX+ @ @ @ @ @ @ @ @ @ @ @ @ @ @ @ SXSX@ q v b S b u < - % SXSXSXSXSXSXSX",
"SXSXSXSXSXSXSXSXSXSXSXSXSX& * @ & @ @ @ @ @ @ @ @ @ @ & @ & @ X   & l %.Y.W.Z.n r % O SXSXSXSXSXSXSX",
"SXSXSXSXSXSXSXSXSXSXSXSXSX3 5 5 4 4 4 4 4 4 4 4 4 4 4 4 4 4 4 3 3 4 D Z.^.(.^.%.r O X SXSXSXSXSXSXSX",
"SXSXSXSXSXSXSXSXSXSXSX+ - C [.[.[.H G G G G G G G G G G G G G G q.H n.Z.E./.^.%.< .   O ; SXSXSXSXSX",
"SXSXSXSXSXSXSXSXSXSX+ @ 5 q.<XqX1X;X:X;X;X;X;X;X;X;X;X;X;X;X:X5X:X#X{.Z.G.K.J.S y % O = - SXSXSXSXSX",
"SXSXSXSXSXSXSXSXSXSX; i H |.qXqX6X6X<X<X<X<X<X<X<X<X<X<X<X<X<X7X7X1XeXF.o.T v l z l r - = SXSXSXSXSX",
"SXSXSXSXSXSXSXSXX : M [.;X;X;X;X;X;X*X;X*X*X;X;X;X*X;X;X*X;X:X:X5X*XeXH.O.8 % 4 n %.v 9 = SXSXSXSXSX",
"SXSXSXSXSXSXSX@ @ 4 G <XqX<X%X|.|.%X X X%X%X%X%X X X%X&X%X%X&X#X-X&XeXY._ 8 @ u C.Y.%.0 O SXSXSXSXSX",
"SXSXSXSXSXSX- 8 p S }.6X7X<X%X|.|.%X X X%X%X%X%X X X%X%X%X X X X#X#X+XOXJ C v #.E.W.#.0 % SXSXSXSXSX",
"SXSXSXSXSX& 1 w _ I.eX;X:X-X%X%X%X%X%X%X%X%X%X|.&X|.%X%X%X%X%X X%X&X-X#XoXL.C.H.E.J.b 0 & SXSXSXSXSX",
"SXSXSXSXSX% - c D.Q.+X;X].#X%X%X%X%X%X%X X&X X&X&X&X%X%X%X%X%X X X#X4X0X-Xm.&.;.:.%.z 9 = SXSXSXSXSX",
"SXSXSXSXSX% - c :.Q.+X:X].]. X|. X X X|. X|. X X X X X%X|. X X|. X-X0X9X_.B a q p u r 1 - SXSXSXSXSX",
"SXSXSXSXSX% - p &.I.+X-X].-X%X%X%X&X&X&X&X&X&X|.%X&X&X&X%X&X&X%X=X*X6X5X[.M + X @ = - - : SXSXSXSXSX",
"SXSXSXSXSX= - p &.P.R.+X+XoX=X,X,X<X<X<X;X*X$X$X$X$X*X:X<X<X<X;X*X>X>X@Xm.C 0 @ X X % = - SXSXSXSXSX",
"SXSXSXSXSX% : l &.J.T.L.M.oX>X1X<X6X6X1X<X>X>X$X$X$X,X1X6X6X6X<X,X$XOXR.A.C.#.z - O O SXSXSXSXSXSXSX",
"SXSXSXSXSX= - l =.H.G.D.A.}.XXXX#X_..X=X%X X X X%X%X#X%X%X.X.X_.XX.Xm.V.G.K.Y.%.u % O SXSXSXSXSXSXSX",
"SXSXSXSXSX% - z *.H.B.' >.e.s.r.M M M B H 0.s.s.s.w.q.J M m M N w.w.g...B.~.E.*.y = SXSXSXSXSXSXSXSX",
"SXSXSXSXSX% - z *.D.B.) @.x.y.7., . o : g 8.u.p.a.t.j t : > . f 5.y.f.+.) G.Y.D y = O SXSXSXSXSXSXSX",
"SXSXSXSXSX% - z A.D.X.I @.j.i.t.P K 7 + , 3.p.k.p.t.d # X 7 L f.y.y.f.+.) B.J.D y = O SXSXSXSXSXSXSX",
"SXSXSXSXSX% ; z *.D.' I @.t.z.bXVXvXL + . 4.z.hXpXu.s . 7 xXBXbXhXz.f.( ) B.F.D y = O SXSXSXSXSXSXSX",
"SXSXSXSXSX% - z C.D.X.U @.w.dXMXZXAXcXO > 8.aXjXjXl.f . K BXZXZXmXz.8.( ) o.K.>.y = @ SXSXSXSXSXSXSX",
"SXSXSXSXSX% - v C.K.B.] >.w.8XNXCXCXE.h f r.gXkXfX3XN 6 >.nXZXCXzXsXq.#.X.G.Y.%.u = O SXSXSXSXSXSXSX",
"SXSXSXSXSX% 1 v Z.E.G.;.J .X9XkXzXlXrX[.).XX8X8X9X:X.Xr.}.rXlXkX8X:X}.>.D.~.Y.%.y = O SXSXSXSXSXSXSX",
"SXSXSXSXSX& 1 l &.J.K.Z.I.{.'.'._._.'.:X,X>X'..XoX=X,X1X,X'.'.'.'.oX{.P.H.K.Z.#.y = O SXSXSXSXSXSXSX",
"SXSXSXSXSXSX- 3 z D C.Y.Q.!.}.v.c.c.oX2X2XOXN.N.N.OX+X2X@X).c.c.).M.Q.W.J.=.b u 9 : SXSXSXSXSXSXSXSX",
"SXSXSXSXSXSXSX= = u D Y.W.Y.b.b.b.n.U.U.U.U.A.A.S.b.U.I.I.n.b.b.A.P.W.W.V.b 1 & SXSXSXSXSXSXSXSXSXSX",
"SXSXSXSXSXSXSXSX  & k n V.V.B.D.;.D.;.;.;.;.;.;.;.;.;.;.;.;.V.;.;.V.V.V.n e . . SXSXSXSXSXSXSXSXSXSX",
"SXSXSXSXSXSXSXSXX o * e k O.]  . ...] ~ W W ~ ] W ] ] W ] ] .. .} W R k 8 $   + SXSXSXSXSXSXSXSXSXSX",
"SXSXSXSXSXSXSXSX& $ . o 8 K ^ } ~ ! E E ( E E E E E E E E E ~ ^ ^ R e $   o @ & SXSXSXSXSXSXSXSXSXSX",
"SXSXSXSXSXSXSXr g s s , t ( .. .E ! ~ [ { { { -.{ { { _ ~ ! E ^  ./ a , s s g t SXSXSXSXSXSXSXSXSXSX",
"SXSXSXSXSX* ; s 4.5.<.2.3.J D.o.~ ! _ =.C.F.F.F.F.F.F.C.&./ E ] B.C.Z 7.<.5.6.j 3 & SXSXSXSXSXSXSXSX",
"SXSXSXSXSX* - j t.a.i.a.d.wXV.o.W ~ &.Z.P.P.S.Z.Z.S.P.S.=.{ ! O.B.L.e.u.i.p.p.6.g * * SXSXSXSXSXSXSX",
"SXSXSXSXSX* ; A z.iXpXiXuXwX` O.Q ~ -.:.C.D n C b D %.C.:./ ! ' O.A.tXiXiXpXiXd.h % $ SXSXSXSXSXSXSX",
"SXSXSXSXSX$ ; A sXfXfXdXuX,.] U R ] { { T p < : 1 r v / { | ! U R -.h.aXfXjXaXl.h & o SXSXSXSXSXSXSX",
"SXSXSXSXSX& ; A h.sXgXyXh.>.R I E ^ | ^ Y 9 . . . & w E } | ~ R U / ,.yXsXsXyXe.g & SXSXSXSXSXSXSXSX",
"SXSXSXSXSXSX- i A Z 8.Z A +.E R ~ ~ | ^ Y q # . . % w E ^ | ~ E Q ! +.A Z 8.Z C r SXSXSXSXSXSXSXSXSX",
"SXSXSXSXSXSXSX; < ; : < w Y ~ } ~ ~ | | ( q % # # - p ! | | ~ ^ ^ ! c 9 ; < < < SXSXSXSXSXSXSXSXSXSX",
"SXSXSXSXSXSXSXSX$ o   o 8 Y ] | | ~ | | ( w : # > 9 p ~ | ] ~ | | ~ w @     $ & SXSXSXSXSXSXSXSXSXSX",
"SXSXSXSXSXSXSXSXSXSXSXSXSXSXSXSXSXSXSXSXSXSXSXSXSXSXSXSXSXSXSXSXSXSXSXSXSXSXSXSXSXSXSXSXSXSXSXSXSXSX",
"SXSXSXSXSXSXSXSXSXSXSXSXSXSXSXSXSXSXSXSXSXSXSXSXSXSXSXSXSXSXSXSXSXSXSXSXSXSXSXSXSXSXSXSXSXSXSXSXSXSX",
"SXSXSXSXSXSXSXSXSXSXSXSXSXSXSXSXSXSXSXSXSXSXSXSXSXSXSXSXSXSXSXSXSXSXSXSXSXSXSXSXSXSXSXSXSXSXSXSXSXSX",
"SXSXSXSXSXSXSXSXSXSXSXSXSXSXSXSXSXSXSXSXSXSXSXSXSXSXSXSXSXSXSXSXSXSXSXSXSXSXSXSXSXSXSXSXSXSXSXSXSXSX",
"SXSXSXSXSXSXSXSXSXSXSXSXSXSXSXSXSXSXSXSXSXSXSXSXSXSXSXSXSXSXSXSXSXSXSXSXSXSXSXSXSXSXSXSXSXSXSXSXSXSX"
};
