/* XPM */
static char *_2888_25cc366a27be35c27557d96c96545c0cb1f1e069f23cbd93f3ba4abaaab4b751[] = {
/* columns rows colors chars-per-pixel */
"50 50 251 2 ",
"   c #020103",
".  c #02020C",
"X  c #0C0A0C",
"o  c #080609",
"O  c #140605",
"+  c #020313",
"@  c #050A15",
"#  c #0B0C13",
"$  c #000319",
"%  c #030A19",
"&  c #080915",
"*  c #0E1115",
"=  c #0B141B",
"-  c #05141A",
";  c #111213",
":  c #111518",
">  c #151B1B",
",  c #191915",
"<  c #160C10",
"1  c #2C080F",
"2  c #072518",
"3  c #1A211C",
"4  c #102D09",
"5  c #383A1D",
"6  c #2B2714",
"7  c #061824",
"8  c #111B23",
"9  c #0C1130",
"0  c #082229",
"q  c #192827",
"w  c #1B362E",
"e  c #052935",
"r  c #162C36",
"t  c #0A3136",
"y  c #193439",
"u  c #033826",
"i  c #273727",
"p  c #253B37",
"a  c #303725",
"s  c #371C36",
"d  c #4E100A",
"f  c #69101C",
"g  c #4D2E13",
"h  c #4E362C",
"j  c #6E2121",
"k  c #1D4539",
"l  c #0F4A35",
"z  c #2B422C",
"x  c #284737",
"c  c #334B34",
"v  c #365637",
"b  c #314E32",
"n  c #3D6B3D",
"m  c #274A1C",
"M  c #4D4C17",
"N  c #6A5612",
"B  c #40631F",
"V  c #7D711D",
"C  c #4A5824",
"Z  c #545921",
"A  c #714728",
"S  c #4F6E39",
"D  c #797524",
"F  c #627436",
"G  c #143C43",
"H  c #182256",
"J  c #653742",
"K  c #16534C",
"L  c #184A54",
"P  c #1B5756",
"I  c #0D4A51",
"U  c #284A44",
"Y  c #29544B",
"T  c #355948",
"R  c #264854",
"E  c #2A5458",
"W  c #365D58",
"Q  c #374A55",
"!  c #076D5C",
"~  c #1C765B",
"^  c #10605D",
"/  c #27694C",
"(  c #386B48",
")  c #3A774B",
"_  c #396758",
"`  c #3A7955",
"'  c #2E7953",
"]  c #2F5C63",
"[  c #0D7468",
"{  c #356A64",
"}  c #297862",
"|  c #387769",
" . c #2C6563",
".. c #004B63",
"X. c #4B7D4C",
"o. c #487246",
"O. c #527D47",
"+. c #427E54",
"@. c #487B56",
"#. c #436C4A",
"$. c #477867",
"%. c #757F45",
"&. c #85090C",
"*. c #8E152A",
"=. c #A92419",
"-. c #F61726",
";. c #CA3030",
":. c #F22D2B",
">. c #DA371B",
",. c #877318",
"<. c #875030",
"1. c #B5562E",
"2. c #A46B2A",
"3. c #CF4D23",
"4. c #EF493B",
"5. c #CB6A2C",
"6. c #F9693A",
"7. c #E77416",
"8. c #933842",
"9. c #A93E48",
"0. c #FD3247",
"q. c #B27451",
"w. c #F34E44",
"e. c #C37F43",
"r. c #FE7046",
"t. c #EF5D70",
"y. c #74860A",
"u. c #4D8C33",
"i. c #778F39",
"p. c #7A943C",
"a. c #789C22",
"s. c #1F8756",
"d. c #3B9448",
"f. c #2A8858",
"g. c #3A8A56",
"h. c #3E8D4B",
"j. c #32916F",
"k. c #4D824E",
"l. c #488647",
"z. c #54844C",
"x. c #5A864A",
"c. c #5C8C4B",
"v. c #558B49",
"b. c #4C924D",
"n. c #5E924C",
"m. c #57974E",
"M. c #4B8452",
"N. c #498B59",
"B. c #558957",
"V. c #4D925A",
"C. c #5C9253",
"Z. c #58995B",
"A. c #618E4A",
"S. c #6C8C42",
"D. c #639249",
"F. c #699C4A",
"G. c #639B54",
"H. c #649957",
"J. c #718F42",
"K. c #57A159",
"L. c #6AA65A",
"P. c #74AF5B",
"I. c #73B15E",
"U. c #63AF51",
"Y. c #499768",
"T. c #539D65",
"R. c #4F8D6E",
"E. c #59A667",
"W. c #56B072",
"Q. c #75B862",
"!. c #69B471",
"~. c #639E71",
"^. c #79C56A",
"/. c #8F910D",
"(. c #AF9716",
"). c #9BA91E",
"_. c #BCA31E",
"`. c #B4B118",
"'. c #9E9B2B",
"]. c #9A962B",
"[. c #879738",
"{. c #93932C",
"}. c #A49D29",
"|. c #A89D26",
" X c #8FA437",
".X c #ADA326",
"XX c #AAA32A",
"oX c #ACAD2B",
"OX c #A6A429",
"+X c #B4A424",
"@X c #B9A621",
"#X c #B7AC27",
"$X c #B9B629",
"%X c #B0BB33",
"&X c #C3AA1E",
"*X c #C8A919",
"=X c #D1AC16",
"-X c #C7B51D",
";X c #DAB215",
":X c #D4B31A",
">X c #D0B20E",
",X c #F59C38",
"<X c #C4BB2B",
"1X c #C8BA28",
"2X c #D6B821",
"3X c #C1B630",
"4X c #DAAE11",
"5X c #AEC229",
"6X c #B6CB31",
"7X c #D4C81B",
"8X c #F8C50E",
"9X c #F8D31A",
"0X c #D8C829",
"qX c #C7D939",
"wX c #D6D234",
"eX c #CFCD2C",
"rX c #E3D22D",
"tX c #EAD529",
"yX c #E8DD31",
"uX c #F2D231",
"iX c #E9E534",
"pX c #FCF935",
"aX c #F0E330",
"sX c #859441",
"dX c #86A445",
"fX c #95B84B",
"gX c #B1BF7F",
"hX c #D08551",
"jX c #FE9B51",
"kX c #D2B053",
"lX c #FCA955",
"zX c #EEAB55",
"xX c #90CC4E",
"cX c #B2CB47",
"vX c #A6D759",
"bX c #A6CF4B",
"nX c #ABE158",
"mX c #83C262",
"MX c #F7E55A",
"NX c #FFDC6D",
"BX c #FFE16F",
"VX c #113986",
"CX c #624689",
"ZX c #5B9994",
"AX c #5C8DD6",
"SX c #FFDEA7",
"DX c #F9A5C8",
"FX c #FFDEDC",
"GX c #FAFBCB",
"HX c #D5DEF5",
"JX c None",
/* pixels */
"JXJXJXJXJXJXJXJXJXJXJXJXJXJXJXJXJXJXJXJXJXJXJXJXJXJXJXJXJXJXJXJXJXJXJXJXJXJXJXJXJXJXJXJXJXJXJXJXJXJX",
"JXJXJXJXJXJXJXJXJXJXJXJXJXJXJXJXJXJXJXJXJXJXJXJXJXJXJXJXJXJXJXJXJXJXJXJXJXJXJXJXJXJXJXJXJXJXJXJXJXJX",
"JXJXJXJXJXJXJXJXJXJXJXJXJXJXJXJXJXJXJXJXJXJXJXJXJXJXJXJXJXJXJXJXJXJXJXJXJXJXJXJXJXJXJXJXJXJXJXJXJXJX",
"JXJXJXJXJXJXJXJXJXJXJXJXJXJXJXJXJXJXJXJXJXJXJXJXJXJXJXJXJXJXJXJXJXJXJXJXJXJXJXJXJXJXJXJXJXJXJXJXJXJX",
"JXJXJXJXJXJXJXJXJXJXJXJXJXJXJXJXJXJXJXJXJXJXJXJXJXJXJXJXJXJXJXJXJXJXJXJXJXJXJXJXJXJXJXJXJXJXJXJXJXJX",
"JXJXJXJXJXJXJXJXJXJXJXJXJXJXJXJXJX% $ + + & # = * JXJXJXJXJXJXJXJXJXJXJXJXJXJXJXJXJXJXJXJXJXJXJXJXJX",
"JXJXJXJXJXJXJXJXJXJXJXJXJXJXJXJX8 7 7 7 - > > > = JXJXJXJXJXJXJXJXJXJXJXJXJXJXJXJXJXJXJXJXJXJXJXJXJX",
"JXJXJXJXJXJXJXJXJXJXJXJXJXJXJX= w k k k k x b z q % JXJXJXJXJXJXJXJXJXJXJXJXJXJXJXJXJXJXJXJXJXJXJXJX",
"JXJXJXJXJXJXJXJXJXJXJX: # . . = b k.Z.Z.V.V.Y.) k - + . + $ $ $ $ $ $ $ JXJXJXJXJXJXJXJXJXJXJXJXJXJX",
"JXJXJXJXJXJXJXJXJXJXq z q %   ; C  XvXxXmX!.W.Y.( i , < < , > > 3 6 3 * $ JXJXJXJXJXJXJXJXJXJXJXJXJX",
"JXJXJXJXJXJXJXJXJX, v S T 0 . O Z $XiXMXcXP.E.Y.N.F D ,.V D D {.{.].D 5 # $ JXJXJXJXJXJXJXJXJXJXJXJX",
"JXJXJXJXJXJXJXJX# i o.B./ t % ; N &X9X9X1X XB.V.F.oXeX0X2X1X<X1XyXaXwX}.5 $ + JXJXJXJXJXJXJXJXJXJXJX",
"JXJXJXJXJXJXJX> i v ( Y l G e x F '.2X2X=X|.i.J.dX%X0XrX0X0XeX0XrXyXaXyXXX5 o . JXJXJXJXJXJXJXJXJXJX",
"JXJXJXJXJX: q z ( o.U 0 9 e K } N.D.[.+X*X_.|.'.XXoX<X<X1X3X3X$X3X<XwXyXaXoXM O . JXJXJXJXJXJXJXJXJX",
"JXJXJXJXJX> q ( C.N.b > # a X.Y.j.j.B.[.@X=X*X@X+X}.XXXXXXXXXXXX}.XX#X0XyXaX%Xc # $ JXJXJXJXJXJXJXJX",
"JXJXJXJXJX# q v Z.L.F Z N ,.[.L.j.[ } i..X*X=X&X+X}.}.}.}.}.}.'.].}.}.&X0XtXwXsXx 7 $ & JXJXJXJXJXJX",
"JXJXJXJXJX$ - z N.Q.dX_.=X4X$XdXV.} g.S.}.@X&X@X.X}.}.}.}.}.}.'.'.'.|.@X:X0XwXbXT.R 0 $ + JXJXJXJXJX",
"JXJXJXJXJX. % t ` dXcXtX8X8X:X'.J.B.x.[.OX+X@X.XXXXXOX|.}.|.}.}.'.}.|._.=X;XwXnXmXN.w @ . JXJXJXJXJX",
"JXJXJXJXJX. $ t _ L.cXrX8X8X;X+X].[.[.].XX+X+X.XXXXXXXOXXXXXXXXXOXXX+X_.=X:XqXnX^.N.k % + JXJXJXJXJX",
"JXJXJXJXJX. + r ( L.fX%X:X;X=X*X&X&X@X+X+X+X+X+X+X#X+XoXoXoXoX$X<X<X1X7X-X6XcXmXK.( w = & JXJXJXJXJX",
"JXJXJXJXJX. & w ` Z.L.dX'.+X*X;X;X;X:X*X*X&X&X&X-X`.`.$X%X5X6XeXtXtXtXeX5XxXU.l.v w q * * JXJXJXJXJX",
"JXJXJXJXJX. & i X.Z.T.Z.S.].@X;X;X;X=X*X&X&X&X&X-X-X7X$X5X5X5X0X7X7XeXqXxXU.' l 7 - & JXJXJXJXJXJXJX",
"JXJXJXJXJX. X i X.E.Y.N.k.i.'.+X&X+X.X|..X.X+X+XOXOXoX#X`.)././.V y.).cXxXH.U 9 $   JXJXJXJXJXJXJXJX",
"JXJXJXJXJX. # i X.K.T.N.M.x.J.[.[.[.i.[.[.[.[.F.u.z.J.2.7.3.j 6 4 4 M <.q.q.J 9 . . JXJXJXJXJXJXJXJX",
"JXJXJXJXJX. # i O.G.L.V.M.+.k.z.z.z.k.z.c.A.v.g.} ^ Q 9.:.:.j 1 $ . o d ;.w.;.j # . JXJXJXJXJXJXJXJX",
"JXJXJXJXJX. # i O.G.H.C.z.+.M.` ` +.` +.N.b.N.f.[ ..H *.-.0.t.CXVX9 + 1 *.-.4.1.h 2 - JXJXJXJXJXJXJX",
"JXJXJXJXJX. # z z.L.L.C.z.X.+.M.M.` +.+.M.B.V.f.[ ..r f -.t.DXHXAXVX$ O &.-.6.,X].B 2 % JXJXJXJXJXJX",
"JXJXJXJXJX. = c c.P.L.H.z.X.X.k.M.M.M.k.z.c.c.h.~ I r f ;.t.FXHXHXZXe O &.>.,XaXwX).m % $ JXJXJXJXJX",
"JXJXJXJXJX# > v C.Q.Q.H.z.z.x.z.x.z.z.z.x.A.A.v.g./ b b 8.hXSXGXGXvXZ g =.7.uXpXpX5XC * $ JXJXJXJXJX",
"JXJXJXJXJX* 3 c C.Q.Q.G.D.x.v.x.x.x.c.c.c.A.A.A.z.h.h.n Z sXkXBXMXeX@X(.(.;XaXpXiXoXC * $ JXJXJXJXJX",
"JXJXJXJXJX# : i S Z.I.I.L.D.n.c.c.c.c.A.D.D.D.D.D.n.b.d.d.u.a.).7X7X7XeXeXqXeXeX#XD 5 * % JXJXJXJXJX",
"JXJXJXJXJXJX# # q n C.I.I.L.G.D.c.A.n.D.D.D.D.D.F.F.K.U.d.d.u.y.a.).5XbXnXxXxXi.Z 6 , * JXJXJXJXJXJX",
"JXJXJXJXJXJXJX& & > v C.I.L.H.C.C.A.C.m.b.b.b.b.m.G.C.Z.M.l.) u.u.D.P.I.Q.U.k.b : o # JXJXJXJXJXJXJX",
"JXJXJXJXJXJXJXJX. o 3 v z.C.B.B.B.R.N.g.f.f.f.f.V.Y.B.B.@.@.( ` @.R.R.T.Y.) k = + $ JXJXJXJXJXJXJXJX",
"JXJXJXJXJXJXJXJXJXJXo , z T $.$.$.| | [ ! ! ! ! ~ } _ _ W W W W  .| | _ Y y = $ JXJXJXJXJXJXJXJXJXJX",
"JXJXJXJXJXJXJXJXJXJXJX  : p W  . .P L G R R R R L L P E W #.W W ] ] E U q @ & JXJXJXJXJXJXJXJXJXJXJX",
"JXJXJXJXJXJXJXJXJXJXJX  < c @.| K t r h 8.9.9.J s 9 u l ` B.$.$.] G y 8 & & < JXJXJXJXJXJXJXJXJXJXJX",
"JXJXJXJXJXJXJXJXJXJXJX  3 o.Z.g.l - 1 *.4.w.6.;.f 1 - l h.E.~.$.W H 8 X & JXJXJXJXJXJXJXJXJXJXJXJXJX",
"JXJXJXJXJXJXJXJXJXJXJX. i B.E.f.u o d >.r.lXjX6.=.1   2 ) E.!.R.W q #   JXJXJXJXJXJXJXJXJXJXJXJXJXJX",
"JXJXJXJXJXJXJXJXJXJXJXo i @.Y.' u   d 3.lXBXNXjX3.d O - / Y.ZX~.W r # o JXJXJXJXJXJXJXJXJXJXJXJXJXJX",
"JXJXJXJXJXJXJXJXJXJXJXX q T { P e @ g 5.zXBXNXjX1.d . 7 L j.R.$.T w : X JXJXJXJXJXJXJXJXJXJXJXJXJXJX",
"JXJXJXJXJXJXJXJXJXJXJX; > q G G G t a <.hXkXkXhXA 6 & e L { { T p q : ; JXJXJXJXJXJXJXJXJXJXJXJXJXJX",
"JXJXJXJXJXJXJXJXJXJXJXJX# < 8 r U L U c h A A h 6 < = y E ] Q p 8 , : JXJXJXJXJXJXJXJXJXJXJXJXJXJXJX",
"JXJXJXJXJXJXJXJXJXJXJXJXJXo X q Y  .P t # X o o o X 8 U { W x 8 X X JXJXJXJXJXJXJXJXJXJXJXJXJXJXJXJX",
"JXJXJXJXJXJXJXJXJXJXJXJXJXJXo q Y | P e .         o > U _ _ p > X JXJXJXJXJXJXJXJXJXJXJXJXJXJXJXJXJX",
"JXJXJXJXJXJXJXJXJXJXJXJXJXJXJXJXJXJXJXJXJXJXJXJXJXJXJXJXJXJXJXJXJXJXJXJXJXJXJXJXJXJXJXJXJXJXJXJXJXJX",
"JXJXJXJXJXJXJXJXJXJXJXJXJXJXJXJXJXJXJXJXJXJXJXJXJXJXJXJXJXJXJXJXJXJXJXJXJXJXJXJXJXJXJXJXJXJXJXJXJXJX",
"JXJXJXJXJXJXJXJXJXJXJXJXJXJXJXJXJXJXJXJXJXJXJXJXJXJXJXJXJXJXJXJXJXJXJXJXJXJXJXJXJXJXJXJXJXJXJXJXJXJX",
"JXJXJXJXJXJXJXJXJXJXJXJXJXJXJXJXJXJXJXJXJXJXJXJXJXJXJXJXJXJXJXJXJXJXJXJXJXJXJXJXJXJXJXJXJXJXJXJXJXJX",
"JXJXJXJXJXJXJXJXJXJXJXJXJXJXJXJXJXJXJXJXJXJXJXJXJXJXJXJXJXJXJXJXJXJXJXJXJXJXJXJXJXJXJXJXJXJXJXJXJXJX"
};
