/* XPM */
static char *d509142df70e435aebeff9c2a67f644bo2HMwGmV5sjlQ2Vv[] = {
/* columns rows colors chars-per-pixel */
"50 50 255 2 ",
"   c None",
".  c #030100",
"X  c #151616",
"o  c #120700",
"O  c #260B02",
"+  c #330D00",
"@  c #2C1306",
"#  c #371907",
"$  c #2D1D12",
"%  c #241C17",
"&  c #381F1E",
"*  c #3A2618",
"=  c #37210B",
"-  c #1D2529",
";  c #282C2B",
":  c #352B25",
">  c #2D3335",
",  c #333638",
"<  c #332F2C",
"1  c #461C09",
"2  c #571A0C",
"3  c #59170F",
"4  c #681714",
"5  c #791418",
"6  c #710E0A",
"7  c #48230C",
"8  c #52270D",
"9  c #442512",
"0  c #482A19",
"q  c #522D14",
"w  c #5A351A",
"e  c #49321F",
"r  c #752819",
"t  c #6A390B",
"y  c #4B3629",
"u  c #543828",
"i  c #463A34",
"p  c #553D31",
"a  c #562F28",
"s  c #623A2B",
"d  c #30443C",
"f  c #6D4014",
"g  c #704012",
"h  c #594538",
"j  c #5A402D",
"k  c #674526",
"l  c #7E5229",
"z  c #654A38",
"x  c #795837",
"c  c #704F32",
"v  c #4E3C4F",
"b  c #3E4448",
"n  c #3C4A61",
"m  c #4C4C4C",
"M  c #454746",
"N  c #584A45",
"B  c #4A5356",
"V  c #575858",
"C  c #52514D",
"Z  c #6B594C",
"A  c #675347",
"S  c #745946",
"D  c #655A57",
"F  c #755C57",
"G  c #6C4B4B",
"H  c #6A635C",
"J  c #79675B",
"K  c #7F6140",
"L  c #5A5A65",
"P  c #53596D",
"I  c #6C586B",
"U  c #5D6267",
"Y  c #546972",
"T  c #6B6A6A",
"R  c #676667",
"E  c #776B66",
"W  c #7D726B",
"Q  c #6A6B74",
"!  c #697578",
"~  c #777779",
"^  c #6E6B77",
"/  c #5F605F",
"(  c #850B1C",
")  c #8C0A1D",
"_  c #930A1D",
"`  c #881816",
"'  c #950B0A",
"]  c #A70304",
"[  c #AA0915",
"{  c #A70B19",
"}  c #B40D1B",
"|  c #BB0E1C",
" . c #B50716",
".. c #BB101C",
"X. c #AF1114",
"o. c #83300C",
"O. c #942C2A",
"+. c #AC332C",
"@. c #AB1322",
"#. c #C50D1D",
"$. c #CE0D18",
"%. c #FF0601",
"&. c #FF1B0A",
"*. c #FF250D",
"=. c #FF2913",
"-. c #FF3615",
";. c #D71928",
":. c #D31021",
">. c #E91328",
",. c #CB3736",
"<. c #EC2C37",
"1. c #DD3200",
"2. c #905417",
"3. c #B05D17",
"4. c #8E6417",
"5. c #B8671C",
"6. c #B16907",
"7. c #885B37",
"8. c #92552A",
"9. c #AD552B",
"0. c #8A6338",
"q. c #956A38",
"w. c #96682D",
"e. c #A77539",
"r. c #B57A36",
"t. c #B17029",
"y. c #CC5306",
"u. c #FE481A",
"i. c #FD5318",
"p. c #C26C1E",
"a. c #FB7A1A",
"s. c #FC6E1F",
"d. c #D17A29",
"f. c #FC7C26",
"g. c #FF682E",
"h. c #FD4B22",
"j. c #90164A",
"k. c #FF3A48",
"l. c #806654",
"z. c #9B724E",
"x. c #A77A48",
"c. c #A7784E",
"v. c #887C76",
"b. c #86736D",
"n. c #905D65",
"m. c #FF424D",
"M. c #F17378",
"N. c #60817F",
"B. c #BD803E",
"V. c #FB8618",
"C. c #FC951D",
"Z. c #D08B34",
"A. c #FB8827",
"S. c #FB9528",
"D. c #FC9B34",
"F. c #EE8D35",
"G. c #FAA636",
"H. c #F9AF27",
"J. c #EF9E1A",
"K. c #BC894A",
"L. c #AA8353",
"P. c #B88E4E",
"I. c #8A827B",
"U. c #978779",
"Y. c #B49674",
"T. c #C88C44",
"R. c #C79555",
"E. c #D2994B",
"W. c #FC9646",
"Q. c #FE984D",
"!. c #DAA454",
"~. c #FEA849",
"^. c #FEB649",
"/. c #FDAB53",
"(. c #FDA95C",
"). c #FEB559",
"_. c #E9AC4A",
"`. c #C99C6D",
"'. c #FCB766",
"]. c #FCAE62",
"[. c #D9AE6F",
"{. c #FFCC54",
"}. c #FEC469",
"|. c #FFD46A",
" X c #FED17D",
".X c #757C83",
"XX c #68788A",
"oX c #877D89",
"OX c #826B81",
"+X c #A86F8C",
"@X c #3591B9",
"#X c #7C8285",
"$X c #7C858B",
"%X c #6F8E94",
"&X c #7794A3",
"*X c #79A4A5",
"=X c #5BB2D7",
"-X c #7BC7C7",
";X c #878889",
":X c #978B87",
">X c #9B928C",
",X c #868B95",
"<X c #899197",
"1X c #929394",
"2X c #9C9C9C",
"3X c #95969A",
"4X c #908791",
"5X c #AA8C90",
"6X c #8D9AA2",
"7X c #9DA4A7",
"8X c #90ABB2",
"9X c #A3A3A3",
"0X c #ACABAC",
"qX c #A4A9A9",
"wX c #B3A9A8",
"eX c #A6AAB6",
"rX c #ABB5B9",
"tX c #B4B3B3",
"yX c #BBBBBB",
"uX c #B4B8BA",
"iX c #BBB5AF",
"pX c #AEA39F",
"aX c #D3AF84",
"sX c #C7BBBB",
"dX c #F2ABB2",
"fX c #E58D93",
"gX c #F0D2A8",
"hX c #FFFFAC",
"jX c #F7D790",
"kX c #B8BDC6",
"lX c #9EBEC5",
"zX c #ECBFC3",
"xX c #8FCDCC",
"cX c #BAC4C6",
"vX c #B9D3D7",
"bX c #B0C9CC",
"nX c #B8EAEC",
"mX c #B5DAE1",
"MX c #C4C3C4",
"NX c #CBCBCB",
"BX c #C3C9CC",
"VX c #CBCED3",
"CX c #CAD3D6",
"ZX c #D3D3D4",
"AX c #D7D9DA",
"SX c #D3CACB",
"DX c #EECED2",
"FX c #D4DDE2",
"GX c #CDDBE4",
"HX c #DBE3E8",
"JX c #D0E5F0",
"KX c #E7E7E8",
"LX c #F7FAFA",
"PX c #FFFFEA",
"IX c #F2DBE0",
/* pixels */
"                        7 8 8 7                                                                     ",
"                          4 ..#...+.r                                                               ",
"                            O.>. .:.m.+.                                                            ",
"            7 +.,.m.<.<.,.r +.;.[ { #.m.O.                                                          ",
"          +.k.k.<.>.;.<.<.k.<.[ } ..[ ;.m.#                                                         ",
"      = ,.k.;.[ [ [ [ [  .|  .| ..} [ ;.m.r                                                         ",
"      ,.<.[ [ } ....} ..} _ _ @.| #. .:.k.O.                                                q *     ",
"    @.>. .[ ..| @._ } { ( ) ( 4 5 | ' 8 r 3                                               j cXF     ",
"  2 @.` _ #.@.) 5 _ { ) ) 4 #     7 i B %Xn.6                                           A rXFX2X    ",
"  7     ` :.) ( ( _ _ ( 8       9 d ! 0XMXMXfX9.=                                   # D qX0XuXBXp   ",
"      2 :._ ( 5 ( _ _ 8       9 m ! uXMXiXrXbXdXM.s                               # h %X2XtXbXvX:X  ",
"      ` #.) 4 2 ) _ 5       y m C tXZXiXyXyXyXbXdXdXl.                            # / 2X>XcXbXbXZXz ",
"      X...( = 1 _ ) 8     e B B ~ qXNXMXMXMXMXcXcXdXDXF                           $ ! 9X2XbXxXrXHXS ",
"    7 #.@.5     _ 5     # M M R 2X1XtXZXZXNXNXMXcXsXzXDXu                         : ;X2XpXmXxXvXBXe ",
"    3 #.} 4     ` 4     : b m v.2X3X2XyXZXAXZXSXZXBXsXIXwX                      + M 1X1XsXvX-XnXqX  ",
"    4 #.} 4     9 1     < M L 1X1X2X9XqXiXNXZXAXAXCXSXDXHXz                     @ V 2X1XZXNXlXnXW   ",
"    4 #.} 4           # ; M R 3X7XeXuXvXcXtXsXMXAXHX0X:XZX>X                    $ ! 2X2XKXZXuXmXh   ",
"    8 ..| 5           = > m T 1XA A H E 1XcXyXNXtXZ l t :XVX                    < ;X3X0XLXZXSXyX    ",
"    # X.:.(           $ , M ~ ^ t 5.5.3.s kXcXAXoXo.G.5.H AXu                 @ h 1X:XMXLXNXAXpX    ",
"      ` >._           $ > m $XV 3.^.r.t.2.<XMXCXv.2.r.5.S CXz                 @ B 2X1XAXKXMXHXJ     ",
"      1 :...          $ , m $XD 5.E.8 l r.v.GXGXv.t.q t x cXZ                 $ ! 3XqXKXyXMXZXu     ",
"        5 ;.8         $ , m .XZ p.Z.7.z.r.Z <X,XS e.q.q.x rXJ                 < $X7XAXLX0XZXiX      ",
"          ` 5         $ , B #XZ d.t.7X@Xz B.0.e.t.d =X`.t eXJ               O M 6X~ S >XcXHX>X      ",
"            7         $ , m #XN d.d.v.Y u }.}.}.!.< 8XaXt 7Xb.              @ B J w.6.g 3XLXJ       ",
"                      X , L ~ L t Z.r.T.!.`.c.c.x.R.2.t p cXb.        9 9     w K.P.x.6.K VXu       ",
"                      $ : : L ,X/ k x.c.R.8.7.v.8.x.x D ~ cXl.        0.[.@   w P.O.j.4.r.&         ",
"                    u 5XwXb.G G D L I P s R.r.R.R.s Q eX#XyXv.O       q.hXjXw q !.8.o.B.f           ",
"              1 s oXkX.XE eXkXtX>Xb.Z N w t.0.w e.e.D <XW MX:XH 9     L.jXq.Z A e._.H.r.*     u 0   ",
"        9 a n.oXoX.XG 9.p.8.l.;XrXbXkXMXMX~ 0 w T.R.C ,X$XW A <XH     7.L.@ ~ &Xj 4.w.t 0.R.aXgX    ",
"    0 F v.XXL G 8.9.f.(.).~.F.5.9.z.b.v.MXJXL.|. XZ.D XXj i R ;XT z j = y y D E j m XX,   R.PXY.    ",
"    a OXG l 8.d.A.(.(.(.(./.).).G.G.G.p.x GXS 8.z.k e h e E ~ #XD >XwXi U R y 1 g R $XN   L.gX#     ",
"    0 I c ^.|.Q.W.(.(.).'.'./.D.a.C.^.G.J VXH L Y V A 9XW N ! ,XA :X0Xh T ! p 6 6 h H y + x w       ",
"    0 I x /.).W.W.].'.'.}.^.S.S.V.S.^.F.J BXW <X3X2XrXCXb.h 6XW j 9X0XZ V ! u ' ' V <XH             ",
"    0 I G !.}.~.W.].'.}.).G.H.S.V.S./.d.J MXW bXuX0X0XcXv.N W h N.9X9XD , B 3 ] ` M R j             ",
"      I N T.|.~.Q.'.).G.G.G.D.S.V.A./.p.b.yXI.CXuX9X9XcXW u C W ,XoX;XA l x 1 6 a ! E *             ",
"      F L q.|./.Q.(.D.G.G.H.D.S.V.f.Q.9.3XtXv.CXuX9X9XBXZ # .X$X~ .Xm 0.hX XK.4.u L U 9             ",
"      h ^ c {.).W.A.D.D.D.D.S.A.a.g.W.9.bX>XI.vX0X2X0XtX0   e D T #X#XS L.`._.G.Z.R.L.              ",
"      0 oXN T.|.V.A.D.F.F.S.A.C.s.g.f.7.vXJ 1XcXqX1XrXI.        e h A *     q g t.jXY.              ",
"        D P q.{.V.f.A.A.A.A.C.V.h.g.y.W cXJ rX8X<X<X2Xu                           7                 ",
"        * XXp J.S.f.A.V.A.S.a.u.h.i.o.8XpXR eX,XT h z @                                             ",
"          V n 2.H.V.f.A.C.s.-.-.i.1.S JXA H H h A J NX:X                                            ",
"          = XXb 6.J.A.a.i.*.=.-.*.t bXpXy i S I.9XrXqXAX5X                                          ",
"            h XXj y.i.*.&.*.=.=.] N.GXA E h 1X<X~ v.;X7XKX>X                                        ",
"            # H %Xy $.%.&.*.*.] C JXJ h h C ! T ~ .X~ h i F s                                       ",
"                H *Xm ' %.%.] C vXI.i C + i U B B h @ o X X v n.u                                   ",
"                  Z 8XN.5 ' ! vXI.+ > i   # , , i @ . - > ; < +X5Xa                                 ",
"                  O : >X8X*XrXZ G n.* #     9 0 # . X ; ; > ; G 5XQ 9                               ",
"                # . . $ Z I.* * +X,Xm           @ . X ; > > , T 4XR e                               ",
"                7 o X ; % % ; L OXR i             # $ * : ; i N N 9                                 ",
"                    = = * * * e 0 7                                                                 "
};
