/* XPM */
static char *_7848_6b88e2dadfdecf6103340d3eb84171c430d10cb66874493f2eb2f3381a242dc6[] = {
/* columns rows colors chars-per-pixel */
"50 50 220 2 ",
"   c #000303",
".  c #030B0B",
"X  c #000009",
"o  c #0D0E1A",
"O  c #020614",
"+  c #0C1515",
"@  c #061319",
"#  c #11141A",
"$  c #141B1B",
"%  c #171C18",
"&  c #061F09",
"*  c #201F1C",
"=  c #19271C",
"-  c #1F371C",
";  c #0F230B",
":  c #21341D",
">  c #23211B",
",  c #151226",
"<  c #182123",
"1  c #282B2C",
"2  c #343A38",
"3  c #2E302E",
"4  c #493126",
"5  c #693D2B",
"6  c #2C4C1F",
"7  c #2B5616",
"8  c #356C19",
"9  c #387D1B",
"0  c #2E740A",
"q  c #2F5120",
"w  c #325821",
"e  c #2D4E20",
"r  c #3A6B22",
"t  c #376721",
"y  c #3F7E21",
"u  c #3E7A2C",
"i  c #475C3D",
"p  c #794228",
"a  c #447D25",
"s  c #4A7E2A",
"d  c #44782C",
"f  c #4B6936",
"g  c #4C643A",
"h  c #466837",
"j  c #467132",
"k  c #79623F",
"l  c #4B6312",
"z  c #3A3C42",
"x  c #3B344B",
"c  c #473C4A",
"v  c #4E3E50",
"b  c #453D50",
"n  c #583F50",
"m  c #3D4247",
"M  c #375641",
"N  c #44434C",
"B  c #4C444C",
"V  c #4C494A",
"C  c #474A47",
"Z  c #5C4B49",
"A  c #57464C",
"S  c #495841",
"D  c #575744",
"F  c #4D5252",
"G  c #555A5A",
"H  c #595E5E",
"J  c #525656",
"K  c #534556",
"L  c #644C49",
"P  c #6C4D4A",
"I  c #66444E",
"U  c #764A4B",
"Y  c #795148",
"T  c #6E4F50",
"R  c #576A52",
"E  c #5C6161",
"W  c #646868",
"Q  c #676B47",
"!  c #8A4834",
"~  c #85633F",
"^  c #B25932",
"/  c #CA6338",
"(  c #D4683C",
")  c #DB6A3C",
"_  c #D4653E",
"`  c #E46D3B",
"'  c #EB6F39",
"]  c #F26E3B",
"[  c #EE7039",
"{  c #E7723C",
"}  c #F37138",
"|  c #F5773A",
" . c #855347",
".. c #8D5547",
"X. c #8C5448",
"o. c #945646",
"O. c #9A5746",
"+. c #9C5846",
"@. c #97554A",
"#. c #894E4B",
"$. c #A35A45",
"%. c #AB5D43",
"&. c #A95A48",
"*. c #B35B44",
"=. c #B36043",
"-. c #BD6241",
";. c #B56249",
":. c #906D42",
">. c #C35C43",
",. c #C46944",
"<. c #E77244",
"1. c #F77746",
"2. c #3C831B",
"3. c #38941B",
"4. c #3D8524",
"5. c #42851D",
"6. c #448D1E",
"7. c #418617",
"8. c #548819",
"9. c #49931E",
"0. c #48961D",
"q. c #45800F",
"w. c #779B1A",
"e. c #609019",
"r. c #448323",
"t. c #4A8526",
"y. c #458A21",
"u. c #4A8D23",
"i. c #4A852A",
"p. c #568C2B",
"a. c #5A8E2D",
"s. c #54852B",
"d. c #4D9325",
"f. c #519926",
"g. c #559828",
"h. c #4E8933",
"j. c #679726",
"k. c #7D9E22",
"l. c #779D2E",
"z. c #6C9A35",
"x. c #669832",
"c. c #719E37",
"v. c #678E21",
"b. c #5AA02A",
"n. c #7EA026",
"m. c #6AA232",
"M. c #7BA33B",
"N. c #79A235",
"B. c #6AA228",
"V. c #6A9941",
"C. c #7CA868",
"Z. c #82A32C",
"A. c #84A529",
"S. c #86A633",
"D. c #8BA935",
"F. c #8BAA3A",
"G. c #85A937",
"H. c #92AE3B",
"J. c #98B33B",
"K. c #84B03F",
"L. c #FF823D",
"P. c #82935B",
"I. c #8DAB42",
"U. c #92AE43",
"Y. c #93AF49",
"T. c #96B146",
"R. c #96B148",
"E. c #9BB449",
"W. c #98B246",
"Q. c #99B656",
"!. c #A3BA4B",
"~. c #A1B74D",
"^. c #A2BA5B",
"/. c #99B666",
"(. c #A6BE68",
"). c #A5C256",
"_. c #AAC06E",
"`. c #ADC273",
"'. c #B3C77A",
"]. c #BAD177",
"[. c #8D9191",
"{. c #929696",
"}. c #808585",
"|. c #9FA2A2",
" X c #B8BABA",
".X c #B9CB88",
"XX c #BECF91",
"oX c #B2D396",
"OX c #BBD2B3",
"+X c #C3D48A",
"@X c #C1D293",
"#X c #C7D59B",
"$X c #CCD9A8",
"%X c #D2DEB4",
"&X c #D6E1BB",
"*X c #D9E3BC",
"=X c #E0E6BC",
"-X c #BEC1C1",
";X c #CCCECE",
":X c #C0C3C2",
">X c #DCDDDD",
",X c #D3D4D4",
"<X c #CAD6C7",
"1X c #DDE6C7",
"2X c #D9E6D5",
"3X c #E1E9CA",
"4X c #E6EDD3",
"5X c #E8EED8",
"6X c #EBF1DB",
"7X c #F1F7DE",
"8X c #DFE0E0",
"9X c #E2E3E3",
"0X c #EDEDED",
"qX c #E7E8E8",
"wX c #F5F7E8",
"eX c #FAFBF3",
"rX c #FFFFFF",
"tX c #F6F7F2",
"yX c #EFF3E4",
"uX c None",
/* pixels */
"uXuXuXuXuXuXuXuXuXuXuXuXuXuXuXuXuXuXuXuXuXuX$ $ $ $ < $ uXuXuXuXuXuXuXuXuXuXuXuXuXuXuXuXuXuXuXuXuXuX",
"uXuXuXuXuXuXuXuXuXuXuXuXuXuXuXuXuXuXuXuXuX$ W |.[.[.|.E $ uXuXuXuXuXuXuXuXuXuXuXuXuXuXuXuXuXuXuXuXuX",
"uXuXuXuXuXuXuXuXuXuXuXuXuXuXuXuXuXuXuXuX. W 0XeXeXtXrX0XH X uXuXuXuXuXuXuXuXuXuXuXuXuXuXuXuXuXuXuXuX",
"uXuXuXuXuXuXuXuXuXuXuXuXuXuXuXuXuXuXuX  H 0XrXrXrXrXrXrXqXG . uXuXuXuXuXuXuXuXuXuXuXuXuXuXuXuXuXuXuX",
"uXuXuXuXuXuXuXuXuXuXuXuXuXuXuXuXuXuX. G qXrXrXrXrXrXrXrXrXqXF . uXuXuXuXuXuXuXuXuXuXuXuXuXuXuXuXuXuX",
"uXuXuXuXuXuXuXuXuXuXuXuXuXuXuXuXuX  G 9XrXrXrXrXrXrXrXrXrXrX9XF   uXuXuXuXuXuXuXuXuXuXuXuXuXuXuXuXuX",
"uXuXuXuXuXuXuXuXuXuXuXuXuXuXuXuX  H 9XrXrXrXrXrXrXrXrXrXrXrXrX>XG   uXuXuXuXuXuXuXuXuXuXuXuXuXuXuXuX",
"uXuXuXuXuXuXuXuXuXuXuXuXuXuXuX  E 8XrXrXrXrXrXrXrXrXrXrXrXrXrXrX8XJ   uXuXuXuXuXuXuXuXuXuXuXuXuXuXuX",
"uXuXuXuXuXuXuXuXuXuXuXuXuXuX  H 8XrXrXrXrXrXrXrXrXrXrXrXrXrXrXrXrX>XJ   uXuXuXuXuXuXuXuXuXuXuXuXuXuX",
"uXuXuXuXuXuXuXuXuXuXuXuXuX  H >XrXrXrXrXrXrXrXrXrXrXrXrXrXrXrXrXrXrX>XJ   uXuXuXuXuXuXuXuXuXuXuXuXuX",
"uXuXuXuXuXuXuXuXuXuXuXuX  H >XrXrXrXrXrXrXrXrXrXrXrXrXrXrXrXrXrXrXrXrX>XJ   uXuXuXuXuXuXuXuXuXuXuXuX",
"uXuXuXuXuXuXuXuXuXuXuX  E >XrXrXrXrXrXrXrXrXrXrXrXrXrXrXrXrXrXrXrXrXrXrX>XJ   uXuXuXuXuXuXuXuXuXuXuX",
"uXuXuXuXuXuXuXuXuXuX  H >XrXrXrXrXrXrXrXrXrXrXrXrXrXrXrXrXrXrXrXrXrXrXrXrX>XG   uXuXuXuXuXuXuXuXuXuX",
"uXuXuXuXuXuXuXuXuX  E >XrXrXrXrXrXrXrXrXrXrXrXrXrXrXrXrXrXrXrXrXrXrXrXrXrXrX>XG   uXuXuXuXuXuXuXuXuX",
"uXuXuXuXuXuXuXuX  E 9XrXrXrXrXrXrXrXrXrXrXrXrXrXrXrXrXrXrXrXrXrXrXrXrXrXrXrXrX>XJ   uXuXuXuXuXuXuXuX",
"uXuXuXuXuXuXuX  W 9XrXrXrXrXrXrXrXrXrXrXrXrXrXrXrXrXrXrXrXrXrXrXrXrXrXrXrXrXrXrX>XH   uXuXuXuXuXuXuX",
"uXuXuXuXuX$ 3 W qXrXrXrXrXrXrXrXrXrXrXrXrXrXrXrXrXrXrXrXrXrXrXrXrXrXrXrXrXrXrXrXrX9XW 3 % uXuXuXuXuX",
"uXuX    F {.:X0XrXrXrXrXrXrXrXrXrXrXrXrXrXrXrXrXrXrXrXrXrXrXrXrXrXrXrXrXrXrXrXrXrXrX0X-X[.N     uXuX",
"uX2 J W :XrXrXrXrXrXrXrXrXrXrXrXrXrXrXrXrXrXrXrXrXrXrXrXrXrXrXrXrXrXrXrXrXrXrXrXrXrXrXrXrX XE J 2 uX",
"1 [.tXrXrXrXrXrXrXrXrXrXrXrXrXrXrXrXrXrXrXrXrXrXrXrXrXrXrXrXrXrXrXrXrXrXrXrXrXrXrXrXrXrXrXrXrXtX}.+ ",
"1 |.rXrXrXrXrXrXrXrXrXrXrXrXrXrXrXrXrXrXrXrXrXrXrXrXrXrXrXrXrXrXrXrXrXrXrXrXrXrXrXrXrXrXrXrXrXrX[.+ ",
"+ J ,XrXrXrXrXrXrXrXrXrXrXrXrXrXrXrXrXrXrXrXrXrXrXrXrXrXrXrXrXrXrXrXrXrXrXrXrXrXrXrXrXrXrXrXrX;XF + ",
"uX+ m ;XrXrXrXrXrXrXrXrXrXrXrXrXrXrXrXrXrXrXrXrXrXrXrXrXrXrXrXrXrXrXrXrXrXrXrXrXrXrXrXrXrXrX;X2 . uX",
"uXuX  2 ;XrXrXrXrXrXrXrXrXrXrXrXrXrXrXrXrXrXrXrXrXrXrXrXrXrXrXrXrXrXrXrXrXrXrXrXrXrXrXrXrX;X2   uXuX",
"uXuXuX  2 ;XrXrXrXrXrXrXrXrXrXrXrXrXrXrX6X1X5XeXrXrXrXrXrXrXrXrXrXrXrXrXrXrXrXrXwX4X7XeX-Xm X uXuXuX",
"uXuXuXuXuXz ;XrXeXrXrXeXrXrXrXrXrXrXrXtX@XF.Q.&XrXrXrXrXrXrXrXrXrXrXrXrXrXrXrXrX*X).).P.2 uXuXuXuXuX",
"uXuXuXuX  X R oXXX.X.X.X.X1XrXrXrXrXrXrX%XY.Z.XXrXrXrXrXrXrXrXrXrXrXrXrXrXrXrXrX6X.XJ.l   X uXuXuXuX",
"uXuXuX$ $ & 7 m.E.^.Q.R.k.I.&XrXrXrXrXrXrX%XI..XeXrXrXrXrXrXrXrXrXrXrXrXrXrXrXrXrX7X].l ; + $ uXuXuX",
"# o % q 8 8 y E.&X4X4X*X(.w.I.&XrXrXrXrXrX1XQ.XXrXrXrXrXrXrXrXrXrXrXrXrXrXrXrXrXrXeX+Xv.8 r q $ o # ",
"# = q r.b.B.A.+XeXrXrXrX6X_.A.XXrXrXrXrX4XXX.X3XrXrXrXrXrXeX%X#X6XrXrXrXrXrXrXrXrXeX+XA.B.b.r.q = # ",
"% e u.f.c.H.J.#XeXrXrXrXrX&XI._.6XrXrX4X_.`.yXeXrXrXrXrXrX$XF.k.'.wXrXeXtXeXrXrXrX4X_.J.H.m.f.u.6 # ",
"= w f.f.c.J.J.+XtXrXrXrX4X`.S.I.(.'..X(.Z.`.rXrXrXrXrXrX$XY.k.w.I.`..X_.'.4XrXrX2XC.a.N.T.N.f.d.q # ",
"$ : r d.x.N.l./.OXOX<X&X`.F._.XX(.F.k.A.k.Q.%XrXrXrXrX$XY.A.D.F.F.Z.Z.w.A.'.3X<XC.0 0 a.N.m.d.t - # ",
"uX# = r f.f.d.u.i.h.V.I.A.^.3XtX4X_.A.A.D.S.Q.%XrXrX%XY.Z.F.Y.R.Y.F.F.S.S.U.Y.V.y 9 2.p.g.g.r = # uX",
"uXuXo : t d.d.2.0 q.j.w.A.'.tXrXeX@XD.H.Y.S.Z.(.$X#XQ.S.D.Y.E.E.E.R.Y.Y.Y.H.A.j.u.y.u.g.u.t = # uXuX",
"uXuXuXo - t r 9 r.N.!.J.D.).=XwX3X/.l.N.Y.W.H.D.S.S.D.U.E.I.M.M.I.E.E.E.E.W.!.!.M.r.8 r w : o uXuXuX",
"uXuXuXuXuX$ $ - r.I.!.E.H.Y.^.'.^.x.5.s.M.E.E.H.D.D.U.E.E.c.i.y.x.I.E.R.R.R.E.!.M.y - = = uXuXuXuXuX",
"uXuXuXuXuXuXO < a m.c.c.z.j.e.e.8.5.9 9 a.M.E.~.E.E.~.E.M.a.9 9 u.x.c.z.z.z.c.N.b.a 2 , O uXuXuXuXuX",
"uXuXuXuXuXuX, : r.d.t.r.r.r.y 7.5.a a 5.4.a.M.I.I.I.I.M.a.2.y.s s y.5.r.a r.a r.d.s.D x < uXuXuXuXuX",
"uXuXuXuXuX# 1 S i.y.2.a 5.5.5.6.d i g r.6.r.p.a.p.p.a.s.r.6.i.i i r.6.5.r.5.r.5.6.i.D K x < # uXuXuX",
"uXuXuXuXuXo c Q y.3.4.6.y.y.d.r.i N N g r.y.r.4.9 a a 5.d.t.g B B g t.9.9.u.y.9.0.r.S T T 1 O uXuXuX",
"uXuXuXuXuX3 ! :.h.4.s.i.4.4.4.h Z n n V f u.6.y.y.6.6.6.t.g B v v V f t.t.s i.d 4.u S U X.5 $ uXuXuX",
"uXuXuX@ 4 ^ <.-.~ Y k Y D M M Z #.#.P v C h u.d.u.d.9.t.g V B v A v V i i S S S w F T @.%./ ! % uXuX",
"uXuXuX@ p | L.| >.$.$.*.&.U A T O.$.U N x C u h j d d f V A B V V B A v v b v A I T X.@.;.1.( > @ uX",
"uXuXuX@ p { 1.[ _ *.*.` ] / $.@.$.%.Y B b B V C B V V C N N B V B B B B N N Z #.O.O.@...&.<./ > uXuX",
"uXuXuXuX4 ;.,.%.%.-.) } ) >.,.( ( ) %.Y P Y U A v U I c m C N V B C C m N Z  .$.$.+.o...&.<./ uXuXuX",
"uXuXuXuXuXX.+...%.) ' ( %.*.) } } } ) -.%.*.o.P P o. .L Z L Z V A Z A C Z ..$.+.O.@.o...$.<./ uXuXuX",
"uXuXuXuXuXuXuXuX) } ( $.=.) ' ' ' ' ' ` { ( $.....O.O...o.+. .Z L  .L Z Y $.+.O.o.o.o...uXuXuXuXuXuX",
"uXuXuXuXuXuXuXuXuXuXuXuX=.[ } ` ` ` ' [ } ' / %.o.o.O.+.$.%.O.L P o.P D o.%.O.o.uXuXuXuXuXuXuXuXuXuX",
"uXuXuXuXuXuXuXuXuXuXuXuX=.' [ ` ` ` ` ` ' } { -.o.o.o.O.+.$.o.Z L ..P Z  .$.O.uXuXuXuXuXuXuXuXuXuXuX"
};
