/* XPM */
static char *_0797_0ab257019c6ada25e229deb5aed17edb5b8a6d37d0fe0530d953c778589cb034[] = {
/* columns rows colors chars-per-pixel */
"50 50 218 2 ",
"   c #00060D",
".  c #030313",
"X  c #010E13",
"o  c #0A0C14",
"O  c #0B0E19",
"+  c #140E19",
"@  c #041215",
"#  c #0C1315",
"$  c #0D131A",
"%  c #05141A",
"&  c #11161A",
"*  c #141B1B",
"=  c #1A1B1D",
"-  c #151818",
";  c #211E1C",
":  c #1B231C",
">  c #1A251D",
",  c #212E1E",
"<  c #24221D",
"1  c #131B22",
"2  c #1D2B23",
"3  c #172624",
"4  c #1B382C",
"5  c #15262C",
"6  c #292420",
"7  c #2C2923",
"8  c #282729",
"9  c #3C2D24",
"0  c #362D26",
"q  c #23392A",
"w  c #3B312A",
"e  c #2C2A31",
"r  c #332B34",
"t  c #343836",
"y  c #2C3032",
"u  c #443327",
"i  c #4A3529",
"p  c #553B2C",
"a  c #543F33",
"s  c #633D2D",
"d  c #2C452C",
"f  c #344823",
"g  c #3D5424",
"h  c #3C592C",
"j  c #2D4C32",
"k  c #274432",
"l  c #2C5839",
"z  c #335B3C",
"x  c #385637",
"c  c #38673E",
"v  c #415A26",
"b  c #445F28",
"n  c #5A4237",
"m  c #495A3A",
"M  c #654939",
"N  c #694836",
"B  c #754B35",
"V  c #784A34",
"C  c #6F5035",
"Z  c #4A6728",
"A  c #506F2A",
"S  c #57792C",
"D  c #597E2E",
"F  c #54742A",
"G  c #4D7237",
"H  c #557D35",
"J  c #486D35",
"K  c #626E3E",
"L  c #3D3B46",
"P  c #463E49",
"I  c #543746",
"U  c #3C5448",
"Y  c #3C4D4C",
"T  c #3A6C43",
"R  c #397D4C",
"E  c #3E7452",
"W  c #367E50",
"Q  c #387F50",
"!  c #46434C",
"~  c #4A474A",
"^  c #534445",
"/  c #5A4E4D",
"(  c #584547",
")  c #43554C",
"_  c #4B5C4C",
"`  c #49554A",
"'  c #58584B",
"]  c #674A43",
"[  c #774E45",
"{  c #695148",
"}  c #785444",
"|  c #645351",
" . c #745B54",
".. c #7C5C50",
"X. c #4D624B",
"o. c #46694B",
"O. c #596445",
"+. c #44744D",
"@. c #447B4D",
"#. c #4A7E4B",
"$. c #487642",
"%. c #426650",
"&. c #576A54",
"*. c #417651",
"=. c #427B50",
"-. c #557552",
";. c #567646",
":. c #636744",
">. c #6C7747",
",. c #767A4F",
"<. c #86553A",
"1. c #87563A",
"2. c #9A5F3E",
"3. c #945B3C",
"4. c #814C35",
"5. c #A85E3E",
"6. c #9F613F",
"7. c #83653E",
"8. c #A4623D",
"9. c #AC633E",
"0. c #8D5D45",
"q. c #855846",
"w. c #945D44",
"e. c #86574A",
"r. c #8B6B41",
"t. c #846A43",
"y. c #986547",
"u. c #886354",
"i. c #996A56",
"p. c #8C7549",
"a. c #A46341",
"s. c #AA6642",
"d. c #AC6945",
"f. c #AB6B4A",
"g. c #A56949",
"h. c #B36A44",
"j. c #B36D4A",
"k. c #BB6B4B",
"l. c #B96C45",
"z. c #BB714C",
"x. c #B7704C",
"c. c #A56D54",
"v. c #AD7155",
"b. c #A77757",
"n. c #B57354",
"m. c #B97453",
"M. c #B57659",
"N. c #BD7A5A",
"B. c #B97859",
"V. c #C4744A",
"C. c #C97449",
"Z. c #C27553",
"A. c #C47A55",
"S. c #CB7B54",
"D. c #C47D5C",
"F. c #CB7C5A",
"G. c #D17D52",
"H. c #5B8738",
"J. c #5E923F",
"K. c #628A2F",
"L. c #6F9E36",
"P. c #64953D",
"I. c #66993C",
"U. c #6B9B39",
"Y. c #6B9433",
"T. c #709F36",
"R. c #76963A",
"E. c #6F8F35",
"W. c #7DAB2F",
"Q. c #7DB42F",
"!. c #6CA239",
"~. c #75A434",
"^. c #78A732",
"/. c #75A835",
"(. c #7BAA32",
"). c #71A53C",
"_. c #7EB136",
"`. c #7DB33A",
"'. c #3B814E",
"]. c #36814C",
"[. c #3E8850",
"{. c #4F8747",
"}. c #44834D",
"|. c #4C824B",
" X c #4C8C4C",
".X c #478B4C",
"XX c #528647",
"oX c #558945",
"OX c #5A8D42",
"+X c #518448",
"@X c #518B4D",
"#X c #5D9241",
"$X c #599548",
"%X c #4A8451",
"&X c #4C8A54",
"*X c #438952",
"=X c #528D54",
"-X c #588B53",
";X c #549555",
":X c #629541",
">X c #659D46",
",X c #708853",
"<X c #69A449",
"1X c #72AB43",
"2X c #81B435",
"3X c #84BA39",
"4X c #88BE38",
"5X c #83B737",
"6X c #8AC139",
"7X c #CB815E",
"8X c #D7835B",
"9X c #E0885E",
"0X c #C98161",
"qX c #D38562",
"wX c #DB8A63",
"eX c #D78862",
"rX c #E99067",
"tX c None",
/* pixels */
"tXtXtXtXtXtXtXtXtXtXtXtXtXtXtXtXtXtXtXtX& * & $ $ $ O O $ & & * * tXtXtXtXtXtXtXtXtXtXtXtXtXtXtXtXtX",
"tXtXtXtXtXtXtXtXtXtXtXtXtXtXtXtXtXtXtX& f b v v v v v v v v v b f : tXtXtXtXtXtXtXtXtXtXtXtXtXtXtXtX",
"tXtXtXtXtXtXtXtXtXtXtXtXtXtXtX* : & $ f E.`.`.~./.~.~./.~.~./.5XT.v * & : : tXtXtXtXtXtXtXtXtXtXtXtX",
"tXtXtXtXtXtXtXtXtXtXtXtXtXtX: Z K.D F K./.5X2X2X`.`.(.2X`.2X5X3X`.Y.S D K.A 7 @ tXtXtXtXtXtXtXtXtXtX",
"tXtXtXtXtXtXtXtXtXtXtXtXtX: Z /.4X5X2X`.~.~./.~.~.~.~.^.~./.~././._.`.3X6X2XD , tXtXtXtXtXtXtXtXtXtX",
"tXtXtXtXtXtXtXtXtXtXtXtX& Z /.3X/._././.~.~.T.~.~.~.~.T.~.T.~.T.~././.(._.3X2XS : o tXtXtXtXtXtXtXtX",
"tXtXtXtXtXtXtXtXtXtXtX. & S 4X_.~.~.~.~.~.~.~.~.~.~.~.~.~.~.~.~.~.~.~.~.~._.6XY.> . tXtXtXtXtXtXtXtX",
"tXtXtXtXtXtXtXtXtXtX: > q S 2X_.~.~.~.~.~.~.T.~.~.~.~.~.T.~.~.~.~.~.~.~.~.(.3XY.d $ tXtXtXtXtXtXtXtX",
"tXtXtXtXtXtXtXtXtX, A H $.H.(.(.~.~.~.~.~.~.~.~.~.~.~.~.~.~.~.~.~.~.~.^.^.^.(.1X$.4 $ tXtXtXtXtXtXtX",
"tXtXtXtXtXtXtXtX, S `.<X=X:XW.W.~.~.~.~.~.~.~.~.~.T.~.~.~.T.~.~.~.~.~.^.W.^.U.<X<Xx $ tXtXtXtXtXtXtX",
"tXtXtXtXtXtXtX* A 2X3X>XXXOXU.T.~.^.^.^.~.^.~.~.~.~.~.T.T.~.^.^.^.^.^.T.T.Y.oX$X).D : tXtXtXtXtXtXtX",
"tXtXtXtXtXtXtX* S 4X5X~.P.oX|.+XI.~.W.^.W.^.W.^.(.(.(.(.2X(.(.(.W.W.T.oX|.|.OXU.~.^.A > tXtXtXtXtXtX",
"tXtXtXtXtXtX. # A _.2X(.~.P.|.|.oXP.P.P.I.U.U.L.L.U.U.U.E.I.I.I.U.P.#X+X#.oXP.~.(.5X5XZ 1 tXtXtXtXtX",
"tXtXtXtXtX$ . * A (._./.~.T.L.U.J.|.#.#.|.#.#.|.|.#.#.#.#.#.#.#.#.#.oXI.U.T.^.^./.5X`.>XU 1 tXtXtXtX",
"tXtXtXtX- f h x H.(.(.~.~.^.W.W.U.J.J.J.#X|.+.E E E #.OXP.OXOXOXoXoXP.~.(.^.^.~.^.(.`.<XT 5 $ tXtXtX",
"tXtXtXO g L.<X@XP.(.(.~.~.~.~.~.~.T.~.^.~.U.XX@.@.|.P.~.^.~.^.~.~.~.~.~.^.^.^.^.^.^.>X>XJ 1 o tXtXtX",
"tXtXo g T.5X>X=X#X~.W.T.~.~.~.~.^.(.^.2XW.^.U.XX|.P.^.W.W.^.W.^.W.^.^.~.~.^.^.^.~.I.OX>XH , . tXtXtX",
"tX= v L.5X2XU.H.oXY.^.2XW.W.(.~.^.W.W.W.W.^.P.+X#.J.~.W.W.W.W.W.(.^.W.W.W.(.U.P.OXoX:X).~.Z - tXtXtX",
"* g T.2X2X^.^.U.oXoXU.~.~.~.~.~.~.T.T.T.!.J.|.@.+.#.#X!.^.~.T.T.L.~.L.~.~.U.oX@.#.OXU.(.2X(.A * tXtX",
"= Z 2X4X^.~.W.^.U.P.oXoXoXoXXX+X+X+XXXH.XX|.E +.+.E #.oXOXOXoXoXoXXXXXoXoXXX@.@.OXT.^.(.(.5X`.F > $ ",
"* h ).`.(.^.^.^.~.P.@.E E #.{.{.|.+X+XXXXXXXXXoXoX+X#.*.+.@.E #.+XXX+X|.XX|.+.#.L.W.(.~.~.(.4X(.v $ ",
"* k oX1X^.W.^.T.J.#.+.E #.J.L.L.U.U.U.U.U.L.L.T.~.~.P.@.E E @.oXU.T.L.L.T.I.+XoXL.(.(.~./.(.4X~.v & ",
"$ 3 l J.2X2XT.oX@.@.oXOXP.L.W.W.^.^.W.^.^.^.^.^.(.W.~.OX#.@.oXU.^.W.(.W.W.(.U.oXOXU.^.(.2X2X_.:Xd + ",
"tXtX* A 4X5XP.#.@.oXL.^.~.~.~.~.^.^.^.^.^.^.^.^.^.^.(.~.#XOXL.W.^.^.~.~.~.W.W.U.XXoXU.~.T.^.<X+Xk O ",
"tXtX$ x 1X`.:X|.oX~.^.W.~.~.~.~.T.~.~.~.~.~.~.~.~.^.^.(.~.L.~.W.(.~.~.~.~.W.2XY.%X#.+XoX$X$X;X%Xk & ",
"tXtX& 4 $.<X:X@XI.W.W.~.~.~.~.~.~.~.~.~.~.~.~.(.(.W.~.U.I.I.I.T.(.(.W.(.W.W.~.#X|.=.#.%X=X=X|.z 2 & ",
"tXtXtX$ 4 T %X=XI.~.W.(./.~.~.~.^.~.^.^.^.^.^.~.^.^.P.|.|.|.{.J./.(././.^.~.:X%X%X=X%X#.%X#.x 2 tXtX",
"tXtXtXtXo 3 z }.$XI./.W.W.W.W.W.W.^.^.^.W.W.^.P.OXOXXX#.=.R }. X$X#X#X#X#X#X=X&X=X;X-XT j q 2 tXtXtX",
"tXtXtXtXtX+ t o.%X@X!.!.L.L.L.!.T.L.L.!.L.~.U.oX@.@.}.|.+.%.%.%.%.%.o.%X&X X+.T +.@.c 8 o o tXtXtXtX",
"tXtX# # = r ~ ~ o.|. XoX@X+XoX+XXXXX{.XX{.XX{.}.#.}.}.+._ ~ ~ ~ ! ~ ) *.*X+.k > > 2 2 * tXtXtXtXtXtX",
"tX8 d l x _ &.' _ _ _ +.}.*X%X}.'.'.W W R W ].}..X}.+._ ' H :.:.K K :._ U q #   X o tXtXtXtXtXtXtXtX",
"* j }.;X|.%X|.#.X.~ ! ) R @.=.=.#.;.+X#.#.#.#.@.@.+.X.' E.W._./././.R.O.t 3 = - tXtXtXtXtXtXtXtXtXtX",
"> j =X;X;X X X.X}.X.~ ! ) ) U ) :.r.r.6.7.r.t.' Y ) O.E.^.Q.Q.Q.Q.Q.(.Y.G c C N = @ @ tXtXtXtXtXtXtX",
"& d -.;X X X;X.Xc x ] [ ] ] ^ ! ( [ q.w.k.C.l.e.I L X.J.!.!.^.W.W.W.(.!.$X,Xb.d.V i 7 * tXtXtXtXtXtX",
"+ e ` -.=X X*XT 4 8 C g.s.5.q.^ ! ^ ^  .v.F.F.k.q.I ) }..XoXL.^.(.~.~.$X*X-Xp.9.5.9.3.u % tXtXtXtXtX",
"tX1 r ` &.&.U 4 5 8 n y.Z.S.j.q.{ C { {  .i.0XG.l.q.O.R W }.oXJ.J.#XoX}.*X#.m i s 2.C.8.u # tXtXtXtX",
"tXtX= r ! a w 9 n | | u.m.7XA.j.8.8.8.1.]  .n.A.k.9.7.;.R W R R R '.'.[.].l 2 X @ 9 6.V.6.u = tXtXtX",
"tXtXtX= 1 1 u V c.M.b.g.f.m.7X7Xz.9.9.8.3.w.s.d.s.9.5.r.;.].'.R R R *X}.z 2 X tXtX@ 0 6.z.8.1.tXtXtX",
"tXtXtXtX.   6 } v.S.8X7Xx.j.B.7XA.8.8.9.z.z.x.j.f.j.k.f.r.>.,.,X,.>.>.>.K 9 o tXtXtX@ 0 1.V.tXtXtXtX",
"tXtXtXtXtX& t { y.f.n.N.A.z.j.B.m.8.3.y.c.c.b.M.F.F.A.m.s.g.M.N.B.d.a.d.9.3.i ; - # tXtXtXtXtXtXtXtX",
"tXtX@   : { i.c.n.i...u.j.C.y.e.y.w.q./ / /  .c.qXqXN.j.k.Z.F.Z.k.k.k.Z.S.7Xc.y.B 9 o   tXtXtXtXtXtX",
"tX* < 0 s f.eXwXwXD.i.{ B V M t ^ t.e.| | / | u.v.S.A.Z.D.D.m.d.s.n.D.7X0XwXrXrX8X3.i , = tXtXtXtXtX",
"* u <.2.y.s.A.7XqXF.M.{ < - - & 5 ( i.M.M.M.c. .{ y.j.Z.F.D.j.f.n.N.7X0X7X7X7X7X7Xz.d.8.B < tXtXtXtX",
"n <.h.l.s.8.d.f.} M M u & tX@ @ % y i.wXwX9XD. .L w p N g.Z.m.n.D.D.eXeXc.M a n M 0.V.G.l.V 0 tXtXtX",
"9.a.s.a.8.a.h.2.u @ @ & tXtXtXtXtX* q.eXwX8XB.| 5 % X # i a.A.D.D.D.7Xv.n * X @ # 9 1.h.C.l.N * tXtX",
"9.s.a.6.a.tXtXtXtXtXtXtXtXtXtXtXtX* q.8XwXeXM.n $ tXtXtX# a v.qXqX0Xv.a * tXtXtXtX# 0 V V.V.N * tXtX",
"8.a.a.6.a.tXtXtXtXtXtXtXtXtXtXtXtX: B 8XwXeX7Xq.w tXtXtXtX7 y.eXwXqXw.6 tXtXtXtXtXtX& N V.V.N # tXtX",
"tXtXtXtXtXtXtXtXtXtXtXtXtXtXtXtXtX* n d.D.0X7XD.0.w & tXtXtXtXtXtXtXtXtXtXtXtXtXtXtXtXtXtXtXtXtXtXtX",
"tXtXtXtXtXtXtXtXtXtXtXtXtXtXtXtXtXtX: p a.z.x.V.f.1.B tXtXtXtXtXtXtXtXtXtXtXtXtXtXtXtXtXtXtXtXtXtXtX",
"tXtXtXtXtXtXtXtXtXtXtXtXtXtXtXtXtXtX@ < <.d.a.s.d.h.z.tXtXtXtXtXtXtXtXtXtXtXtXtXtXtXtXtXtXtXtXtXtXtX"
};
