/* XPM */
static char *_0594_3b1db0607eb6126cda02815c2768967dd2656217f63710d290ea5430770429f6[] = {
/* columns rows colors chars-per-pixel */
"50 50 213 2 ",
"   c #010215",
".  c #0B0D15",
"X  c #070B18",
"o  c #090D18",
"O  c #000F16",
"+  c #0F1217",
"@  c #061518",
"#  c #0D1419",
"$  c #0E181B",
"%  c #011217",
"&  c #11161A",
"*  c #131B1B",
"=  c #14181A",
"-  c #15211D",
";  c #1A231E",
":  c #1C2216",
">  c #1F311F",
",  c #242C1E",
"<  c #24331F",
"1  c #141521",
"2  c #351C21",
"3  c #1A2722",
"4  c #2C3420",
"5  c #263A24",
"6  c #323B21",
"7  c #323537",
"8  c #3D2E2B",
"9  c #4C3227",
"0  c #523222",
"q  c #5E3A35",
"w  c #693C28",
"e  c #2D4422",
"r  c #29432A",
"t  c #314B24",
"y  c #384724",
"u  c #355225",
"i  c #3D5926",
"p  c #3C5526",
"a  c #2C4934",
"s  c #2D4730",
"d  c #355A39",
"f  c #315134",
"g  c #38643D",
"h  c #435C26",
"j  c #475D28",
"k  c #514F2D",
"l  c #664539",
"z  c #446429",
"x  c #496829",
"c  c #537C2D",
"v  c #567627",
"b  c #4F702B",
"n  c #646E2B",
"m  c #6B762D",
"M  c #737F2E",
"N  c #443F4B",
"B  c #3C454C",
"V  c #395E4E",
"C  c #3C634D",
"Z  c #3A6A48",
"A  c #3C7C4E",
"S  c #3F704A",
"D  c #3C7950",
"F  c #46444B",
"G  c #4B454A",
"H  c #484A4B",
"J  c #55494A",
"K  c #56464A",
"L  c #44594C",
"P  c #575E4B",
"I  c #554B50",
"U  c #6C4E4A",
"Y  c #674749",
"T  c #704649",
"R  c #754C48",
"E  c #795047",
"W  c #7C5248",
"Q  c #765148",
"!  c #705A4E",
"~  c #4A634B",
"^  c #48694C",
"/  c #56684C",
"(  c #44744B",
")  c #447D4D",
"_  c #497E4C",
"`  c #477547",
"'  c #447C50",
"]  c #676749",
"[  c #776749",
"{  c #6C7349",
"}  c #96533C",
"|  c #B95C33",
" . c #C45F3F",
".. c #C4633F",
"X. c #CD663E",
"o. c #CA6438",
"O. c #D4693D",
"+. c #DC6A3B",
"@. c #E46D3A",
"#. c #EA6E39",
"$. c #ED7039",
"%. c #F37239",
"&. c #FC763C",
"*. c #FB773A",
"=. c #845246",
"-. c #8D5547",
";. c #885548",
":. c #955646",
">. c #9B5645",
",. c #9B5846",
"<. c #9A5949",
"1. c #975749",
"2. c #804C47",
"3. c #A45A44",
"4. c #AA5B43",
"5. c #A45C4A",
"6. c #AC5F4F",
"7. c #B35D42",
"8. c #B85D42",
"9. c #8C6147",
"0. c #BB6141",
"q. c #B46247",
"w. c #A8604C",
"e. c #C96948",
"r. c #D36941",
"t. c #5B822E",
"y. c #5C8E38",
"u. c #5F923D",
"i. c #5E993F",
"p. c #64892F",
"a. c #698F31",
"s. c #658D30",
"d. c #6D9D34",
"f. c #63953D",
"g. c #659A3C",
"h. c #6B9D39",
"j. c #679431",
"k. c #719F34",
"l. c #769632",
"z. c #778330",
"x. c #7DAB2E",
"c. c #76A62F",
"v. c #6EA234",
"b. c #6DA13A",
"n. c #67A03A",
"m. c #73A433",
"M. c #7AA634",
"N. c #75AA34",
"B. c #7BA933",
"V. c #75AA3B",
"C. c #7DB336",
"Z. c #3E844D",
"A. c #38884D",
"S. c #4D8947",
"D. c #43834D",
"F. c #4B834B",
"G. c #4B894C",
"H. c #48894C",
"J. c #528545",
"K. c #538B46",
"L. c #5A8E42",
"P. c #51864C",
"I. c #5C9143",
"U. c #599445",
"Y. c #498352",
"T. c #4C8A52",
"R. c #518C51",
"E. c #54955A",
"W. c #579857",
"Q. c #619541",
"!. c #639B44",
"~. c #859633",
"^. c #919F34",
"/. c #80AE2E",
"(. c #83AA35",
"). c #8BAD36",
"_. c #96AA36",
"`. c #84B237",
"'. c #8DB237",
"]. c #86BA38",
"[. c #88B838",
"{. c #93B137",
"}. c #9AB437",
"|. c #96B238",
" X c #9CB538",
".X c #9CBB39",
"XX c #A1AF38",
"oX c #A1B639",
"OX c #A5B939",
"+X c #ADBC3A",
"@X c #A6B838",
"#X c #B2BE3A",
"$X c #8CC53A",
"%X c #92C33A",
"&X c #9AC83B",
"*X c #A3C43B",
"=X c #A6C93C",
"-X c #AACC3D",
";X c #AFC43B",
":X c #B4C23B",
">X c #BAC33C",
",X c #B4CB3D",
"<X c #BBCA3D",
"1X c #B8D33E",
"2X c #A7D03D",
"3X c #C2C93D",
"4X c #C3D23E",
"5X c #C9D93F",
"6X c #CBDB40",
"7X c #C0DB40",
"8X c #D1DD40",
"9X c #D6E142",
"0X c None",
/* pixels */
"0X0X0X0X0X0X0X0X0X0X0X0X0X0X0X0X* $ # # # # # # # # # # # @ # * $ 0X0X0X0X0X0X0X0X0X0X0X0X0X0X0X0X0X",
"0X0X0X0X0X0X0X0X0X0X0X0X0X0X0X- e u e t t t t t t t t t t t u t 5 0X0X0X0X0X0X0X0X0X0X0X0X0X0X0X0X0X",
"0X0X0X0X0X0X0X0X0X0X0X= = o o i d.N.k.m.k.k.k.k.k.k.k.k.k.m.m.N.b * X & * 0X0X0X0X0X0X0X0X0X0X0X0X0X",
"0X0X0X0X0X0X0X0X0X  = j z.n n ~.=X=X*X*X*X*X*X*X*X*X*X*X*X*X=X-X_.m n M m 4       0X0X0X0X0X0X0X0X0X",
"0X0X0X0X0X0X0X0X* , k XX6X<X,X:X:X:X:X#X:X:X#X:X#X:X#X:X:X#X:X:X:X<X<X7X<Xm , , 4 ; 0X0X0X0X0X0X0X0X",
"0X0X0X0X0X    4 m ~.XX<X7X<X<X:X:X#X#X#X#X#X#X#X#X#X#X#X+X#X#X#X:X<X<X4X4XXX~.~.^.m ,     0X0X0X0X0X",
"0X0X0X0X= 4 6 M <X6X<X#X#X#X+X+X+X+X+X#X+X+X+X+X+X+X+X+X+X#X+X+X+X+X+X#X#X:X<X4X6X:Xm 6 4 = 0X0X0X0X",
"0X0X0XX k _.+X@X<X<X:X+X+X+X+X+X+X+X+X+X+X+X+X+X+X+X+X+X+X+X+X+X+X+X+X+X+X:X<X<X4X<X+X+X_.y o 0X0X0X",
"0X0X$ 5 ~.6X6X<X#X+X+X+X+X+X+X+X+X+XOX+X+X+X+X+X+X+X+X+X+X+X+X+X+X+X+X+X+X+X+X+X#X:X4X9X4Xl.< $ 0X0X",
"0X0X- c %X,X<X:X+X+X+X+X+X+X+X+X+X+X+X+X+X+X+X+X+X+X+X+X+X+X+X+X+X+X+X+X+X+X+X+X+XoX+X<X4X&Xc - 0X0X",
"0X0X; s.].'.oX#X#X+X+X+X+X+X+X+X+X+X+X+X+X+X+X+X+X+X+X+X+X+X+X+X+X+X+X+X+X+X+X#X}.M.B.}.<X=Xy.: 0X0X",
"0X0X$ p.].). X#X#X+X+X+X+X+X+X+X+X+X+X+X+X+X+X+X+X+X+X+X+X+X+X+X+X+X+X+X+X+X#X+X}.M.m.)..X$Xc # 0X0X",
"0X0X* ~.,XoX@X+X+X+X+X+X+X+X+X+X+X+X+X+X+X+X+X+X+X+X+X+X+X+X+X+X+X+X+X+X+X+X+X+XOX X X{.`.C.c * 0X0X",
"0X- j }.3X>X+X+X+X+X+X+X+X+X+X+X+X+X+X+X+X+X+X+X+X+X+X+X+X+X+X+X+X+X+X+X+X+X+X+X#X#X:X@X'.'.l.i * 0X",
"* u B.,X<X#X#X+X+X+X+X+X+X+X+X+X+X+X+X+X+X+X+X+X+X+X+X+X+X+X+X+X+X+X+X+X+X+X+X+X#X#X#X+X+X:X-XM.t # ",
"- x %X7X>X#X+X+X+X+X+X+X+X+X+X+X+X+X+X+X+X+X+X+X+X+X+X+X+X+X+X+X+X+X+X+X+X+X+X+X+X+X+X#X>X4X4X%Xz $ ",
"* e a..X;X#X+X+X+X+X+X+X+X+X+X+X+X+X+X+X+X+X+X+X+X+X+X+X+X+X+X+X+X+X+X+X+X+X+X+X+X+X+X+X:X:X.Xj.e $ ",
"X * t a..X#X#X+X+X+X+X+X+X+X+X+X+X+X+X+X+X+X+X+X+X+X+X+X+X+X+X+X+X+X+X+X+X+X+X+X+X+X+X+X;X.Xp.e $ # ",
"o $ t l.OX;X#X+X+X+X+X+X+X+X+X+X+X+X+X+X+X+X+X+X+X+X+X+X+X+X+X+X+X+X+X+X+X+X+X+X+X+X+X#X:X.Xp.e # . ",
"& e a.|.;X#X#X+X+X+X+X+X+X+X+X+X+X+X+X+X+X+X+X+X+X+X+X+X+X+X+X+X+X+X+X+X+X+X+X+X+X+X+X#X:X;X.Xp.5 o ",
"* z [.&X+X+X+X+X+X+X+X+X+X+X+X+X+X+X+X+X+X+X+X+X+X+X+X+X+X+X+X+X+X+X+X+X+X+X+X+X+X+X+X+X#X>X1X[.i # ",
"& z N.`.|.#X:X+X+X+X+X+X+X+X+X+X+X+X+X+X+X+X+X+X+X+X+X+X+X+X+X+X+X+X+X+X+X+X+X#X+X+X+X+X#X>X,X`.u # ",
"& z N.V.'.#X:X+X+X+X+X+X+X+X+X+X+X+X+X+X+X+X+XOX+X+X+X+X+X+X+X+X+X+X+X+X+X+X+X#X#X+X+X+X#X>X<XC.u . ",
"* z C.C.(.oX#X+X+X+X+X+X#X#X+X+X+X+X+X+X+X+X+X+X+X+X+XOX+X+X+X+X+X+X+X+X+X#X+X.XOX#X#X#X#X>X=X`.i # ",
"* h /.`.m.(.@X:X#X+X#X#X#X+X#X+X+X+X+X+X+X+X+X+X+X+X+X+X+X+X+X+X+X+X+X+X+X#XoX(.).#X#X>X+X.X[.N.p # ",
"& < v c.N.M.@X#X#X#X#X#XoX{.OX#X#X#X#X#X+X+X+X+X+X#X#X+X+X+X+X+X+X+X+X+X#X:X@X).(.oX#X#XoX(.d.x < # ",
"0X# 5 p.N.B. X#X#X#X#X+X).B.oX#X#X+X+X+X+X+X#X#X+X+X+X+X+X+X+X+X+X+X#X+X+X+X:X@X).(..XoX`.N.t.< o 0X",
"0X3 a _ b.x.).@X>X>X+X{.(._.+X#XOX_.|.+X#X+X#X#XOX{. X#X#X+X+X#X#X#X:X#X+X#X>X>X{.M.(.).N.N.d.h ; 0X",
"* a Y.E.U.v.m.'.+X#X{.M._.#X>X>XOX(.(.+X#X+X#X>XoXM.).#X#X#X#X#X#X+XOX+X#X>X>X+X).m.m.m.N.C.$XC.h # ",
"3 d W.E.R.U.d.x.).'.M.m._.#X6X>XOXM.M.+X>X#X#X#X Xm.).#X#X#X#X>XOX(.M.{.#X>X#X{.M.m.m.M.B.C.$X$Xx = ",
"* 5 g ( ( T.!.m.m.m.h.k.).oX+XOX|.M.M. X:X>X>X#X{.m.(.@X>X>X:X+X).v.j.M. X+X}.B.m.M.h.V.C.l.p.t.y & ",
"0X3 3 3 a ( R.I.m.m.m.k.M.M.(.(.M.k.k.(.OX>X#X|.M.k.b.(.+X>X#X_.m.v.b.m.(.(.(.m.m.b.I.!.j.h 5 , ; 0X",
"0X0X. . * a S G.Q.m.x.m.k.m.c.m.m.m.d.m.(. X}.(.v.v.d.m.).@X}.B.k.m.m.m.m.m.c.x.m.Q.P.` h :   o 0X0X",
"0X0X0X. # > Z ) P.f.M.x.c.m.v.d.m.m.v.m.M.B.M.m.d.c.m.v.m.m.m.m.m.m.m.m.m.k.m.m.f.P.F.V > . . 0X0X0X",
"0X0X0X& ; f ( Y.) F.f.B.x.m.f.f.m.x.m.N.m.m.m.f.I.k.c.c.v.u.u.h.x.M.M.M.M.h.I.L.J._ Y.) a 3 & 0X0X0X",
"0X0X0X. a R.W.T._ ' J.h.N.g.J.J.d.x.x.B.m.d.h.J.J.k././.x.u.) L.m.x.x.c.k.L._ ) _ F.R.W.Y.r + 0X0X0X",
"0X0X0X+ a R.E.H.D.D.D.K.L.K._ _ L.m.x.N.f.K.F.) P.d.x.x.x.g.' ) f.M.x.N.I.D.' ' D.F.T.W.R.s # 0X0X0X",
"0X0X0X& 5 d g g Z.H.H.Z.( ( ' D.H.i.v.n.K.) ) ) F.f.h.b.n.U.D.( J.f.b.g.F.D.H.G.G.D.g g d 5 & 0X0X0X",
"0X0X0X0X- - 3 s ) Y.A.D V L ( D.A F.S.S.) ) ) Z.F.S.S.H.S.F._ ) D.H.S.F.F.D._ P.R.` r 3 ; * 0X0X0X0X",
"0X0X0X0X0Xo 2 l ] / V V B B L ^ ^ C V V V S Z.Z.Z.D.A.A Z P { _ A.A.Z V ~ ~ ~ ^ ^ ~ 7 1 . 0X0X0X0X0X",
"0X0X0X0X0X# q 5.<.U G J J G B F F F F N F L ` F.) ) A S H Y -.{ H.F.P K G F F F H I I 7 O 0X0X0X0X0X",
"0X0X0X0X0X$ l 6.<.R 2.4...:.N N T R T T T R ! ! P L / ! G Y :.9.[ [ W T G N F F F I ! l # 0X0X0X0X0X",
"0X0X0X0X0X0 ,.w.1.:.0.#.*.O.=.E 3.4.4.4.4.4.7.7.:.U =.>.R Q } 7.:.,.3.=.K K J H F U 1.} 0 0X0X0X0X0X",
"0X0X0XO 9 o.$.0.1.7.@.%.%.#.O.X.+.@.+.+.@.+.@.@. .:.| ..,.4.X.0.:.3.3.W J l Q J J =.5.e.| 0 @ 0X0X0X",
"0X0X0XO l *.*.r.| o.#.$.#.#.$.$.$.#.$.$.#.#.%.%.O.4...+.q.0.@.0.-.:.3.R J U -.Q W 1.<.e.r.w @ 0X0X0X",
"0X0X0XO w $.&.$.+.@.#.@.@.@.$.$.#.@.#.@.#.#.%.%.O.>.8.+.7...@.0.-.:.>.W J U ,.,.:.1.<.q.4.9 @ 0X0X0X",
"0X0X0X0Xw @.&.$.#.@.@.@.@.@.@.@.@.@.@.@.@.@.$.$.X.1.7.+.O.+.#.7.;.1.>.-.Q =.:.3.<.:.1.6.-.8 0X0X0X0X",
"0X0X0X0X0X#.&.#.@.@.@.@.@.@.@.@.@.@.@.@.@.@.@.$.O.5.| #.$.@.O.4.-.1.:.>.:.:.<.<.:.:.1.w.1.0X0X0X0X0X",
"0X0X0X0X0X0X0X0X0X@.@.@.@.@.@.@.@.@.@.@.@.@.@.@.+.X.O.$.%.O.4.:.1.:.:.,.,.,.:.:.:.0X0X0X0X0X0X0X0X0X",
"0X0X0X0X0X0X0X0X0X@.@.@.@.@.@.@.@.@.@.@.@.@.@.@.#.@.#.$.$...:.-.:.:.:.:.,.:.:.,.:.0X0X0X0X0X0X0X0X0X"
};
