/* XPM */
static char *_e4912abc8ac4970d88cb49989cea3f5XqU1Tq7aLRX6Lxog[] = {
/* columns rows colors chars-per-pixel */
"50 50 138 2 ",
"   c None",
".  c #050101",
"X  c #0C0502",
"o  c #0D0905",
"O  c #120601",
"+  c #130A05",
"@  c #1A0D05",
"#  c #160E08",
"$  c #1B0F09",
"%  c #171008",
"&  c #1D120A",
"*  c #221206",
"=  c #24150A",
"-  c #28170A",
";  c #26190E",
":  c #2C1A0D",
">  c #311F0F",
",  c #2E1D10",
"<  c #311E11",
"1  c #34210F",
"2  c #342112",
"3  c #3A2615",
"4  c #3E2916",
"5  c #3E2919",
"6  c #422B17",
"7  c #442D19",
"8  c #482F1A",
"9  c #47301A",
"0  c #4C331C",
"q  c #50371E",
"w  c #543A1E",
"e  c #593E1F",
"r  c #4E3620",
"t  c #513720",
"y  c #553A21",
"u  c #5A3E21",
"i  c #5B401D",
"p  c #5D4223",
"a  c #5A402A",
"s  c #624524",
"d  c #664925",
"f  c #6A4C26",
"g  c #634528",
"h  c #664829",
"j  c #6B4C2A",
"k  c #704F2D",
"l  c #6F5127",
"z  c #6F5028",
"x  c #725227",
"c  c #73532B",
"v  c #78572C",
"b  c #7A592C",
"n  c #6D4F32",
"m  c #6F5032",
"M  c #765432",
"N  c #795631",
"B  c #7D5A33",
"V  c #7A593C",
"C  c #815F2C",
"Z  c #815D33",
"A  c #845F39",
"S  c #83612F",
"D  c #866234",
"F  c #896536",
"G  c #8D6836",
"H  c #876239",
"J  c #8B653A",
"K  c #8E683A",
"L  c #936C3C",
"P  c #97703D",
"I  c #9A713F",
"U  c #A0773F",
"Y  c #896440",
"T  c #8D6846",
"R  c #936940",
"E  c #986F42",
"W  c #956F4A",
"Q  c #9C7243",
"!  c #9B744D",
"~  c #A17643",
"^  c #A47945",
"/  c #A97D45",
"(  c #AB7D4A",
")  c #A47C56",
"_  c #A97F58",
"`  c #AE804B",
"'  c #B3834D",
"]  c #BA864F",
"[  c #B7884F",
"{  c #AB8158",
"}  c #B58552",
"|  c #BA8750",
" . c #B78856",
".. c #BC8A52",
"X. c #BB8C5D",
"o. c #C28E55",
"O. c #C28F58",
"+. c #C59157",
"@. c #C89256",
"#. c #C5915A",
"$. c #CB955A",
"%. c #CF995D",
"&. c #D39B5E",
"*. c #D99F5F",
"=. c #C39466",
"-. c #C99661",
";. c #CD9962",
":. c #C99969",
">. c #D49D62",
",. c #D19E69",
"<. c #DBA263",
"1. c #D6A26D",
"2. c #DCA56D",
"3. c #D7A470",
"4. c #DAA672",
"5. c #DDA976",
"6. c #DFAB78",
"7. c #E0A565",
"8. c #E5A967",
"9. c #E0A769",
"0. c #E5AB6B",
"q. c #EAAD6B",
"w. c #F6B76F",
"e. c #E4AD76",
"r. c #E2AE7B",
"t. c #EEB476",
"y. c #E6B17E",
"u. c #EAB37C",
"i. c #F3B779",
"p. c #F3B97D",
"a. c #ECB682",
"s. c #EFB985",
"d. c #F3BB84",
"f. c #F8BF86",
"g. c #FBC083",
"h. c #FDC48B",
"j. c #FFCB8A",
"k. c #FFD298",
/* pixels */
"                                                      < - = :                                       ",
"                                                  3 - 0 h k p < :                                   ",
"                                  : - @ = :     2 : B O.&.&.@.( r :                                 ",
"                              = : 0 M V M r * - 3 L i.e.3.1.,.>.@.8 <                               ",
"                          4 : j X.1.d.d.d.r.{ 4 - 0.s.r.r.r.r.6.0.E = 3                             ",
"                          : k i.h.u.6.5.5.u.h.r.< m d.4.5.5.6.r.9.( 3 3 <                           ",
"                        3 @ L t.y.5.5.5.4.5.4.h.} @ 3.r.5.5.5.r.1.' 4 Z 0 >                         ",
"                        8 0 g <.3.r.r.r.6.5.5.r.e.> _ d.5.5.6.r.$.( > ;.#.>                         ",
"                        y E - ' %.#.-.3.e.r.r.r.2.> ! f.r.5.r.-.@.Q 6 s.f.M :                       ",
"                        > 4 = g >.o.| ..O.-.-.>.' * ^ 2.r.r.a.#.*.y u h.s.} :                       ",
"                      : 7 w 1 O N &.$.O...| o.<.u < $.] O.#.5.>...@ ) f.a.X.<                       ",
"                    2 0 >.2./ q O g ' @.O.$.>.B O } q.%.&.$.o.' 8 8 i.r.9.( >                       ",
"                    * ! h.e.u.>.j O < B E L h = h Q K E J g 3 > O j #.>.8.B @                       ",
"                    : :.s.5.r.y.7.A : @ 8 < - 3 6 O O O O = 8 3 y - : K E - 8 <                     ",
"                    0 >.r.5.5.6.r.9.] y & 6 < = t ! ! V W :.e.$.@.} y $ @ T >.:                     ",
"                    h $.,.y.4.5.r.r.<.o., 0 } =.a.h.h.f.f.d.y.a.5.w.Q . J k.f.c -                   ",
"                    B &.| 4.y.4.5.r.5.>.Z @ A j.d.3.4.3.4.4.e.y.h...7 X Q p.,...2                   ",
"                    N <. ...4.y.e.4.r.1...2 @ u O.>.&.$.$.>.>.>.W @ 5 y j &.@.' s :                 ",
"                  , h +.$...| 1.r.r.a.4.$.y 0 : * k E ( ( Q N < . q 2.M y >.^ K K 3                 ",
"                    p P ` #.+.| #.3.3.O.>.j j $.u = @ = = @ & y Q <.7.z t #.Z K Q c <               ",
"                    0 I D E ` +.O.o.o...%.A t q.7.( A Z N R ( o...Q P h 5 Q G E ~ j :               ",
"                    2 H P D D E ( ....O.>.L 0 $.( ~ / @.>.@.~ A D F P h 4 L Q D 0 2 9 3             ",
"                    : g ^ K K D A K L ~ ( v 8 Q J F F A L A J L P K Q z 5 ` z , 2 p q 2             ",
"                    2 3 D G L K K J F D L k 8 L K K G L K L G F D G Q N 9 l ; 9 p y 0 6             ",
"                  2 q 3 7 b D L L L L L I p 0 I K K L L F c s e 0 0 i p 4 > 0 p 0 4 f q             ",
"                < t Z 0 1 q v b b B D D D 6 y Q L L J f q 6 2 2 3 3 < 1 3 9 w 0 9 e L g <           ",
"                2 D B y 4 : q c v x c v f : h L Z k 8 2 < 3 7 0 0 p d q > 9 0 0 i b ^ j ,           ",
"            < 2 0 ^ c h 4 4 2 4 p l f p 4 , p x q < > 6 0 0 w w q q i q 0 3 p h c b Q h ,           ",
"          % 7 p y ( z c 9 7 0 , 2 4 3 2 3 3 0 e : 3 0 e u s s d h d l d B 2 i b x x [ 0 3           ",
"          < p L 9 ^ c z p 3 h p 7 3 4 9 0 4 5 2 0 s d f c k k x c c d +.H @ y G d ` ( - 0           ",
"        X 6 s G 2 H P d c 3 e b f p y w u 3 < 8 c c c j f c x j f e f %.4 6 0 Q B %.3 q c +         ",
"        % 0 p S i 4 +.D b p 3 c c z h b u 6 0 p b s d d f f d s w z $.p - v 3 Q &.h @ Q d #         ",
"        ; 0 p l D - j } G j 2 x x x F L < p e 0 S i p s s s s s L 8.H + s D : ' Q X v ~ w #         ",
"        : 0 e g b c & 9 Z 0 2 K ' ' ` 0 : G h : / I c c c N H ..q.Z O q K ~ 0 p $ g ~ b w X         ",
"        & 0 w s h S c 3 = 2 3 0 M M 9 2 K / ^ 4 y ..$...} ..+.} g = h / ( F 6 @ u ~ x c 0           ",
"        + 0 q h d f S G j 4 4 : # @ & 9 c j B h & 4 N K K B g < & q H k 0 : : g I c j s 4           ",
"          6 0 g d d k b K 2 g H h p t 9 2 < - , 2 , - # @ @ & : 2 3 2 2 0 h 3 b c j h 0 <           ",
"          : 0 y d d d x v 3 u U P L K D B B B N c a 4 h s g g p s h M v F Z 3 k f f y 8 =           ",
"          X 7 7 u f d d b w 7 x z z l c b B G K Q F 2 D L F S b v v c f f f 2 s j e 0 0 %           ",
"            ; 0 0 p f s c w 5 c z h z z f f d h j b 4 e l h f f j j k c b v 6 6 u q 8 7 X           ",
"              3 0 0 e h f 3 2 f v x c c c c c l x b 4 q b x x x x v c c f p y 2 6 0 0 =             ",
"              o 6 0 0 y 0 4 6 w c f d s d l x v b c 2 0 c f j j l f s y q 0 0 5 6 6 &               ",
"                + 6 0 7 2 q 0 6 p y r 0 0 w p s x p 2 4 h h p u e q 0 0 9 7 9 7 < X                 ",
"                  o 3 8 6 0 0 3 9 0 9 0 0 0 0 q p 6 8 7 0 e y 0 9 9 7 8 8 5 , +                     ",
"                      = 4 8 8 8 9 8 6 7 8 9 9 9 9 4 7 7 3 8 8 9 9 7 4 2 ; X                         ",
"                          # = : ; & + + & ; 2 4 6 8 6 8 8 5 3 < : & o                               ",
"                                            . X + # % % # o .                                       ",
"                                                                                                    ",
"                                                                                                    ",
"                                                                                                    "
};
